<?xml version="1.0" encoding="utf-8"?>
<!-- Generator: Adobe Illustrator 16.0.0, SVG Export Plug-In . SVG Version: 6.00 Build 0)  -->
<!DOCTYPE svg PUBLIC "-//W3C//DTD SVG 1.1//EN" "http://www.w3.org/Graphics/SVG/1.1/DTD/svg11.dtd">
<svg version="1.1" xmlns="http://www.w3.org/2000/svg" xmlns:xlink="http://www.w3.org/1999/xlink" x="0px" y="0px" width="460px"
	 height="550px" viewBox="0 0 460 550" enable-background="new 0 0 460 550" xml:space="preserve">
<g id="Layer_1">
	<path fill="#FFFFFF" d="M459.991,2.056c0-0.696,0.032-1.381,0.089-2.056H0v550.542h293.065c0.888-0.427,1.821-0.662,2.786-0.662
		h164.14V2.056z"/>
</g>
<g id="Layer_2">
	<path fill="#FFFFFF" d="M361.317,93.113c1.712-9.385-8.358-11.242-8.358-11.242H104.777c-6.342,1.441-6.808,8.312-6.808,8.312
		l24.675,0.144c0,0,36.512-1.921,37.665-1.921c1.153,0,133.553,1.729,133.553,1.729l59.096-1.345L361.317,93.113z"/>
	<path fill="#212224" d="M104.201,85.618c0,0-7.495,0.577-6.341,7.783l9.224,50.731c0,0,2.018,4.036,9.224,4.036h229.157
		c0,0,5.188-0.288,6.918-6.053l8.936-49.002c0,0,0-7.206-6.341-7.495H104.201z"/>
	<g>
		<path fill="#E6E7E8" d="M350.652,307.774c0,3.85-3.15,7-7,7H113.218c-3.85,0-7-3.15-7-7V155.168c0-3.85,3.15-7,7-7h230.434
			c3.85,0,7,3.15,7,7V307.774z"/>
		<path fill="none" stroke="#D1D3D4" stroke-miterlimit="10" d="M350.652,307.774c0,3.85-3.15,7-7,7H113.218c-3.85,0-7-3.15-7-7
			V155.168c0-3.85,3.15-7,7-7h230.434c3.85,0,7,3.15,7,7V307.774z"/>
	</g>
	<rect x="141.096" y="148.168" fill="#405460" width="175.832" height="9.512"/>
	<rect x="187.792" y="255.107" fill="#405460" width="81.863" height="40.932"/>
	<rect x="232.76" y="299.209" fill="#405460" width="36.896" height="8.647"/>
	<rect x="187.792" y="299.209" fill="#405460" width="36.896" height="8.647"/>
	<rect x="122.937" y="165.463" fill="#405460" width="10.377" height="8.936"/>
	<rect x="122.937" y="176.705" fill="#405460" width="10.377" height="9.8"/>
	<rect x="136.34" y="176.705" fill="#405460" width="10.377" height="9.8"/>
	<rect x="143.69" y="190.685" fill="#405460" width="10.377" height="9.8"/>
	<rect x="158.103" y="190.252" fill="#405460" width="10.377" height="9.8"/>
	<rect x="148.735" y="204.088" fill="#405460" width="10.377" height="9.8"/>
	<rect x="153.779" y="217.924" fill="#405460" width="10.377" height="9.8"/>
	<rect x="161.273" y="204.088" fill="#405460" width="10.377" height="9.8"/>
	<rect x="175.686" y="204.088" fill="#405460" width="10.377" height="9.8"/>
	<rect x="189.81" y="204.088" fill="#405460" width="10.377" height="9.8"/>
	<rect x="180.875" y="217.924" fill="#405460" width="10.377" height="9.8"/>
	<rect x="194.999" y="217.924" fill="#405460" width="10.377" height="9.8"/>
	<rect x="209.123" y="217.924" fill="#405460" width="10.377" height="9.8"/>
	<rect x="223.535" y="217.924" fill="#405460" width="10.377" height="9.8"/>
	<rect x="237.948" y="217.924" fill="#405460" width="10.377" height="9.8"/>
	<rect x="253.081" y="217.924" fill="#405460" width="10.377" height="9.8"/>
	<rect x="266.629" y="217.924" fill="#405460" width="10.377" height="9.8"/>
	<rect x="280.032" y="217.924" fill="#405460" width="10.377" height="9.8"/>
	<rect x="294.444" y="217.924" fill="#405460" width="10.377" height="9.8"/>
	<rect x="307.416" y="217.924" fill="#405460" width="14.7" height="9.8"/>
	<rect x="299.057" y="204.376" fill="#405460" width="23.06" height="9.801"/>
	<rect x="285.304" y="204.088" fill="#405460" width="9.634" height="9.8"/>
	<rect x="272.188" y="204.088" fill="#405460" width="9.634" height="9.8"/>
	<rect x="258.641" y="204.376" fill="#405460" width="9.634" height="9.801"/>
	<rect x="244.949" y="204.088" fill="#405460" width="9.634" height="9.8"/>
	<rect x="231.979" y="204.088" fill="#405460" width="9.634" height="9.8"/>
	<rect x="217.565" y="204.088" fill="#405460" width="9.633" height="9.8"/>
	<rect x="203.934" y="204.376" fill="#405460" width="9.634" height="9.801"/>
	<rect x="168.48" y="217.924" fill="#405460" width="10.377" height="9.8"/>
	<rect x="171.939" y="190.252" fill="#405460" width="10.377" height="9.8"/>
	<rect x="186.063" y="190.685" fill="#405460" width="10.377" height="9.8"/>
	<rect x="198.746" y="190.685" fill="#405460" width="10.377" height="9.8"/>
	<rect x="212.005" y="190.252" fill="#405460" width="10.376" height="9.8"/>
	<rect x="226.417" y="190.685" fill="#405460" width="10.378" height="9.8"/>
	<rect x="239.39" y="190.685" fill="#405460" width="10.376" height="9.8"/>
	<rect x="253.225" y="190.685" fill="#405460" width="10.377" height="9.8"/>
	<rect x="266.772" y="190.685" fill="#405460" width="10.377" height="9.8"/>
	<rect x="281.186" y="190.685" fill="#405460" width="10.376" height="9.8"/>
	<rect x="294.444" y="190.685" fill="#405460" width="10.377" height="9.8"/>
	<rect x="308.856" y="190.685" fill="#405460" width="13.26" height="9.8"/>
	<rect x="150.32" y="176.705" fill="#405460" width="10.377" height="9.8"/>
	<rect x="163.292" y="176.705" fill="#405460" width="10.377" height="9.8"/>
	<rect x="177.127" y="176.705" fill="#405460" width="10.376" height="9.8"/>
	<rect x="191.251" y="176.705" fill="#405460" width="10.377" height="9.8"/>
	<rect x="204.511" y="176.705" fill="#405460" width="10.377" height="9.8"/>
	<rect x="218.347" y="176.705" fill="#405460" width="10.377" height="9.8"/>
	<rect x="231.606" y="176.705" fill="#405460" width="10.377" height="9.8"/>
	<rect x="244.578" y="176.705" fill="#405460" width="10.376" height="9.8"/>
	<rect x="258.27" y="176.705" fill="#405460" width="10.377" height="9.8"/>
	<rect x="271.961" y="176.705" fill="#405460" width="10.377" height="9.8"/>
	<rect x="286.373" y="176.705" fill="#405460" width="10.377" height="9.8"/>
	<rect x="299.633" y="176.705" fill="#405460" width="22.483" height="9.8"/>
	<rect x="122.937" y="190.252" fill="#405460" width="16.719" height="9.8"/>
	<rect x="122.937" y="203.8" fill="#405460" width="21.619" height="10.377"/>
	<rect x="122.937" y="217.924" fill="#405460" width="25.942" height="9.8"/>
	<rect x="122.937" y="231.471" fill="#405460" width="10.377" height="10.377"/>
	<rect x="135.908" y="231.471" fill="#405460" width="11.242" height="10.377"/>
	<rect x="150.32" y="231.471" fill="#405460" width="9.8" height="10.377"/>
	<rect x="163.292" y="231.471" fill="#405460" width="10.377" height="10.377"/>
	<rect x="177.127" y="231.471" fill="#405460" width="77.539" height="10.377"/>
	<rect x="258.413" y="231.471" fill="#405460" width="10.089" height="10.377"/>
	<rect x="271.961" y="231.471" fill="#405460" width="10.377" height="10.377"/>
	<rect x="285.221" y="231.471" fill="#405460" width="10.665" height="10.377"/>
	<rect x="299.057" y="231.471" fill="#405460" width="23.06" height="10.377"/>
	<rect x="324.422" y="231.471" fill="#405460" width="10.665" height="10.377"/>
	<rect x="324.422" y="217.924" fill="#405460" width="10.665" height="9.8"/>
	<rect x="324.422" y="203.8" fill="#405460" width="10.665" height="10.377"/>
	<rect x="324.422" y="191.117" fill="#405460" width="10.665" height="8.936"/>
	<rect x="324.422" y="176.705" fill="#405460" width="10.665" height="9.8"/>
	<rect x="324.422" y="165.463" fill="#405460" width="10.665" height="8.936"/>
	<rect x="312.604" y="165.463" fill="#405460" width="9.513" height="8.936"/>
	<rect x="299.057" y="165.463" fill="#405460" width="11.529" height="8.936"/>
	<rect x="287.238" y="165.463" fill="#405460" width="8.647" height="8.936"/>
	<rect x="274.844" y="165.463" fill="#405460" width="10.377" height="8.936"/>
	<rect x="261.296" y="165.463" fill="#405460" width="10.665" height="8.936"/>
	<rect x="249.766" y="165.463" fill="#405460" width="8.647" height="8.936"/>
	<rect x="236.795" y="165.463" fill="#405460" width="9.801" height="8.936"/>
	<rect x="224.688" y="165.463" fill="#405460" width="8.071" height="8.936"/>
	<rect x="212.005" y="165.463" fill="#405460" width="10.376" height="8.936"/>
	<rect x="198.746" y="165.463" fill="#405460" width="10.954" height="8.936"/>
	<rect x="186.063" y="165.463" fill="#405460" width="10.377" height="8.936"/>
	<rect x="173.668" y="165.463" fill="#405460" width="10.088" height="8.936"/>
	<rect x="161.273" y="165.463" fill="#405460" width="9.801" height="8.936"/>
	<rect x="148.879" y="165.463" fill="#405460" width="10.089" height="8.936"/>
	<rect x="135.908" y="165.463" fill="#405460" width="10.089" height="8.936"/>
	<polygon fill="#FFFFFD" points="345.176,140.962 113.425,140.962 104.201,93.113 352.959,93.113 	"/>
	<polygon fill="#9EA2AB" points="49.706,432.244 63.956,437.744 101.956,342.744 86.206,336.494 	"/>
	<polygon fill="#C0C4C5" points="54.24,433.994 63.956,437.744 101.956,342.744 91.081,338.429 	"/>
	<rect x="119.562" y="401.997" fill="#D1D3D4" width="10.326" height="28.712"/>
	<rect x="129.888" y="401.997" fill="#F15851" width="39.661" height="28.712"/>
	<rect x="134.64" y="411.704" fill="#E9E8EA" width="9.296" height="9.296"/>
	<rect x="145.758" y="411.704" fill="#E9E8EA" width="9.295" height="9.296"/>
	<rect x="156.876" y="411.704" fill="#E9E8EA" width="9.295" height="9.296"/>
	<polygon fill="#C49A6C" points="106.223,392.45 110.439,395.268 103.377,401.27 	"/>
	
		<rect x="125.645" y="328.445" transform="matrix(-0.8314 -0.5556 0.5556 -0.8314 32.4118 738.1605)" fill="#C9AA79" width="5.071" height="71.437"/>
	
		<rect x="146.664" y="330.615" transform="matrix(0.8315 0.5556 -0.5556 0.8315 210.0013 -26.8159)" fill="#A7A9AC" width="5.069" height="4.208"/>
	
		<rect x="148.797" y="327.795" transform="matrix(0.8314 0.5556 -0.5556 0.8314 208.6075 -28.5356)" fill="#BE1E2D" width="5.071" height="3.467"/>
	<polygon fill="#36B1B2" points="221.083,379.243 198.714,387.119 194.951,376 183.461,378.779 179.291,355.984 210.426,345.977 	
		"/>
	<polygon fill="#FFFFFF" points="183.461,378.779 198.714,387.119 194.951,376 	"/>
	<ellipse fill="#EF4343" cx="399.164" cy="260.127" rx="29" ry="29.21"/>
	<ellipse fill="#D3B990" cx="399.5" cy="259.813" rx="23.5" ry="23.187"/>
	<path fill="#C2B59B" stroke="#C2B59B" stroke-width="2" stroke-miterlimit="10" d="M244.767,333.413h77.45
		c0,0,3.459-0.248,3.459,2.964l-0.123,108.702c0,0,0.123,3.951-4.818,4.076h-75.968V333.413z"/>
	<polygon points="311.717,332.669 315.052,332.669 314.558,449.771 311.717,449.771 	"/>
	<path fill="#EF4343" d="M436.5,260.054c0,2.732-2.215,4.946-4.946,4.946h-1.607c-2.731,0-4.946-2.214-4.946-4.946l0,0
		c0-2.732,2.215-4.946,4.946-4.946h1.607C434.285,255.107,436.5,257.322,436.5,260.054L436.5,260.054z"/>
</g>
</svg>
