<?xml version="1.0" encoding="utf-8"?>
<!-- Generator: Adobe Illustrator 16.0.0, SVG Export Plug-In . SVG Version: 6.00 Build 0)  -->
<!DOCTYPE svg PUBLIC "-//W3C//DTD SVG 1.1//EN" "http://www.w3.org/Graphics/SVG/1.1/DTD/svg11.dtd">
<svg version="1.1" id="Layer_1" xmlns="http://www.w3.org/2000/svg" xmlns:xlink="http://www.w3.org/1999/xlink" x="0px" y="0px"
	 width="1024px" height="768px" viewBox="0 0 1024 768" enable-background="new 0 0 1024 768" xml:space="preserve">
<path fill="#E6ECF3" d="M1023.06,4c0-0.971,0.072-1.926,0.199-2.867H0v767.848h651.804c1.972-0.596,4.051-0.922,6.196-0.922h365.06
	V4z"/>
<polygon fill="#46A061" points="9.623,740.444 70.53,679.543 80.079,689.09 9.623,759.548 48.726,759.548 129.918,678.354 
	129.918,639.445 101.455,667.907 91.786,658.208 129.918,620.169 129.918,579.58 90.147,619.483 40.533,668.959 40.52,649.766 
	129.918,559.767 90.021,559.767 9.623,640.162 "/>
<polygon fill="#46A061" points="143.575,606.79 204.481,545.892 214.03,555.438 143.575,625.894 182.677,625.894 263.87,544.699 
	263.87,505.791 235.406,534.255 225.736,524.556 263.87,486.515 263.87,445.928 224.099,485.832 174.484,535.305 174.471,516.112 
	263.87,426.115 223.971,426.115 143.575,506.511 "/>
<polygon fill="#46A061" points="277.469,472.342 338.376,411.442 347.924,420.989 277.469,491.444 316.571,491.444 397.764,410.25 
	397.764,371.342 369.301,399.807 359.631,390.106 397.764,352.067 397.764,311.479 357.993,351.382 308.379,400.855 
	308.364,381.664 397.764,291.666 357.865,291.666 277.469,372.062 "/>
<polygon fill="#46A061" points="545.415,205.806 606.323,144.906 615.871,154.454 545.415,224.908 584.519,224.908 665.712,143.714 
	665.712,104.806 637.247,133.271 627.578,123.571 665.712,85.531 665.712,44.943 625.939,84.847 576.326,134.32 576.312,115.128 
	665.712,25.13 625.812,25.13 545.415,105.526 "/>
<polygon fill="#46A061" points="679.31,-0.06 679.31,70.634 740.218,9.735 749.766,19.283 679.31,89.737 718.413,89.737 
	799.606,8.542 799.606,-0.06 "/>
<polygon fill="#46A061" points="679.31,249.675 740.218,188.776 749.766,198.324 679.31,268.778 718.413,268.778 799.606,187.583 
	799.606,148.676 771.142,177.14 761.473,167.44 799.606,129.401 799.606,88.813 759.834,128.716 710.221,178.19 710.206,158.998 
	799.606,69 759.707,69 679.31,149.396 "/>
<polygon fill="#46A061" points="679.31,424.521 740.218,363.622 749.766,373.169 679.31,443.623 718.413,443.623 799.606,362.429 
	799.606,323.521 771.142,351.986 761.473,342.286 799.606,304.247 799.606,263.659 759.834,303.562 710.221,353.036 
	710.206,333.843 799.606,243.846 759.707,243.846 679.31,324.242 "/>
<polygon fill="#46A061" points="679.31,600.84 740.218,539.939 749.766,549.488 679.31,619.941 718.413,619.941 799.606,538.748 
	799.606,499.84 771.142,528.305 761.473,518.604 799.606,480.564 799.606,439.977 759.834,479.881 710.221,529.354 710.206,510.162 
	799.606,420.164 759.707,420.164 679.31,500.561 "/>
<polygon fill="#46A061" points="689.091,768.06 740.218,716.939 749.766,726.488 708.192,768.06 747.295,768.06 799.606,715.748 
	799.606,676.84 771.142,705.305 761.473,695.604 799.606,657.564 799.606,616.977 759.834,656.881 710.221,706.354 710.206,687.162 
	799.606,597.164 759.707,597.164 679.31,677.561 679.31,768.06 "/>
<polygon fill="#46A061" points="9.623,561.968 70.53,501.068 80.079,510.615 9.623,581.07 48.726,581.07 129.918,499.876 
	129.918,460.968 101.455,489.433 91.786,479.732 129.918,441.693 129.918,401.105 90.147,441.009 40.533,490.481 40.52,471.29 
	129.918,381.292 90.021,381.292 9.623,461.688 "/>
<polygon fill="#46A061" points="143.575,427.521 204.481,366.622 214.03,376.169 143.575,446.624 182.677,446.624 263.87,365.429 
	263.87,326.521 235.406,354.985 225.736,345.286 263.87,307.246 263.87,266.658 224.099,306.562 174.484,356.036 174.471,336.843 
	263.87,246.845 223.971,246.845 143.575,327.241 "/>
<polygon fill="#46A061" points="277.469,293.713 338.376,232.812 347.924,242.359 277.469,312.816 316.571,312.816 397.764,231.622 
	397.764,192.713 369.301,221.176 359.631,211.477 397.764,173.438 397.764,132.849 357.993,172.752 308.379,222.228 
	308.364,203.035 397.764,113.036 357.865,113.036 277.469,193.432 "/>
<polygon fill="#46A061" points="531.817,1.024 529.651,1.024 492.047,38.753 442.432,88.229 442.418,69.036 509.978,1.024 
	469.932,1.024 411.522,59.432 411.522,159.714 472.43,98.813 481.978,108.36 411.522,178.816 450.624,178.816 531.817,97.623 
	531.817,58.714 503.354,87.177 493.685,77.478 531.817,39.439 "/>
<polygon fill="#46A061" points="590.51,1.024 545.415,46.119 584.519,46.119 629.611,1.024 "/>
<polygon fill="#46A061" points="545.415,1.024 545.415,27.016 571.41,1.024 "/>
<polygon fill="#46A061" points="9.652,383.527 70.56,322.625 80.108,332.173 9.652,402.629 48.754,402.629 129.948,321.435 
	129.948,282.527 101.485,310.99 91.815,301.29 129.948,263.252 129.948,222.663 90.176,262.566 40.562,312.042 40.549,292.849 
	129.948,202.85 90.049,202.85 9.652,283.245 "/>
<polygon fill="#46A061" points="143.604,249.08 204.511,188.179 214.059,197.726 143.604,268.182 182.706,268.182 263.898,186.986 
	263.898,148.079 235.436,176.543 225.767,166.843 263.898,128.803 263.898,88.216 224.128,128.119 174.514,177.592 174.5,158.4 
	263.898,68.403 224.001,68.403 143.604,148.798 "/>
<polygon fill="#46A061" points="359.631,33.673 392.361,1.024 351.9,1.024 308.379,44.424 308.364,25.231 332.41,1.024 
	292.073,1.024 277.469,15.627 277.469,115.909 338.376,55.008 347.924,64.556 277.469,135.012 316.571,135.012 397.764,53.818 
	397.764,14.91 369.301,43.373 "/>
<polygon fill="#46A061" points="9.652,205.005 70.56,144.106 80.108,153.653 9.652,224.108 48.754,224.108 129.948,142.914 
	129.948,104.005 101.485,132.47 91.815,122.771 129.948,84.73 129.948,44.143 90.176,84.046 40.562,133.52 40.549,114.327 
	129.948,24.33 90.049,24.33 9.652,104.726 "/>
<polygon fill="#46A061" points="143.575,1.024 143.575,70.72 204.481,9.818 214.03,19.366 143.575,89.822 182.677,89.822 
	263.87,8.626 263.87,1.024 "/>
<polygon fill="#46A061" points="9.652,1.024 9.652,26.96 35.592,1.024 "/>
<polygon fill="#46A061" points="54.691,1.024 9.652,46.062 48.754,46.062 93.793,1.024 "/>
<polygon fill="#46A061" points="129.918,769.092 129.918,757.666 118.531,769.092 "/>
<polygon fill="#46A061" points="98.889,769.092 129.918,737.854 90.021,737.854 58.781,769.092 "/>
<polygon fill="#46A061" points="159.36,769.092 204.481,723.976 214.03,733.523 178.461,769.092 217.563,769.092 263.87,722.785 
	263.87,683.877 235.406,712.339 225.736,702.641 263.87,664.603 263.87,624.012 224.099,663.916 174.484,713.391 174.471,694.199 
	263.87,604.199 223.971,604.199 143.575,684.595 143.575,769.092 "/>
<polygon fill="#46A061" points="277.469,650.429 338.376,589.527 347.924,599.074 277.469,669.53 316.571,669.53 397.764,588.336 
	397.764,549.428 369.301,577.892 359.631,568.191 397.764,530.153 397.764,489.564 357.993,529.468 308.379,578.943 308.364,559.75 
	397.764,469.751 357.865,469.751 277.469,550.146 "/>
<polygon fill="#46A061" points="411.522,517.549 472.43,456.648 481.978,466.196 411.522,536.65 450.624,536.65 531.817,455.456 
	531.817,416.549 503.354,445.014 493.685,435.313 531.817,397.275 531.817,356.686 492.047,396.59 442.432,446.062 442.418,426.87 
	531.817,336.873 491.918,336.873 411.522,417.269 "/>
<polygon fill="#46A061" points="411.522,342.938 472.43,282.038 481.978,291.586 411.522,362.04 450.624,362.04 531.817,280.846 
	531.817,241.938 503.354,270.403 493.685,260.703 531.817,222.665 531.817,182.075 492.047,221.979 442.432,271.452 442.418,252.26 
	531.817,162.262 491.918,162.262 411.522,242.658 "/>
<polygon fill="#46A061" points="545.415,383.892 606.323,322.991 615.871,332.539 545.415,402.995 584.519,402.995 665.712,321.8 
	665.712,282.893 637.247,311.355 627.578,301.656 665.712,263.618 665.712,223.028 625.939,262.932 576.326,312.407 
	576.312,293.214 665.712,203.215 625.812,203.215 545.415,283.611 "/>
<polygon fill="#46A061" points="335.953,769.092 338.615,766.428 341.279,769.092 394.15,769.092 398.004,765.238 398.004,726.33 
	369.541,754.793 359.871,745.094 398.004,707.056 398.004,666.466 358.232,706.369 308.619,755.845 308.604,736.652 
	398.004,646.653 358.104,646.653 277.708,727.049 277.708,769.092 "/>
<polygon fill="#46A061" points="411.602,692.881 472.51,631.98 482.059,641.527 411.602,711.983 450.704,711.983 531.898,630.789 
	531.898,591.882 503.435,620.344 493.765,610.645 531.898,572.606 531.898,532.017 492.126,571.921 442.513,621.396 
	442.498,602.203 531.898,512.204 491.999,512.204 411.602,592.6 "/>
<polygon fill="#46A061" points="545.655,560.001 606.563,499.103 616.111,508.649 545.655,579.104 584.758,579.104 665.951,497.91 
	665.951,459.002 637.488,487.466 627.818,477.767 665.951,439.729 665.951,399.139 626.18,439.043 576.566,488.516 576.552,469.323 
	665.951,379.326 626.053,379.326 545.655,459.722 "/>
<polygon fill="#46A061" points="453.002,769.092 531.846,689.721 491.947,689.721 412.574,769.092 "/>
<polygon fill="#46A061" points="492.075,749.438 472.364,769.092 512.829,769.092 531.846,750.121 531.846,709.533 "/>
<polygon fill="#46A061" points="545.445,735.946 606.352,675.048 615.9,684.595 545.445,755.05 584.547,755.05 665.74,673.855 
	665.74,634.947 637.277,663.411 627.607,653.713 665.74,615.673 665.74,575.084 625.97,614.988 576.354,664.461 576.341,645.27 
	665.74,555.271 625.841,555.271 545.445,635.667 "/>
<polygon fill="#46A061" points="630.945,769.092 665.712,734.093 625.812,734.093 590.814,769.092 "/>
<path fill="#46A061" d="M658,768.06h7.712v-14.153l-15.136,15.186h0.863C653.519,768.424,655.723,768.06,658,768.06z"/>
<path fill="#E6ECF3" d="M0.664,1.024C0.5,1.024,0.343,1.013,0.187,1v767.984h9.437V1.024H0.664z"/>
<g>
	<polygon fill="#46A061" points="895.367,33.006 928.515,-0.06 888.055,-0.06 844.115,43.756 844.101,24.563 868.561,-0.06 
		828.226,-0.06 813.204,14.962 813.204,115.241 874.112,54.342 883.66,63.89 813.204,134.344 852.308,134.344 933.501,53.149 
		933.501,14.242 905.036,42.706 	"/>
	<polygon fill="#46A061" points="813.204,294.282 874.112,233.383 883.66,242.931 813.204,313.385 852.308,313.385 933.501,232.19 
		933.501,193.283 905.036,221.747 895.367,212.047 933.501,174.008 933.501,133.42 893.729,173.323 844.115,222.797 
		844.101,203.604 933.501,113.607 893.602,113.607 813.204,194.003 	"/>
	<polygon fill="#46A061" points="813.204,469.129 874.112,408.229 883.66,417.777 813.204,488.23 852.308,488.23 933.501,407.037 
		933.501,368.129 905.036,396.594 895.367,386.893 933.501,348.853 933.501,308.266 893.729,348.169 844.115,397.643 
		844.101,378.451 933.501,288.453 893.602,288.453 813.204,368.85 	"/>
	<polygon fill="#46A061" points="813.204,645.447 874.112,584.547 883.66,594.096 813.204,664.549 852.308,664.549 933.501,583.355 
		933.501,544.447 905.036,572.912 895.367,563.211 933.501,525.172 933.501,484.584 893.729,524.488 844.115,573.961 
		844.101,554.77 933.501,464.771 893.602,464.771 813.204,545.168 	"/>
	<polygon fill="#46A061" points="867.599,768.06 874.112,761.547 880.624,768.06 925.797,768.06 933.501,760.355 933.501,721.447 
		905.036,749.912 895.367,740.211 933.501,702.172 933.501,661.584 893.729,701.488 844.115,750.961 844.101,731.77 
		933.501,641.771 893.602,641.771 813.204,722.168 813.204,768.06 	"/>
</g>
<g>
	<path fill="#46A061" d="M1006.228-0.06l-59.129,59.128v100.279l60.908-60.899l9.548,9.548l-70.456,70.454h39.104l36.857-36.858
		V42.939l-45.05,44.923l-0.015-19.192l45.064-45.365V4c0-1.384,0.14-2.741,0.395-4.06H1006.228z"/>
	<polygon fill="#46A061" points="1023.06,221.98 978.01,266.903 977.995,247.711 1023.06,202.346 1023.06,162.15 947.099,238.109 
		947.099,338.389 1008.007,277.489 1017.555,287.037 947.099,357.491 986.202,357.491 1023.06,320.633 	"/>
	<polygon fill="#46A061" points="1023.06,396.826 978.01,441.749 977.995,422.558 1023.06,377.191 1023.06,336.996 947.099,412.956 
		947.099,513.236 1008.007,452.335 1017.555,461.884 947.099,532.338 986.202,532.338 1023.06,495.48 	"/>
	<polygon fill="#46A061" points="1023.06,573.146 978.01,618.068 977.995,598.877 1023.06,553.512 1023.06,513.315 947.099,589.275 
		947.099,689.555 1008.007,628.654 1017.555,638.203 947.099,708.656 986.202,708.656 1023.06,671.799 	"/>
	<polygon fill="#46A061" points="1023.06,750.146 1005.096,768.06 1023.06,768.06 	"/>
	<polygon fill="#46A061" points="1023.06,690.315 947.099,766.275 947.099,768.06 985.761,768.06 1023.06,730.512 	"/>
</g>
<path fill="#E6ECF3" d="M1023.06,4c0-1.008,0.077-2,0.214-2.976H0.824C0.605,1.024,0.396,1.013,0.187,1v9.068H1023.06V4z"/>
<path fill="#E6ECF3" d="M1023.06,4c0-1.036,0.079-2.055,0.224-3.056h-8.72V768.06h8.496V4z"/>
<path fill="#E6ECF3" d="M1023.06,759.548H0.187v9.437h651.607c1.975-0.598,4.058-0.925,6.206-0.925h365.06V759.548z"/>
<g>
	<polygon fill="#46A061" points="436.339,315.611 488.296,263.66 496.44,271.805 436.339,331.905 469.695,331.905 538.956,262.643 
		538.956,229.453 514.677,253.734 506.427,245.46 538.956,213.01 538.956,178.388 505.03,212.427 462.706,254.63 462.694,238.257 
		538.956,161.487 504.92,161.487 436.339,230.067 	"/>
	<path fill="#F3C58D" d="M460.149,377.167l-1.665,28.882c0,0,47.67,40.014,50.471,43.734c0,0,41.827-31.391,48.911-34.725
		l1.369-37.892H460.149z"/>
	<path opacity="0.4" fill="#A97C50" d="M507.178,400.406c-9.364,1.891-19.226,2.008-28.05-2.061
		c-8.362-3.855-11.607-11.645-14.949-19.516c-0.893-2.108-3.964-0.29-3.076,1.801c3.821,9.009,6.197,15.662,14.888,20.602
		c9.029,5.133,29.66,6.951,35.782,2.406C513.622,402.27,509.422,399.951,507.178,400.406z"/>
	<path opacity="0.4" fill="#A97C50" d="M554.669,378.17c-0.344,6.151-4.232,10.423-8.504,14.449
		c-4.729,4.461-9.371,6.049-15.783,6.049c-2.299,0-2.299,3.568,0,3.568c6.863,0,11.764-1.592,17.094-6.008
		c5.641-4.678,10.336-10.524,10.758-18.058C558.364,375.873,554.8,375.884,554.669,378.17z"/>
	<path fill="#F0D0A7" d="M605.728,302.52c0.002-0.16-0.029-0.988-0.076-1.131c0.939-1.651,0.578-4.304-0.623-5.776
		c0.527-2.513-1.572-5.125-4.9-5.125c-2.332,0-3.701,1.473-4.139,3.214c-2.643-0.296-5.404,0.522-7.486,2.166
		c0.012-3.162-0.023-6.271-0.074-9.278c-0.303-18.078-6.562-32.397-18.92-45.437c-3.059-3.227-6.629-6.597-10.656-8.887
		c0.461-0.933,0.893-1.889,1.262-2.898c3.727-10.219-9.576-15.022-16.385-9.541c-8.168,6.574-16.145,13.277-25.154,18.687
		c-10.071,6.048-21.656,8.67-32.782,12.029c-1.198,0.363-2.394,0.738-3.585,1.135c3.178-3.185,6.385-6.321,9.428-9.517
		c8.712-9.153-5.134-23.041-13.866-13.865c-9.427,9.905-19.194,19.327-27.229,30.45c-2.575,3.561-4.705,7.371-6.557,11.319
		c-0.392-0.025-0.784-0.035-1.173-0.078c-8.621-0.88-12.005,9.948-7.631,15.866c-0.672,0.944-1.169,2.055-1.377,3.368
		c-0.542,3.407-0.604,6.364-0.29,9.578c-0.213,0.999-0.456,1.985-0.601,2.899c-0.07,0.435-0.116,0.864-0.141,1.281
		c-0.353-2.044-0.743-4.083-1.26-6.1c-0.731-2.851-1.807-3.963-4.074-3.156c0.119-1.16,0.369-2.042,0.414-3.233
		c0.262-6.902-12.409-6.876-12.669-0.003c-0.301,7.865-1.992,14.853,2.5,21.947c1.898,2.997,4.812,7.907,8.098,10.618
		c0.473,1.689,2.89,3.701,5.167,3.701c1.711,0,1.842-1.408,2.534-2.519c0.244,2.202-0.048,4.472,0.53,6.643
		c0.5,6.015,0.516,11.709,6.551,14.711c0.151,0.075,0.296,0.11,0.443,0.168c4.608,8.061,10.039,15.644,14.732,23.663
		c4.029,6.882,7.376,13.983,12.276,20.339c10.405,13.482,24.447,14.605,40.444,13.607c7.998-0.5,16.896,0.686,24.74-1.229
		c8.863-2.17,14.176-10.037,19.299-17.136c5.09-7.054,9.82-14.126,14.74-21.277c5.125-7.451,11.227-14.461,14.998-22.753
		c0.873-1.924,1.09-2.454,1.77-4.497c0.209,0.027,0.047-2.001,0.262-1.989c0.604,1.651,2.787,2.759,4.381,1.123
		c0.836-0.856,2.406-1.131,3.051-2.103c0.973-0.665,1.342-1.556,1.912-2.629c0.459,0,0.502-0.75,0.951-1.035
		c0.973-0.62,1.359-1.608,1.744-2.644c0.066-0.172,1.072,0.046,1.133-0.128c1.668-1.439,2.072-3.327,3.516-5.288
		c1.594-2.158,2.748-4.392,3.016-6.781C606.39,310.981,605.638,307.22,605.728,302.52z M435.001,310.134
		c-0.162,0.419-0.273,0.849-0.412,1.275c-0.273-0.683-0.53-1.37-0.771-2.062c-0.09-0.553-0.184-1.108-0.271-1.66
		C433.924,308.587,434.41,309.413,435.001,310.134z"/>
	<path fill="#3C2415" d="M575.845,273.351c-0.434-0.227-0.83-0.491-1.225-0.781c-0.271-0.198-0.592-0.243-0.916-0.226
		c-0.395-0.797-1.961-2.352-3.043-2.487c-2.234-0.278-2.924-0.639-5.012-1.43c-0.713-0.271-0.791-0.396-1.572-0.393
		c0.09-0.551-1.684-1.233-2.402-1.136c-0.537,0.073-1.072,0.115-1.607,0.161c-0.549-0.324-1.096-0.641-1.568-0.762
		c-0.801-0.209-3.867-0.721-4.562-0.163c-3.299,0-4.537,0.431-7.834,0.334c-0.893-0.081-1.787-0.154-2.684-0.213
		c-3.543-0.222-8.027-0.393-10.939,1.954c-0.801,0.241-1.361,0.689-1.73,1.24c-0.701,0.08-1.248,0.598-1.529,1.292
		c-0.17,0.414-0.275,0.842-0.389,1.273c-0.059,0.216-0.125,0.428-0.197,0.644l0,0c0.01-0.041-0.002-0.031-0.029,0.018
		c-0.006,0.003-0.006,0.003-0.014,0.006c-1.465,0.798-2.121,4.405-0.316,4.162c1.066-0.144,3.486-1.352,4.539-1.923
		c0.553,0.167,1.172,0.217,1.855,0.067c7.344-1.627,14.025-0.968,21.449-0.99c1.035-0.003,2.209,0.49,2.777-0.075
		c2.311,1.331,4.609,0.204,7.232,0.284c1.723,0.753,3.369,1.662,5.365,1.909c0.648,0.083,1.172-0.049,1.572-0.31
		c0.318,0.223,0.641,0.432,0.982,0.623C577.687,278.468,577.882,274.422,575.845,273.351z"/>
	<g>
		<path fill="#3C2415" d="M449.111,269.782C449.014,269.862,449,269.899,449.111,269.782L449.111,269.782z"/>
		<path fill="#3C2415" d="M494.768,268.966c-1.045-4.77-4.683-4.062-8.761-4.423c-0.061-0.015-0.097-0.053-0.162-0.063
			c-6.845-1.044-13.817-1.504-20.728-1.888c-3.584-0.198-8.531-0.933-12.039,0.592c-0.037-0.014-0.065-0.03-0.102-0.041
			c-1.02-0.278-1.83,0.345-2.191,1.246c-0.266,0.655-1.345,1.243-1.946,1.553c-0.696,0.362-1.638,0.606-2.166,1.225
			c-0.626,0.742-0.728,1.794,0,2.521c0.644,0.644,1.893,0.742,2.522,0c-0.042,0.048-0.058,0.066-0.085,0.095
			c0.039-0.035,0.087-0.07,0.144-0.098c0.253-0.139,0.522-0.258,0.786-0.38c0.266-0.122,0.508-0.275,0.76-0.414
			c0.382,0.386,0.926,0.599,1.62,0.366c5.793-1.943,13.727-0.125,19.728,0.042c7.144,0.203,15.705,2.673,22.62,3.846
			C496.123,273.373,495.078,270.38,494.768,268.966z"/>
	</g>
	<path opacity="0.4" fill="#A97C50" d="M560.163,240.873c-2.035-1.809-4.139-3.537-6.197-5.323c0.654-0.881,0.541-2.447-0.83-2.934
		c0.309,0.109-0.162-0.166-0.016-0.039c-0.09-0.078-0.256-0.238-0.326-0.33c-0.209-0.273-0.396-0.566-0.576-0.863
		c0.01-0.01,0.025-0.013,0.035-0.024c0.256-0.254,0.395-0.612,0.463-0.981c0.326-0.384,0.5-0.894,0.328-1.532
		c-0.131-0.489-0.297-0.964-0.484-1.428c0.82-0.983,1.422-2.019,1.602-3.084c0.217-1.292-0.826-2.131-1.824-2.207
		c-0.502-0.972-1.836-1.542-2.828-0.53c-0.16,0.164-0.312,0.343-0.467,0.513c0.066-0.226,0.156-0.44,0.215-0.673
		c0.561-2.229-2.879-3.176-3.438-0.946c-1.277,5.099-5.809,9.636-11.012,13.526c-3.172,1.221-6.453,2.208-9.689,3.055
		c-1.523,0.399-1.535,2.098-0.691,2.961c-7.131,3.531-14.436,6.328-22.762,4.727c-2.246-0.432-3.205,3.004-0.949,3.439
		c0.087,0.017,0.167,0.023,0.254,0.038c-1.03,0.425-2.023,0.974-2.933,1.771c-0.428,0.374-0.569,0.822-0.537,1.261
		c-3.936,0.355-7.611-0.038-10.451-1.651c-2.004-1.135-3.797,1.946-1.801,3.078c9.693,5.497,25.5-0.379,34.334-5.014
		c3.436-1.801,6.672-3.944,9.84-6.193c1.176-0.604,2.35-1.215,3.529-1.829c3.889-2.014,10.051-3.577,14.457-6.469
		c0.531,0.941,1.107,1.856,1.809,2.732c2.287,2.874,5.691,5.036,8.426,7.469C559.354,244.918,561.884,242.406,560.163,240.873z"/>
	<path opacity="0.4" fill="#A97C50" d="M484.275,230.65c-1.365,2.013-3.419,3.381-5.235,4.949c-1.333,1.154-2.532,2.552-3.601,4.014
		c-0.388,0.039-0.765,0.171-1.024,0.48c-0.566,0.678-1.385,0.818-2.222,0.991c-0.861,0.179-1.351,1.098-1.259,1.934
		c-1.45,0.255-2.885,0.464-4.172,0.565c-1.957,0.156-2.232,2.806-0.815,3.429c-0.682,1.71-2.486,3.077-3.797,4.23
		c-1.483,1.303-3.062,2.438-4.823,3.236c-0.9,0.337-1.835,0.584-2.82,0.691c-2.261,0.25-2.285,3.817,0,3.565
		c0.232-0.024,0.447-0.08,0.672-0.115c0.303,0.106,0.636,0.158,1.026,0.053c1.656-0.446,3.16-1.146,4.572-2.01
		c6.476-3.546,11.217-10.354,19.048-11.694c1.658-0.286,1.573-2.193,0.533-3.046c0.975-0.94,1.803-2.046,2.428-3.231
		c0.223-0.425,0.225-0.944,0.086-1.417c1.629-1.475,3.224-2.973,4.48-4.822C488.649,230.542,485.558,228.761,484.275,230.65z"/>
	<path opacity="0.4" fill="#A97C50" d="M516.997,292.189c-0.484,0.087-0.949-0.006-1.41-0.17c0.307-0.38,0.373-1.024-0.131-1.41
		c-1.131-0.867-2.201-1.118-3.201-0.979c-0.107-0.035-0.229-0.048-0.369-0.035c-3.729,0.418-4.898,1.535-6.639,4.9
		c-2.197,4.237-4.753,8.216-6.477,12.69c-0.121,0.315-0.046,0.571,0.118,0.755c-0.215,0.274-1.573-0.532-1.42-0.275
		c-0.854,1.123-0.416,3.252-1.433,4.141c-0.69,0.392-1.387,0.763-2.091,1.084c-0.329,0.155-0.447,0.412-0.447,0.675
		c-2.752,1.544-6.109,2.239-10.453,1.576c-1.125-0.172-1.607,1.544-0.475,1.718c6.399,0.976,11.491-0.527,15.603-4.304
		c2.624-1.762,4.805-4.01,6.503-6.823c2.917-4.835,3.255-14.537,11.663-10.578c0.891,0.42,1.68-0.659,1.217-1.278
		C518.56,293.596,518.087,291.999,516.997,292.189z"/>
	<path opacity="0.4" fill="#A97C50" d="M586.036,292.51c-0.236-0.348-0.689-0.575-1.178-0.341c-1.256,0.602-3.113,0.185-3.498,1.479
		c-1.865,3.28-0.961,10.152-1.926,12.867c-0.248,0.697-1.648,1.58-1.072,1.526c-1.307,2.626-1.498,4.881-3.975,4.616
		c-0.543-0.055-0.818,0.32-0.842,0.742c-5.082,3.012-10.182,2.919-15.65,3.727c0.291-0.104,3.637,0.51,3.922,0.383
		c1.049-0.473-2.883-0.85-3.922-0.383c-3.379,1.519-6.096-0.07-9.67,0.025c-2.846,0.077-7.348,1.631-9.557-0.72
		c-0.672-0.713-4.225-1.305-4.023-0.533c-4.957-1.508-7.994-2.401-9.979-7.6c-0.406-1.062-2.129-0.602-1.719,0.475
		c3.447,9.021,11.795,10.972,20.578,12.1c11.252,1.439,21.775,0.716,31.477-5.187c0.096-0.058,1.676-1.068,1.738-1.145
		c3.514-2.44,4.568-4.534,5.67-7.26c0.891-2.212,0.625-6.994,1.385-10.31c0.523-1.301,1.27-2.444,2.418-2.729
		C587.22,293.993,586.929,292.58,586.036,292.51z"/>
	<path opacity="0.4" fill="#A97C50" d="M514.007,341.585c-0.086,0.01-0.684-0.005-0.756,0.048c-0.244-0.172-1.808-0.393-2.145-0.203
		c-1.147,0.658-2.514,0.088-5.138,0.04c-0.924-0.168-1.766-0.43-2.405-0.78c-0.453-0.247-0.874-0.065-1.119,0.251
		c-1.87-0.622-3.112-1.838-2.676-3.952c0.228-1.121-1.259-2.422-1.474-1.294c-1.336,6.989,3.604,7.552,8.335,7.569
		c0.82,0.045,1.653,0.037,2.521-0.033c2.037-0.156,4.645-0.392,6.245-1.732C515.396,341.499,514.829,341.477,514.007,341.585z"/>
	<path fill="none" stroke="#F0D0A7" stroke-miterlimit="10" d="M596.849,292.183c0,0,6.73-5.595,8.18,3.429
		c0,0,3.008,15.933-3.453,25.738c0,0-5.35,8.021-9.248,11.475c0,0-4.797,6.968-7.803,1.647"/>
	<path fill="none" stroke="#F0D0A7" stroke-miterlimit="10" d="M433.921,314.542c0,0-0.333,16.723,0,18.17
		c0,0,1.089,7.02,6.327,13.036c2.137,3.482,6.102,8.778,8.243,12.255c3.824,6.211,6.431,10.726,10.25,16.934
		c3.013,4.898,6.77,10.131,10.585,14.485c3.425,3.909,6.603,6.823,11.153,9.347c3.197,1.777,6.718,3.232,10.279,4.074
		c3.838,0.912,8.131,0.533,12.06,0.666c7.544,0.262,15.23,0.039,22.766-0.373c3.295-0.178,7.07-0.562,10.18-1.754
		c3.545-1.361,6.803-5.15,9.381-7.816c3.043-3.148,5.805-6.561,8.416-10.07c1.475-1.979,2.896-4.003,4.297-6.041
		c5.389-7.854,10.74-15.735,16.109-23.602c1.533-2.249,3.119-4.465,4.76-6.639c3.557-4.707,6.344-11.908,6.471-17.844
		c0.068-3.083,1.715-11.736,0.992-14.828"/>
	<path fill="none" stroke="#F0D0A7" stroke-miterlimit="10" d="M425.271,285.762c0,0-11.772-3.534-10.76,9.293
		c-0.136,2.479-0.075,5.007,0.133,7.475c0.285,3.385,1.524,7.993,3.911,10.951c5.061,6.27,5.414,8.57,9.213,11.879
		c0,0,3.676,4.566,6.017-1.113"/>
	<path fill="none" stroke="#3C2415" stroke-miterlimit="10" d="M527.651,275.562c0.195-1.321,0.475-3.047,0.596-3.333
		c0.66-1.549,1.723-2.935,3.109-3.903c5.018-3.505,12.842-2.364,18.594-2.409c5.197-0.038,10.547,0.425,15.541,1.909
		c2.701,0.8,5.344,1.953,7.721,3.475c2.5,1.598,3.691,4.651,5.047,7.168c-2.748-2.326-7.354-2.9-10.717-3.496
		c-8.439-1.5-17.15-1.553-25.672-0.78c-4.344,0.393-8.725,0.941-12.871,2.347l-1.375,0.579L527.651,275.562z"/>
	<path fill="none" stroke="#3C2415" stroke-miterlimit="10" d="M444.82,270.522c0,0,26.028-5.586,49.948,3.176c0,0,0-4.709,0-4.732
		c0-4.803-8.614-4.736-11.833-5.131c-6.2-0.755-12.472-1.24-18.714-1.406c-1.784-0.048-3.568-0.083-5.349-0.032
		c-0.831,0.021-6.628,0.139-7.212,0.711C451.657,263.11,444.82,270.522,444.82,270.522z"/>
	<path fill="none" stroke="#000000" stroke-miterlimit="10" d="M527.438,277.118"/>
	<g>
		<path fill="#C49A6C" d="M511.664,300.292c0,0-0.008,0.958-0.021,2.633c-0.045,0.838-0.1,1.857-0.162,3.025
			c-0.141,1.161-0.199,2.487-0.48,3.905c-0.132,0.709-0.228,1.458-0.404,2.216c-0.182,0.759-0.37,1.543-0.563,2.35
			c-0.234,0.796-0.507,1.605-0.77,2.438c-0.258,0.836-0.672,1.635-1.013,2.477c-0.778,1.639-1.683,3.31-2.812,4.851
			c-1.104,1.538-2.251,3.06-3.265,4.652c-1.026,1.576-1.959,3.233-2.402,4.979l-0.159,0.652l-0.072,0.656
			c-0.082,0.438-0.002,0.866,0.001,1.296c0.079,0.416,0.15,0.84,0.301,1.23l0.256,0.575c0.042,0.085,0.084,0.216,0.125,0.263
			l0.184,0.283c0.908,1.346,2.606,1.909,4.163,2.151c1.589,0.231,3.154,0.273,4.584,0.363c1.437,0.096,2.739,0.102,3.903,0.139
			c1.16-0.013,2.174-0.057,3.008-0.089c1.666-0.17,2.617-0.268,2.617-0.268s-0.945,0.168-2.598,0.462
			c-0.834,0.081-1.85,0.186-3.02,0.267c-1.168,0.035-2.499,0.107-3.93,0.051c-1.436-0.039-2.989-0.021-4.665-0.203
			c-0.835-0.103-1.704-0.276-2.554-0.633c-0.848-0.349-1.665-0.933-2.233-1.762l-0.187-0.281c-0.097-0.134-0.115-0.226-0.176-0.342
			l-0.305-0.666c-0.179-0.452-0.274-0.946-0.367-1.429c-0.017-0.491-0.103-0.994-0.021-1.483l0.074-0.74l0.165-0.72
			c0.469-1.923,1.43-3.662,2.468-5.294c1.062-1.624,2.24-3.148,3.35-4.657c1.116-1.487,2.005-3.086,2.782-4.671
			c0.345-0.814,0.743-1.591,1.032-2.394c0.284-0.804,0.58-1.587,0.838-2.359c0.218-0.786,0.43-1.55,0.636-2.29
			c0.201-0.742,0.321-1.477,0.478-2.173c0.161-0.696,0.27-1.371,0.365-2.016c0.105-0.644,0.205-1.254,0.298-1.828
			c0.13-1.156,0.243-2.164,0.337-2.994C511.585,301.247,511.664,300.292,511.664,300.292z"/>
	</g>
	<g>
		<path fill="#C49A6C" d="M480.692,354.885c0,0,0.812,0.452,2.303,1.08c0.734,0.339,1.657,0.682,2.699,1.104
			c1.066,0.366,2.244,0.839,3.565,1.254c0.658,0.214,1.343,0.438,2.052,0.669c0.718,0.201,1.46,0.409,2.224,0.622
			c1.515,0.464,3.166,0.755,4.834,1.195c0.848,0.164,1.709,0.33,2.582,0.498c0.873,0.166,1.753,0.35,2.655,0.449
			c1.796,0.238,3.616,0.517,5.456,0.603c0.917,0.075,1.833,0.15,2.747,0.225c0.917,0.017,1.829,0.034,2.733,0.05
			c1.812,0.086,3.592-0.038,5.314-0.133c1.729-0.045,3.379-0.278,4.951-0.461c0.787-0.094,1.553-0.185,2.293-0.273
			c0.73-0.148,1.436-0.291,2.113-0.428c1.35-0.294,2.609-0.485,3.701-0.757c1.084-0.306,2.027-0.572,2.807-0.791
			c1.564-0.428,2.457-0.672,2.457-0.672s-0.871,0.312-2.398,0.857c-0.768,0.268-1.699,0.593-2.768,0.965
			c-1.078,0.343-2.328,0.613-3.682,0.949c-0.68,0.164-1.387,0.334-2.117,0.511c-0.744,0.117-1.512,0.237-2.303,0.361
			c-1.58,0.245-3.246,0.554-4.994,0.605c-1.744,0.118-3.545,0.265-5.381,0.201c-0.918-0.006-1.842-0.012-2.77-0.018
			c-0.927-0.064-1.856-0.13-2.786-0.195c-1.863-0.11-3.703-0.415-5.518-0.679c-0.911-0.112-1.799-0.308-2.68-0.486
			c-0.88-0.181-1.749-0.36-2.604-0.536c-1.687-0.447-3.334-0.821-4.848-1.343c-0.761-0.244-1.501-0.48-2.217-0.709
			c-0.706-0.259-1.388-0.51-2.042-0.75c-1.317-0.455-2.476-1.007-3.519-1.44c-1.023-0.487-1.924-0.885-2.641-1.271
			C481.457,355.411,480.692,354.885,480.692,354.885z"/>
	</g>
	<path fill="#3C2415" stroke="#3C2415" stroke-miterlimit="10" d="M518.683,159.911c0,0,18.939,4.011,19.496,18.717
		c0,0,8.135-17.381,25.959-13.37c0,0-15.598-8.913-20.053-5.348c0,0-11.141-11.588-21.391-9.359c0,0,10.695,2.674,12.922,8.914
		C535.616,159.465,525.812,156.346,518.683,159.911z"/>
	<g>
		<path fill="#3C2415" d="M499.04,157.682c0,0-2.973,0.243-7.347,1.052c-2.19,0.38-4.714,0.979-7.387,1.704
			c-1.337,0.361-2.703,0.787-4.076,1.26c-1.367,0.489-2.75,1.004-4.089,1.614c-1.359,0.566-2.677,1.222-3.955,1.902
			c-0.631,0.353-1.25,0.717-1.858,1.081c-0.588,0.394-1.19,0.754-1.745,1.161c-1.114,0.807-2.174,1.614-3.11,2.459
			c-0.948,0.834-1.773,1.7-2.498,2.531c-0.351,0.426-0.686,0.835-1.005,1.224c-0.295,0.409-0.575,0.796-0.838,1.161
			c-0.524,0.732-0.888,1.431-1.238,1.978c-0.591,1.158-0.929,1.819-0.929,1.819s0.26-0.695,0.755-1.907
			c0.308-0.574,0.624-1.31,1.097-2.09c0.239-0.39,0.494-0.805,0.762-1.243c0.293-0.421,0.626-0.846,0.961-1.3
			c1.396-1.766,3.25-3.676,5.538-5.337c0.563-0.426,1.173-0.805,1.771-1.218c0.616-0.382,1.245-0.764,1.885-1.136
			c1.295-0.714,2.631-1.408,4.011-2.002c1.376-0.602,2.791-1.105,4.188-1.58c1.402-0.459,2.794-0.87,4.153-1.215
			c1.356-0.362,2.688-0.625,3.95-0.857c1.263-0.231,2.463-0.416,3.572-0.564c2.219-0.3,4.084-0.401,5.385-0.467
			C498.294,157.66,499.04,157.682,499.04,157.682z"/>
	</g>
	<g>
		<path fill="#3C2415" d="M506.203,168.155c0,0-0.764,0.39-2.101,1.073c-1.339,0.676-3.225,1.696-5.489,2.908
			c-2.267,1.208-4.863,2.706-7.63,4.323c-2.767,1.62-5.67,3.429-8.483,5.364c-1.417,0.951-2.811,1.937-4.157,2.938
			c-1.336,1.015-2.634,2.037-3.835,3.087c-0.602,0.524-1.189,1.044-1.746,1.571c-0.569,0.515-1.111,1.035-1.613,1.564
			c-1.031,1.034-1.926,2.088-2.687,3.106c-0.759,1.019-1.386,2.004-1.86,2.922c-0.27,0.445-0.418,0.906-0.597,1.317
			c-0.083,0.208-0.172,0.405-0.24,0.598c-0.053,0.198-0.104,0.387-0.151,0.566c-0.087,0.36-0.199,0.679-0.244,0.964
			c-0.036,0.288-0.066,0.532-0.091,0.731c-0.05,0.399-0.076,0.612-0.076,0.612s0.008-0.214,0.022-0.616
			c0.007-0.202,0.017-0.451,0.027-0.744c0.018-0.293,0.106-0.62,0.173-0.993c0.037-0.186,0.076-0.382,0.116-0.587
			c0.056-0.201,0.133-0.406,0.203-0.624c0.154-0.429,0.277-0.915,0.521-1.384c0.419-0.971,0.994-2.024,1.738-3.09
			c0.376-0.529,0.754-1.095,1.209-1.627c0.436-0.549,0.894-1.11,1.404-1.651c0.984-1.117,2.106-2.215,3.318-3.288
			c1.205-1.082,2.505-2.134,3.843-3.178c1.349-1.03,2.74-2.047,4.161-3.021c2.864-1.916,5.809-3.697,8.612-5.289
			c2.803-1.594,5.496-2.935,7.807-4.072c2.312-1.135,4.287-1.981,5.662-2.584C505.4,168.461,506.203,168.155,506.203,168.155z"/>
	</g>
	<g>
		<path fill="#3C2415" d="M516.009,173.28c0,0-0.467,0.172-1.281,0.472c-0.818,0.289-1.969,0.751-3.354,1.279
			c-1.386,0.526-2.979,1.202-4.677,1.93c-1.695,0.736-3.489,1.55-5.235,2.452c-1.755,0.883-3.459,1.858-4.996,2.859
			c-0.759,0.514-1.488,1.017-2.151,1.531c-0.659,0.519-1.258,1.039-1.778,1.554c-0.517,0.517-0.961,1.018-1.342,1.478
			c-0.358,0.475-0.662,0.899-0.865,1.279c-0.233,0.364-0.358,0.679-0.462,0.887c-0.1,0.21-0.153,0.323-0.153,0.323
			s0.036-0.119,0.103-0.342c0.075-0.219,0.141-0.564,0.339-0.956c0.163-0.41,0.421-0.875,0.734-1.405
			c0.332-0.515,0.731-1.086,1.236-1.649c0.499-0.568,1.079-1.146,1.72-1.728c0.645-0.576,1.353-1.153,2.121-1.697
			c1.529-1.1,3.266-2.108,5.042-3.024c1.786-0.898,3.61-1.709,5.356-2.374c1.741-0.677,3.404-1.201,4.827-1.646
			c1.423-0.445,2.638-0.723,3.48-0.935C515.519,173.367,516.009,173.28,516.009,173.28z"/>
	</g>
	<g>
		<path fill="#3C2415" d="M438.465,210.27c0,0-0.275,0.632-0.757,1.739c-0.492,1.101-1.118,2.706-1.894,4.617
			c-0.366,0.965-0.794,1.997-1.184,3.112c-0.41,1.108-0.819,2.284-1.235,3.502c-0.44,1.21-0.813,2.487-1.232,3.771
			c-0.422,1.283-0.762,2.612-1.15,3.927c-0.344,1.326-0.691,2.653-0.999,3.966c-0.253,1.323-0.591,2.611-0.795,3.878
			c-0.181,1.27-0.456,2.486-0.58,3.656c-0.121,1.169-0.277,2.275-0.347,3.3c-0.035,1.026-0.088,1.968-0.136,2.805
			c-0.061,0.837,0.023,1.564,0.022,2.167c0.023,1.207,0.037,1.897,0.037,1.897s-0.084-0.685-0.231-1.884
			c-0.048-0.602-0.192-1.332-0.2-2.174c-0.024-0.843-0.049-1.796-0.054-2.836c0.019-1.04,0.121-2.161,0.185-3.353
			c0.067-1.191,0.273-2.432,0.437-3.723c0.181-1.288,0.464-2.602,0.721-3.943c0.3-1.331,0.639-2.675,0.977-4.019
			c0.403-1.325,0.759-2.666,1.195-3.957c0.427-1.294,0.857-2.564,1.325-3.775c0.438-1.221,0.922-2.378,1.386-3.472
			c0.447-1.101,0.929-2.117,1.344-3.066C437.04,212.64,438.465,210.27,438.465,210.27z"/>
	</g>
	<g>
		<path fill="#3C2415" d="M527.438,184.979c0,0-0.291,0.845-0.842,2.307c-0.562,1.457-1.342,3.551-2.375,6.022
			c-1.037,2.469-2.238,5.356-3.648,8.396c-1.408,3.04-2.959,6.26-4.586,9.444c-1.666,3.165-3.418,6.286-5.17,9.15
			c-0.869,1.436-1.763,2.792-2.648,4.052c-0.879,1.264-1.741,2.44-2.587,3.486c-0.414,0.53-0.822,1.029-1.236,1.483
			c-0.4,0.465-0.796,0.892-1.187,1.276c-0.752,0.793-1.477,1.42-2.081,1.918c-0.612,0.493-1.12,0.841-1.49,1.042
			c-0.358,0.217-0.549,0.332-0.549,0.332s0.181-0.131,0.52-0.377c0.167-0.126,0.382-0.267,0.615-0.458
			c0.227-0.2,0.487-0.43,0.778-0.687c0.566-0.53,1.24-1.192,1.934-2.023c0.36-0.402,0.724-0.848,1.091-1.333
			c0.38-0.472,0.772-0.975,1.159-1.518c0.796-1.065,1.605-2.263,2.427-3.549c0.829-1.282,1.652-2.668,2.512-4.095
			c1.703-2.866,3.405-5.994,5.026-9.163c1.66-3.149,3.248-6.34,4.689-9.353c1.441-3.014,2.807-5.819,3.918-8.252
			C525.946,188.22,527.438,184.979,527.438,184.979z"/>
	</g>
	<g>
		<path fill="#3C2415" d="M554.778,178.628c0,0,0.404,0.311,1.061,0.914c0.646,0.611,1.578,1.485,2.582,2.643
			c1.002,1.156,2.135,2.547,3.191,4.155c0.523,0.806,1.051,1.65,1.521,2.547c0.477,0.893,0.92,1.823,1.312,2.776
			c0.391,0.956,0.715,1.938,0.988,2.918c0.262,0.984,0.457,1.97,0.568,2.935c0.061,0.481,0.117,0.956,0.119,1.425
			c0.027,0.467,0.023,0.923-0.002,1.368c-0.004,0.445-0.037,0.875-0.092,1.291c-0.041,0.416-0.088,0.815-0.172,1.194
			c-0.113,0.766-0.332,1.443-0.51,2.041c-0.207,0.59-0.412,1.095-0.578,1.508c-0.4,0.796-0.631,1.251-0.631,1.251
			s0.164-0.48,0.449-1.32c0.117-0.426,0.264-0.942,0.4-1.538c0.105-0.604,0.242-1.277,0.312-2.023
			c0.057-0.37,0.074-0.759,0.086-1.162c0.025-0.402,0.031-0.817,0.006-1.245c-0.006-0.427-0.031-0.865-0.088-1.31
			c-0.039-0.446-0.094-0.9-0.174-1.359c-0.129-0.921-0.375-1.854-0.625-2.798c-0.273-0.939-0.6-1.881-0.982-2.8
			c-0.371-0.925-0.789-1.832-1.244-2.705c-0.453-0.874-0.92-1.725-1.408-2.527c-0.98-1.604-1.961-3.071-2.885-4.27
			C556.169,180.118,554.778,178.628,554.778,178.628z"/>
	</g>
	<g>
		<path fill="#3C2415" d="M564.138,173.28c0,0,0.527,0.411,1.395,1.191c0.857,0.791,2.092,1.92,3.455,3.391
			c1.357,1.473,2.912,3.228,4.426,5.233c0.744,1.011,1.52,2.055,2.23,3.167c0.73,1.1,1.418,2.254,2.082,3.421
			c0.646,1.177,1.25,2.378,1.795,3.584c0.545,1.207,1.02,2.422,1.422,3.618c0.414,1.191,0.736,2.37,0.979,3.5
			c0.264,1.125,0.432,2.208,0.557,3.207c0.049,0.501,0.115,0.979,0.143,1.438c0.014,0.458,0.027,0.894,0.039,1.302
			c0.02,0.816-0.037,1.528-0.047,2.112c-0.115,1.166-0.201,1.825-0.201,1.825s0.002-0.665,0.008-1.829
			c-0.041-0.581-0.045-1.286-0.131-2.087c-0.084-0.803-0.197-1.703-0.367-2.678c-0.174-0.974-0.393-2.024-0.707-3.112
			c-0.139-0.549-0.318-1.103-0.508-1.666c-0.178-0.566-0.379-1.139-0.594-1.717c-0.416-1.162-0.938-2.329-1.469-3.51
			c-0.545-1.177-1.148-2.35-1.793-3.501c-1.273-2.31-2.719-4.527-4.146-6.555c-1.443-2.017-2.854-3.859-4.137-5.381
			c-1.285-1.519-2.371-2.777-3.17-3.624C564.606,173.755,564.138,173.28,564.138,173.28z"/>
	</g>
	<g>
		<path fill="#3C2415" d="M570.823,157.682c0,0,0.469,0.236,1.252,0.715c0.773,0.488,1.889,1.187,3.135,2.151
			c0.625,0.479,1.289,1.017,1.977,1.605c0.682,0.593,1.4,1.224,2.09,1.935c1.404,1.392,2.771,3.02,3.961,4.778
			c0.596,0.878,1.117,1.807,1.605,2.734c0.467,0.938,0.863,1.895,1.176,2.845c0.316,0.948,0.545,1.893,0.674,2.799
			c0.15,0.903,0.203,1.771,0.205,2.566c0.021,0.798-0.068,1.523-0.154,2.162c-0.098,0.636-0.232,1.182-0.324,1.631
			c-0.279,0.875-0.438,1.375-0.438,1.375s0.09-0.514,0.246-1.414c0.043-0.453,0.117-1,0.145-1.628
			c0.012-0.631,0.023-1.337-0.037-2.106c-0.053-0.767-0.158-1.596-0.359-2.451c-0.182-0.86-0.467-1.744-0.789-2.644
			c-0.322-0.902-0.756-1.795-1.203-2.695c-0.479-0.887-0.992-1.775-1.576-2.619c-0.557-0.862-1.186-1.679-1.814-2.472
			c-0.645-0.782-1.285-1.549-1.951-2.254c-1.318-1.417-2.611-2.695-3.789-3.715C572.524,158.908,570.823,157.682,570.823,157.682z"
			/>
	</g>
	<g>
		<path fill="#C49A6C" d="M421.196,296.513c0,0,0.089,1.096,0.223,2.741c0.061,0.816,0.131,1.769,0.207,2.79
			c0.084,1.018,0.167,2.101,0.289,3.177c0.066,0.536,0.104,1.079,0.19,1.603c0.09,0.522,0.126,1.049,0.235,1.54
			c0.094,0.496,0.166,0.98,0.285,1.424c0.101,0.452,0.203,0.875,0.336,1.253c0.115,0.387,0.228,0.738,0.371,1.031
			c0.135,0.297,0.226,0.58,0.375,0.761c0.258,0.393,0.405,0.638,0.405,0.638s-0.205-0.176-0.56-0.521
			c-0.196-0.162-0.342-0.419-0.545-0.697c-0.097-0.142-0.21-0.291-0.311-0.456c-0.085-0.172-0.174-0.353-0.268-0.542
			c-0.201-0.376-0.372-0.8-0.52-1.258c-0.174-0.453-0.308-0.941-0.43-1.451c-0.266-1.015-0.422-2.118-0.558-3.22
			c-0.104-1.104-0.172-2.209-0.172-3.246c-0.004-1.036,0.03-2.002,0.099-2.828c0.054-0.826,0.164-1.511,0.221-1.989
			C421.137,296.784,421.196,296.513,421.196,296.513z"/>
	</g>
	<g>
		<path fill="#C49A6C" d="M598.345,302.52c0,0,0.172,0.269,0.414,0.773c0.24,0.503,0.564,1.235,0.869,2.15
			c0.133,0.461,0.299,0.959,0.408,1.502c0.113,0.542,0.246,1.114,0.293,1.721c0.086,0.602,0.107,1.233,0.105,1.875
			c0.006,0.642-0.088,1.295-0.154,1.946l-0.223,0.962c-0.062,0.323-0.154,0.636-0.285,0.937c-0.221,0.614-0.467,1.204-0.814,1.722
			c-0.16,0.264-0.318,0.523-0.473,0.778c-0.197,0.223-0.389,0.441-0.576,0.653c-0.188,0.21-0.371,0.414-0.547,0.611
			c-0.193,0.178-0.406,0.324-0.596,0.476c-0.391,0.293-0.73,0.584-1.074,0.774c-0.35,0.177-0.654,0.331-0.906,0.458
			c-0.5,0.249-0.789,0.375-0.789,0.375s0.25-0.207,0.689-0.542c0.219-0.165,0.484-0.365,0.789-0.594
			c0.293-0.241,0.566-0.58,0.902-0.895c0.158-0.167,0.34-0.325,0.5-0.514c0.145-0.2,0.295-0.407,0.449-0.62
			c0.154-0.21,0.312-0.426,0.475-0.646c0.127-0.243,0.256-0.491,0.385-0.744c0.123-0.256,0.291-0.493,0.379-0.772
			c0.092-0.277,0.189-0.556,0.293-0.833c0.115-0.274,0.195-0.563,0.246-0.863l0.189-0.887c0.07-0.603,0.172-1.207,0.178-1.809
			c0.004-0.603,0.039-1.197-0.018-1.775c-0.045-1.157-0.23-2.232-0.381-3.158c-0.105-0.456-0.164-0.887-0.258-1.258
			c-0.084-0.375-0.162-0.701-0.238-0.966C598.429,302.825,598.345,302.52,598.345,302.52z"/>
	</g>
	<path fill="none" stroke="#000000" stroke-miterlimit="10" d="M460.639,377.909"/>
	<g>
		<path fill="#46A061" d="M584.587,286.917c-0.105-1.08,0.268-2.145-0.561-2.991c-0.82-0.838-2.006-1.118-3.275-1.12
			c-3.232-1.436-7.07-1.828-10.461-2.498c-1.977-0.394-3.977-0.713-5.99-0.857c-2.258-0.163-4.791-0.146-6.992-0.648
			c-0.232-0.053-0.439-0.034-0.623,0.027c-0.26-0.052-0.539-0.022-0.777,0.087c-0.023-0.007-0.045-0.015-0.072-0.02
			c-2.76-0.486-5.795-0.195-8.6-0.24c-3.396-0.058-6.773,0.143-10.146,0.535c-3.203,0.37-6.395,0.859-9.588,1.305
			c-1.381,0.193-2.752,0.412-4.094,0.792c-0.447,0.07-0.895,0.143-1.344,0.227c-1.496,0.278-2.779,1.29-4.037,2.096
			c-0.125,0.08-0.227,0.173-0.307,0.274c-2.326-0.474-5.436,0.224-7.216,0.257c-2.73,0.051-5.152-1.08-7.571-2.251
			c-1.124-1.013-2.42-1.372-3.807-1.693c-0.079-0.028-0.159-0.06-0.239-0.086c-1.935-0.668-3.977-0.895-5.966-1.34
			c-2.297-0.516-4.561-1.171-6.874-1.627c-0.462-0.094-0.837,0.075-1.087,0.352c-2.167-0.386-4.346-0.685-6.513-0.842
			c-0.102-0.036-0.212-0.065-0.335-0.071c-0.333-0.021-0.668-0.03-1.001-0.042c-0.175-0.15-0.41-0.247-0.707-0.247
			c-6.693,0.01-13.624-0.786-20.291,0.137c-3.308,0.46-6.628,0.962-9.964,1.18c-0.738,0.05-1.462,0.208-2.038,0.501
			c-0.179-0.093-0.334-0.157-0.419-0.157c-0.283,0-0.642,0.095-0.887,0.237c-0.882,0.514-1.818,0.532-2.811,0.658
			c-0.886,0.108-1.622,0.439-2.325,0.888c-0.504-0.165-1.123-0.025-1.361,0.488c-0.588,1.26-0.358,2.638-0.501,3.985
			c-0.058,0.551-0.11,1.051-0.073,1.489c-0.238,0.432-0.178,0.994,0.183,1.355c0.303,0.307,0.746,0.394,1.136,0.278
			c0.02,0.007,0.038,0.014,0.059,0.022c0.208,0.073,0.392,0.162,0.563,0.255c0.18,0.251,0.387,0.417,0.667,0.629
			c0.338,0.259,0.5,0.533,0.682,0.855c0.421,0.952,0.508,2.118,0.772,3.243c0.592,2.523,0.703,5.121,1.279,7.635
			c0.032,0.134,0.079,0.251,0.133,0.352c-0.138,1.118,0.153,2.234,0.527,3.38c0.26,0.795,0.492,1.593,0.74,2.392
			c0.21,0.68,0.655,1.237,1.035,1.822c-0.011,0.075-0.017,0.155-0.009,0.238c0.028,0.344,0.103,0.646,0.227,0.898
			c-0.047,0.237-0.01,0.499,0.164,0.767c0.723,1.111,1.625,1.687,2.807,2.172c0.821,0.642,1.768,1.146,2.853,1.528
			c0.251,0.088,0.494,0.066,0.709-0.023c0.703,0.271,1.421,0.5,2.171,0.635c4.475,0.801,8.832,1.464,13.386,1.714
			c4.71,0.253,9.438,0.455,14.155,0.382c3.692-0.054,8.267,0.196,11.656-1.493c0.217-0.11,0.364-0.256,0.457-0.421
			c1.34-0.71,2.603-1.573,3.609-2.685c0.905-1,1.54-2.241,2.304-3.347c0.888-1.288,1.729-2.561,2.436-3.96
			c0.749-1.485,1.402-2.982,1.96-4.502c0.131-0.088,0.252-0.211,0.357-0.381c0.794-1.296,1.38-2.673,1.849-4.101
			c0.283-0.585,0.578-1.165,0.9-1.731c0.568-1.003,0.704-2.21,1.505-3.084c0.738-0.803,2.368-1.081,3.374-1.35
			c2.529-0.681,5.074-0.317,6.384,2.064c0.484,0.882,0.789,1.609,0.996,2.587c0.119,0.549,0.326,0.951,0.709,1.259
			c0.033,0.035,0.057,0.072,0.09,0.107c-0.035,0.146-0.043,0.305-0.014,0.469c0.172,0.944,0.727,1.732,0.926,2.658
			c0.191,0.894,0.236,1.742,0.801,2.498c0.096,0.129,0.205,0.223,0.326,0.3c0.334,1.148,0.799,2.252,1.293,3.347
			c1.314,2.926,2.697,5.81,4.871,8.191c2.172,2.379,4.619,3.197,7.719,3.706c3.566,0.584,7.062,1.126,10.678,1.319
			c6.912,0.373,14.115,0.826,20.998-0.128c5.645-0.78,9.975-3.777,11.357-9.375c0.057-0.197,0.098-0.39,0.137-0.582
			c0.373-0.235,0.678-0.607,0.783-1.009c0.389-1.474,0.418-3.091,0.697-4.597c0.393-2.12,0.916-4.212,1.326-6.325
			c0.457-2.345,1.494-3.248,3.434-4.445c0.477-0.292,0.621-0.823,0.5-1.278C584.685,288.965,584.698,288.033,584.587,286.917z
			 M498.746,302.588c-0.99,2.233-2.501,4.121-3.785,6.183c-1.009,1.622-2.476,2.761-4.121,3.635
			c-0.216-0.032-0.451,0.003-0.691,0.126c-1.286,0.66-2.869,0.433-4.232,0.881c-0.193,0.062-0.346,0.162-0.465,0.28
			c-1.827,0.1-3.649,0.218-5.479,0.26c-4.226,0.097-8.456-0.125-12.677-0.313c-3.906-0.176-7.905-0.338-11.73-1.208
			c-1.763-0.398-3.537-0.563-5.184-1.353c-0.025-0.013-0.051-0.024-0.078-0.034c-2.107-0.852-2.73-1.583-3.55-2.706
			c-1.708-2.338-2-5.393-2.757-8.131c-0.063-0.331-0.142-0.656-0.251-0.982c-0.005-0.015-0.012-0.026-0.017-0.039
			c0.338-1.232,0.069-2.717-0.155-4.089c0.024-0.108,0.038-0.226,0.021-0.359c-0.035-0.31-0.072-0.597-0.119-0.884
			c0.14-0.226,0.202-0.51,0.127-0.842c-0.41-1.771,0.004-4.098,0.283-5.889c0.06-0.367,0.137-1.043,0.287-1.752
			c0.615-0.984,1.12-2.02,1.98-2.82c0.055-0.051,0.106-0.106,0.147-0.16c0.275-0.053,1.718-1.126,1.941-1.262
			c2.775-1.658,4.784-1.33,7.984-1.578c3.56-0.278,7.146-0.41,10.716-0.538c2.845-0.099,5.75-0.269,8.622-0.241
			c0.083,0.019,0.174,0.033,0.271,0.035c5.023,0.071,9.921,1.304,14.83,2.242c4.071,0.779,11.773,1.716,11.719,7.168
			C502.333,293.392,500.828,297.888,498.746,302.588z M577.101,297.081c0.035,0.159,0.102,0.294,0.193,0.405
			c-0.23,1.622-0.59,3.229-0.953,4.82c-0.232,1.013-0.314,2.039-0.619,3.036c-0.131,0.443-0.236,0.881-0.174,1.326
			c-0.029,0.061-0.049,0.123-0.061,0.191c-0.002,0.022-0.01,0.043-0.014,0.063c-0.643,0.755-1.238,1.481-1.338,2.495
			c-0.113,0.094-0.215,0.221-0.289,0.394c-0.039,0.092-0.074,0.182-0.113,0.271l0,0c0,0.002-0.004,0.005-0.004,0.006
			c-0.059,0.141-0.113,0.282-0.168,0.424c-0.525,0.982-2.033,2.65-2.852,3.149c-0.811,0.021-1.445,0.336-2.115,0.658
			c-1.219-0.035-2.311,0.628-3.557,0.716c-1.93,0.142-3.963,0.198-5.863,0.583c-0.145-0.07-0.314-0.113-0.514-0.113
			c-0.078,0-0.154,0.008-0.225,0.021c-0.193,0.027-0.373,0.107-0.529,0.233c-4.73,0.067-9.486-0.148-14.18-0.441
			c-3.311-0.205-6.535-0.793-9.797-1.348c-3.236-0.552-5.367-2.302-7.186-4.981c-1.666-2.454-3.109-5.639-3.955-8.467
			c-0.412-1.383-0.482-2.837-0.895-4.218c-0.107-0.367-0.268-0.713-0.463-1.045c-0.012-0.261-0.072-0.523-0.176-0.779
			c-0.361-0.884-0.34-1.902-0.561-2.828c-0.006-0.819-0.012-1.641,0.062-2.454c0.002-0.025,0.004-0.046,0.006-0.068
			c0.107-0.118,0.199-0.262,0.26-0.443c0.088-2.719,1.117-2.957,2.184-4.107c0.51-0.215,1.092-0.312,1.588-0.558
			c0.514-0.254,1.029-0.591,1.57-0.845c0.15,0.067,0.324,0.104,0.531,0.087c2.555-0.195,5.045-0.886,7.607-1.13
			c2.779-0.264,5.521-0.653,8.314-0.78c2.742-0.124,5.449-0.037,8.186,0.119c2.713,0.153,5.42-0.065,8.133,0.18
			c0.141,0.012,0.266-0.001,0.379-0.032c0.061,0.014,0.121,0.028,0.191,0.032c0.213,0.014,0.426,0.027,0.641,0.037
			c0.09,0.066,0.182,0.122,0.287,0.16c2.146,0.782,4.676,0.765,6.92,1.136c1.191,0.197,2.389,0.342,3.557,0.573
			c1.182,0.366,2.301,0.918,3.293,1.694c0.123,0.1,0.258,0.162,0.387,0.203c0.127,0.218,0.312,0.396,0.549,0.491
			c0.047,0.15,0.127,0.302,0.25,0.444c0.182,0.213,0.346,0.409,0.486,0.604c0.148,0.221,0.281,0.453,0.4,0.703
			c0.102,0.274,0.154,0.581,0.137,0.955c-0.02,0.421,0.154,0.825,0.381,1.166c0.037,0.06,0.09,0.126,0.141,0.192
			c0.029,0.223,0.053,0.442,0.062,0.65c0.088,1.588,0.281,3.183,0.09,4.754C577.116,295.938,576.946,296.429,577.101,297.081z"/>
		<path fill="none" stroke="#46A061" stroke-width="2" stroke-miterlimit="10" d="M435.916,280.926c0,0-0.346,5.541-0.348,5.563
			c-0.059,0.933,1.036,0.924,1.653,1.223c0.861,0.417,1.544,1.193,1.855,2.097c0.554,1.61,0.924,3.243,1.189,4.93
			c0.455,2.896,0.934,5.761,1.574,8.625c0.143,0.636,0.282,1.273,0.461,1.901c0,0,1.075,3.458,1.613,4.225
			c0,0,0.978,2.448,5.12,3.774c0.771,0.247,1.552,0.468,2.332,0.68c2.493,0.673,5.046,1.102,7.604,1.42
			c3.83,0.479,7.605,0.705,11.457,0.774c4.068,0.079,8.142,0.09,12.208-0.085c2.047-0.088,4.064-0.3,6.098-0.515
			c0,0,5.656-0.603,9.229-7.271c0.689-1.08,1.34-2.185,1.977-3.296c1.298-2.255,2.518-4.552,3.558-6.938
			c0.93-2.125,1.692-4.334,2.778-6.39c0.579-1.095,1.583-1.941,2.811-2.209c1.055-0.227,2.232-0.416,3.306-0.336
			c1.182,0.086,2.514,0.151,3.41,1.036c0.838,0.831,1.314,2.031,1.693,3.12c0,0,2.814,7.999,3.445,9.295
			c0,0,2.783,7.046,4.711,9.227c1.801,2.041,3.891,3.565,6.6,4.202c3.314,0.776,6.881,0.946,10.271,1.241
			c3.949,0.347,7.908,0.63,11.877,0.742c2.252,0.062,4.496-0.02,6.746-0.02c0,0,8.217-0.095,13.021-3.792
			c0,0,2.311-1.484,3.889-7.272c0.285-1.139,0.549-2.284,0.838-3.422c0.506-1.996,1.07-4.031,1.414-6.061
			c0.082-0.486,0.152-0.972,0.277-1.448c0.189-0.727,0.398-1.649,0.777-2.296c0.33-0.562,0.768-1.085,1.285-1.479
			c0.482-0.367,1.02-0.53,1.529-0.779c0.854-0.421,0.566-2.176,0.553-2.953c-0.018-1.085,0.006-2.164,0.025-3.249
			c0.014-0.782-0.115-1.474-0.979-1.702c-1.639-0.434-3.264-0.935-4.908-1.36c-3.834-0.993-7.689-1.893-11.611-2.459
			c-2.467-0.356-4.98-0.688-7.473-0.828c-1.92-0.118-3.846-0.192-5.768-0.265c-3.385-0.126-6.779-0.242-10.166-0.172
			c-3.777,0.073-7.566,0.598-11.316,1.042c-0.816,0.096-1.639,0.195-2.459,0.313c-3.066,0.457-6.398,0.901-9.27,2.118
			c-1.066,0.453-1.965,1.159-2.955,1.68c-1.199,0.632-2.809,0.396-4.104,0.355c-1.539-0.051-3.079-0.099-4.617-0.08
			c-0.873,0.011-1.926-0.032-2.742-0.374c-1.339-0.56-2.542-1.524-3.858-2.197c-1.493-0.759-3.187-1.11-4.791-1.567
			c-0.717-0.203-1.441-0.406-2.168-0.579c-1.766-0.425-3.541-0.801-5.321-1.158c0,0-14.824-3.034-31.418-1.672
			c-0.508,0.038-1.02,0.084-1.528,0.129c-1.319,0.116-2.638,0.252-3.955,0.401c-1.798,0.204-3.591,0.434-5.382,0.682
			c-1.908,0.262-3.812,0.551-5.7,0.931c-1.777,0.356-3.529,0.814-5.269,1.319C436.314,279.942,435.964,280.143,435.916,280.926z"/>
		<path fill="#FFFFFF" stroke="#46A061" stroke-miterlimit="10" d="M531.022,282.446c0,0-8.248,0.758-9.607,4.14
			c0,0-0.98,2.782-0.41,6.005c0,0,1.201,6.828,2.654,10.146c0,0,3.002,9.421,8.375,10.84c0,0,5.752,1.741,17.193,2.118
			c0,0,17.039,0.35,21.525-2.274c0,0,3.854-2.307,5.09-8.471c0,0,1.264-6.353,1.486-9.765c0,0,0.566-6.165-2.088-9.135
			c0,0-1.484-2.594-10.461-3.604c0,0-12.234-2.119-26.486-0.854C538.294,281.592,532.528,282.244,531.022,282.446z"/>
		<path opacity="0.5" fill="#27AAE1" stroke="#EF4136" stroke-miterlimit="10" d="M473.228,278.857
			c-2.004-0.028-4.015-0.023-6.02,0.027c-3.9,0.092-7.782,0.262-11.667,0.635c-3.986,0.385-8.654,0.975-10.777,4.86
			c-0.634,1.164-0.917,2.458-1.026,3.773c0,0-1.09,13.036,2.513,19.579c0,0,0.997,3.935,12.375,5.454c0,0,16.736,1.326,20.814,0.851
			c0,0,12.042-0.188,14.696-3.982c2.258-3.051,4.258-6.45,5.68-9.966c1.331-3.292,2.553-7.121,2.632-10.701
			c0.021-1.002-0.041-2.106-0.362-3.059c-0.802-2.382-4.395-3.491-6.511-4.182c-1.765-0.575-3.554-0.903-5.373-1.25
			C490.2,280.896,479.387,278.827,473.228,278.857z"/>
		<path fill="#FFFFFF" stroke="#EF4136" stroke-miterlimit="10" d="M473.228,278.857c-2.004-0.028-4.015-0.023-6.02,0.027
			c-3.9,0.092-7.782,0.262-11.667,0.635c-3.986,0.385-8.654,0.975-10.777,4.86c-0.634,1.164-0.917,2.458-1.026,3.773
			c0,0-1.09,13.036,2.513,19.579c0,0,0.997,3.935,12.375,5.454c0,0,16.736,1.326,20.814,0.851c0,0,12.042-0.188,14.696-3.982
			c2.258-3.051,4.258-6.45,5.68-9.966c1.331-3.292,2.553-7.121,2.632-10.701c0.021-1.002-0.041-2.106-0.362-3.059
			c-0.802-2.382-4.395-3.491-6.511-4.182c-1.765-0.575-3.554-0.903-5.373-1.25C490.2,280.896,479.387,278.827,473.228,278.857z"/>
		<path fill="none" stroke="#46A061" stroke-miterlimit="10" d="M473.228,278.857c-2.004-0.028-4.015-0.023-6.02,0.027
			c-3.9,0.092-7.782,0.262-11.667,0.635c-3.986,0.385-8.654,0.975-10.777,4.86c-0.634,1.164-0.917,2.458-1.026,3.773
			c0,0-1.09,13.036,2.513,19.579c0,0,0.997,3.935,12.375,5.454c0,0,16.736,1.326,20.814,0.851c0,0,12.042-0.188,14.696-3.982
			c2.258-3.051,4.258-6.45,5.68-9.966c1.331-3.292,2.553-7.121,2.632-10.701c0.021-1.002-0.041-2.106-0.362-3.059
			c-0.802-2.382-4.395-3.491-6.511-4.182c-1.765-0.575-3.554-0.903-5.373-1.25C490.2,280.896,479.387,278.827,473.228,278.857z"/>
		<polygon fill="#46A061" points="453.92,314.549 458.661,313.426 459.404,314.169 458.296,315.276 460.604,316.01 463.284,313.335 
			463.284,310.302 461.067,312.522 460.317,311.765 463.284,308.803 463.284,305.642 460.189,308.75 456.326,312.602 
			456.323,311.107 463.284,304.1 460.176,304.1 453.917,310.359 		"/>
		<polygon fill="#46A061" points="464.342,307.699 469.084,302.958 469.828,303.702 464.342,309.186 467.387,309.186 
			473.709,302.866 473.709,299.837 471.492,302.053 470.739,301.297 473.709,298.335 473.709,295.175 470.611,298.282 
			466.748,302.136 466.748,300.638 473.709,293.632 470.602,293.632 464.342,299.892 		"/>
		<polygon fill="#46A061" points="474.779,297.354 479.521,292.614 480.264,293.356 474.779,298.842 477.824,298.842 
			484.146,292.521 484.146,289.491 481.928,291.707 481.176,290.952 484.146,287.989 484.146,284.831 481.05,287.936 
			477.185,291.788 477.185,290.293 484.146,283.288 481.038,283.288 474.779,289.545 		"/>
		<line fill="#46A061" x1="487.611" y1="281.382" x2="487.608" y2="279.889"/>
		<polyline fill="#46A061" points="485.203,279.143 485.203,286.949 489.943,282.208 490.688,282.951 485.203,288.435 
			488.248,288.435 494.568,282.113 494.568,279.084 492.352,281.302 491.6,280.546 		"/>
		<polyline fill="#46A061" points="448.231,309.934 448.975,310.678 447.26,312.395 449.552,313.521 452.856,309.843 
			452.856,306.813 450.638,309.03 449.887,308.276 452.856,305.313 452.856,302.154 449.759,305.26 445.896,309.113 
			445.896,307.618 452.856,300.611 449.75,300.611 443.49,306.87 		"/>
		<polygon fill="#46A061" points="453.917,304.21 458.661,299.47 459.404,300.213 453.917,305.695 456.962,305.695 463.284,299.374 
			463.284,296.345 461.067,298.564 460.317,297.809 463.284,294.847 463.284,291.685 460.189,294.792 456.326,298.645 
			456.323,297.149 463.284,290.142 460.176,290.142 453.917,296.402 		"/>
		<polygon fill="#46A061" points="464.342,293.792 469.084,289.052 469.828,289.794 464.342,295.279 467.387,295.279 
			473.709,288.958 473.709,285.928 471.492,288.143 470.739,287.39 473.709,284.429 473.709,281.27 470.611,284.374 
			466.748,288.227 466.748,286.733 473.709,279.726 470.602,279.726 464.342,285.983 		"/>
		<line fill="#46A061" x1="477.185" y1="277.793" x2="477.185" y2="276.298"/>
		<path fill="#46A061" d="M484.146,271.007"/>
		<polyline fill="#46A061" points="474.779,276.285 474.779,283.359 479.521,278.619 480.264,279.362 474.779,284.848 
			477.824,284.848 484.146,278.526 483.78,277.361 481.928,277.712 481.176,276.958 		"/>
		<polygon fill="#46A061" points="443.492,300.783 448.234,296.043 448.977,296.786 443.492,302.271 446.536,302.271 
			452.858,295.95 452.858,292.921 450.642,295.135 449.887,294.381 452.858,291.42 452.858,288.262 449.762,291.368 
			445.899,295.219 445.897,293.724 452.858,286.719 449.752,286.719 443.492,292.976 		"/>
		<polygon fill="#46A061" points="453.92,290.318 458.664,285.575 459.407,286.318 453.92,291.804 456.966,291.804 463.286,285.483 
			463.286,282.453 461.069,284.67 460.317,283.915 463.286,280.952 463.286,277.792 460.19,280.9 456.327,284.752 456.326,283.257 
			463.286,276.252 460.179,276.252 453.92,282.51 		"/>
		<path fill="#46A061" d="M466.748,274.384"/>
		<path fill="#46A061" d="M473.287,271.007"/>
		<line fill="#46A061" x1="471.492" y1="274.302" x2="470.739" y2="273.548"/>
		<polyline fill="#46A061" points="464.342,276.771 464.342,279.95 468.307,275.985 469.828,275.951 464.342,281.435 
			467.387,281.435 471.875,276.948 		"/>
		<polygon fill="#46A061" points="443.492,286.887 448.234,282.145 448.977,282.89 443.492,288.373 446.536,288.373 
			452.858,282.053 452.858,279.022 450.642,281.238 449.887,280.485 452.858,277.523 451.261,277.928 449.762,277.469 
			445.899,281.319 445.897,279.826 447.775,277.935 444.636,277.935 443.492,279.078 		"/>
		<line fill="#46A061" x1="469.084" y1="316.824" x2="469.828" y2="317.565"/>
		<polyline fill="#46A061" points="473.709,316.01 473.709,313.7 471.492,315.917 470.739,315.161 473.709,312.199 473.709,309.038 
			470.611,312.148 466.748,315.999 466.748,314.506 473.709,307.496 470.602,307.496 464.342,313.758 		"/>
		<polygon fill="#46A061" points="474.779,311.218 479.521,306.477 480.264,307.22 474.779,312.705 477.824,312.705 
			484.146,306.385 484.146,303.353 481.928,305.572 481.176,304.817 484.146,301.854 484.146,298.694 481.05,301.801 
			477.185,305.654 477.185,304.159 484.146,297.154 481.038,297.154 474.779,303.411 		"/>
		<polygon fill="#46A061" points="485.203,300.812 489.943,296.072 490.688,296.814 485.203,302.3 488.248,302.3 494.568,295.978 
			494.568,292.951 492.352,295.165 491.6,294.411 494.568,291.451 494.568,288.29 491.474,291.396 487.611,295.245 487.608,293.752 
			494.568,286.747 491.461,286.747 485.203,293.006 		"/>
		<polyline fill="#46A061" points="495.642,282.482 495.642,290.291 500.382,285.55 501.125,286.292 495.642,291.776 
			498.684,291.776 502.544,287.917 502.544,284.396 502.038,283.888 502.544,283.38 502.529,281.26 501.909,280.872 
			498.047,284.726 498.044,283.231 		"/>
		<polyline fill="#46A061" points="478.978,316.01 484.149,310.805 481.045,310.805 476.134,315.715 		"/>
		<polyline fill="#46A061" points="482.633,316.054 484.149,315.506 484.149,312.347 481.055,315.452 		"/>
		<path fill="#46A061" d="M484.149,317.005"/>
		<polygon fill="#46A061" points="485.222,314.524 489.963,309.784 490.707,310.526 485.222,316.01 488.267,316.01 494.587,309.691 
			494.587,306.661 492.371,308.875 491.619,308.121 494.587,305.16 494.587,302 491.49,305.105 487.627,308.958 487.627,307.464 
			494.587,300.458 491.481,300.458 485.222,306.716 		"/>
		<polygon fill="#46A061" points="502.544,298.216 502.042,297.715 502.544,297.216 502.544,294.071 501.914,294.7 498.051,298.552 
			498.051,297.058 502.544,292.537 502.544,290.052 501.904,290.052 495.646,296.312 495.646,304.118 500.39,299.375 
			501.133,300.119 495.646,305.606 498.69,305.606 500.891,301.415 		"/>
		<polyline fill="#46A061" points="535.196,316.474 541.108,310.546 538.134,310.546 532.142,316.512 		"/>
		<polyline fill="#46A061" points="539.626,317.142 541.108,315.029 541.108,312.017 538.144,314.978 		"/>
		<path fill="#46A061" d="M541.108,316.458"/>
		<polygon fill="#46A061" points="542.122,313.976 546.665,309.454 547.374,310.164 542.122,315.394 545.036,315.394 
			551.087,309.367 551.087,306.479 548.966,308.592 548.247,307.874 551.087,305.049 551.087,302.036 548.124,304.999 
			544.427,308.67 544.427,307.247 551.087,300.567 548.114,300.567 542.122,306.535 		"/>
		<polygon fill="#46A061" points="552.114,304.114 556.657,299.594 557.366,300.303 552.114,305.531 555.028,305.531 
			561.079,299.506 561.079,296.616 558.96,298.73 558.239,298.013 561.079,295.187 561.079,292.173 558.114,295.135 
			554.417,298.808 554.417,297.384 561.079,290.704 558.106,290.704 552.114,296.672 		"/>
		<polygon fill="#46A061" points="562.097,294.194 566.636,289.673 567.349,290.383 562.097,295.611 565.013,295.611 
			571.06,289.585 571.06,286.697 568.938,288.809 568.22,288.091 571.06,285.267 571.06,282.253 568.099,285.216 564.397,288.889 
			564.397,287.463 571.06,280.784 568.087,280.784 562.097,286.75 		"/>
		<polyline fill="#46A061" points="576.37,281.435 572.087,285.6 575.003,285.6 578.696,281.921 		"/>
		<polyline fill="#46A061" points="526.376,311.982 531.124,307.22 528.151,307.22 525.302,310.054 		"/>
		<polyline fill="#46A061" points="531.124,316.021 531.124,313.133 529.001,315.244 528.282,314.528 531.124,311.703 
			531.124,308.689 528.159,311.649 		"/>
		<polygon fill="#46A061" points="532.142,310.65 536.681,306.128 537.394,306.838 532.142,312.068 535.06,312.068 541.108,306.042 
			541.108,303.154 538.989,305.265 538.267,304.545 541.108,301.721 541.108,298.71 538.144,301.672 534.448,305.345 
			534.444,303.919 541.108,297.239 538.134,297.239 532.142,303.207 		"/>
		<polygon fill="#46A061" points="542.122,300.718 546.665,296.197 547.374,296.905 542.122,302.136 545.036,302.136 
			551.087,296.112 551.087,293.223 548.966,295.333 548.247,294.614 551.087,291.792 551.087,288.779 548.124,291.74 
			544.427,295.412 544.427,293.989 551.087,287.307 548.114,287.307 542.122,293.274 		"/>
		<polygon fill="#46A061" points="561.079,278.993 560.919,278.993 558.114,281.795 554.417,285.468 554.417,284.042 
			559.452,278.993 556.468,278.993 552.114,283.328 552.114,290.772 556.657,286.253 557.366,286.962 552.114,292.191 
			555.028,292.191 561.079,286.164 561.079,283.274 558.96,285.388 558.239,284.669 561.079,281.846 		"/>
		<polygon fill="#46A061" points="562.097,278.993 562.097,280.923 564.032,278.993 		"/>
		<polygon fill="#46A061" points="523.116,307.073 526.7,302.864 527.413,303.574 523.479,308.236 525.075,308.803 531.126,302.774 
			531.126,299.889 529.005,302 528.286,301.28 531.126,298.458 531.126,295.445 528.161,298.406 524.464,302.078 524.464,300.653 
			531.126,293.972 528.153,293.972 522.159,299.94 		"/>
		<polygon fill="#46A061" points="532.146,297.404 536.687,292.884 537.396,293.594 532.146,298.824 535.06,298.824 541.11,292.796 
			541.11,289.911 538.989,292.021 538.269,291.302 541.11,288.478 541.11,285.468 538.146,288.428 534.45,292.1 534.448,290.675 
			541.11,283.995 538.138,283.995 532.146,289.962 		"/>
		<polygon fill="#46A061" points="548.247,281.417 550.687,278.993 547.671,278.993 544.427,282.215 544.427,280.79 
			546.218,278.993 543.212,278.993 542.122,280.078 542.122,287.521 546.665,283 547.374,283.709 542.122,288.939 545.036,288.939 
			551.087,282.912 551.087,280.025 548.966,282.137 		"/>
		<polygon fill="#46A061" points="522.159,294.133 526.7,289.614 527.413,290.323 522.159,295.553 525.075,295.553 531.126,289.526 
			531.126,286.639 529.005,288.751 528.286,288.031 531.126,285.208 531.126,282.193 528.161,285.155 524.464,288.829 
			524.464,287.404 531.126,280.724 528.153,280.724 522.159,286.691 		"/>
		<polygon fill="#46A061" points="532.142,278.993 532.142,284.168 536.681,279.648 537.394,280.356 532.142,285.585 
			535.06,285.585 541.108,279.559 541.108,278.993 		"/>
		<polyline fill="#46A061" points="547.755,317.125 551.087,313.785 548.114,313.785 545.063,316.824 		"/>
		<polyline fill="#46A061" points="549.604,317.565 551.087,318.266 551.087,315.256 548.124,318.216 		"/>
		<polygon fill="#46A061" points="552.114,317.332 556.657,312.813 557.366,313.521 553.304,317.565 555.804,317.978 
			561.079,312.725 561.079,309.837 558.96,311.947 558.239,311.228 561.079,308.406 561.079,305.394 558.114,308.355 
			554.417,312.025 554.417,310.602 561.079,303.922 558.106,303.922 552.114,309.89 		"/>
		<polygon fill="#46A061" points="562.097,307.411 566.636,302.893 567.349,303.599 562.097,308.83 565.013,308.83 571.06,302.803 
			571.06,299.914 568.938,302.027 568.22,301.307 571.06,298.482 571.06,295.472 568.099,298.434 564.397,302.107 564.397,300.68 
			571.06,294 568.087,294 562.097,299.969 		"/>
		<polygon fill="#46A061" points="578.696,291.76 578.212,291.277 578.696,290.793 578.696,287.793 578.087,288.401 
			574.392,292.074 574.392,290.649 578.696,286.333 578.696,283.971 578.079,283.971 572.087,289.936 572.087,297.378 
			576.626,292.859 577.339,293.567 572.087,298.798 575.003,298.798 578.696,295.117 		"/>
		<polyline fill="#46A061" points="571.081,315.875 571.081,312.987 568.958,315.099 568.235,314.379 571.081,311.555 
			571.081,308.544 568.116,311.504 564.417,315.176 564.417,313.753 571.081,307.073 568.104,307.073 562.114,313.042 
			562.097,317.565 566.653,315.962 567.362,316.672 		"/>
		<polygon fill="#46A061" points="578.696,304.938 578.218,304.458 578.696,303.981 578.696,300.983 578.095,301.584 
			574.396,305.255 574.396,303.832 578.696,299.52 578.696,297.153 578.087,297.153 572.095,303.118 572.095,310.562 
			576.634,306.042 577.345,306.75 572.095,311.982 575.009,311.982 577.515,308.174 		"/>
		<path fill="none" stroke="#46A061" stroke-miterlimit="10" d="M531.022,282.446c0,0-8.248,0.758-9.607,4.14
			c0,0-0.98,2.782-0.41,6.005c0,0,1.201,6.828,2.654,10.146c0,0,3.002,9.421,8.375,10.84c0,0,5.752,1.741,17.193,2.118
			c0,0,17.039,0.35,21.525-2.274c0,0,3.854-2.307,5.09-8.471c0,0,1.264-6.353,1.486-9.765c0,0,0.566-6.165-2.088-9.135
			c0,0-1.484-2.594-10.461-3.604c0,0-12.234-2.119-26.486-0.854C538.294,281.592,532.528,282.244,531.022,282.446z"/>
	</g>
	<path fill="#603913" stroke="#603913" stroke-miterlimit="10" d="M558.938,140.005c0,0-2.162,0.241-5.486,0.894
		c-4.934,0.976-12.422,2.863-19.168,6.237c0,0-0.781-11.711-13.555-13.401c0,0,1.264,3.183,2.156,12.392
		c0,0-14.836-9.414-30.88-7.63c0,0,15.683,8.504,14.197,14.445c0,0-36.371-13.75-57.169,11.504c0,0-13.525,21.333-29.753,30.627
		c0,0,3.863,8.492,0,20.97c0,0-2.097,17.995-7.745,17.845c0,0,16.974,65.365,22.323,82.301l1.188-30.902l3.863,0.447l-1.486-6.981
		c0,0,41.301-46.943,51.4-49.025c0,0-15.153,21.985-24.364,27.929c0,0,52.293-3.565,84.973-35.95c0,0,6.535,37.733,30.006,44.564
		c0,0-8.318-11.583-8.615-21.092c0,0,10.4,16.636,15.746,21.983c0,0-1.484,38.922,0.002,52.588c0,0,19.156-53.977,27.877-71.882
		l1.238-21.126c0,0,3.213-13.674,5.887-13.082c-2.49-2.681-2.557-3.305-4.957-6.067c-4.473-5.142-7.424-9.383-10.889-14.483
		c-3.57-5.258-4.961-9.366-8.744-14.483c-4.395-5.948-6.854-12.176-12.459-17.011c-1.65-1.422-7.695-4.775-9.73-5.577
		c-4.133-1.628-6.666-5.559-11.035-5.263c-3.736,0.251-7.473,0.435-11.193,0.842c-0.314,0.035-3.012,0.137-3.133,0.568
		c0,0,1.434-5.153,5.346-8.766L558.938,140.005z"/>
</g>
</svg>
