<?xml version="1.0" encoding="utf-8"?>
<!-- Generator: Adobe Illustrator 16.0.0, SVG Export Plug-In . SVG Version: 6.00 Build 0)  -->
<!DOCTYPE svg PUBLIC "-//W3C//DTD SVG 1.1//EN" "http://www.w3.org/Graphics/SVG/1.1/DTD/svg11.dtd">
<svg version="1.1" id="Layer_1" xmlns="http://www.w3.org/2000/svg" xmlns:xlink="http://www.w3.org/1999/xlink" x="0px" y="0px"
	 width="1080px" height="650.061px" viewBox="0 0 1080 650.061" enable-background="new 0 0 1080 650.061" xml:space="preserve">
<rect x="2.512" y="0.971" fill="#E6ECF3" width="1077.488" height="649.089"/>
<g>
	<polygon fill="#46A061" points="456.721,305.809 510.153,252.35 518.529,260.731 456.721,322.578 491.022,322.578 562.248,251.303 
		562.248,217.148 537.281,242.137 528.798,233.621 562.248,200.229 562.248,164.6 527.363,199.629 483.836,243.059 483.825,226.21 
		562.248,147.207 527.249,147.207 456.721,217.781 	"/>
	<path fill="#F3C58D" d="M481.207,369.156l-1.711,29.721c0,0,49.024,41.175,51.904,45.005c0,0,43.015-32.303,50.3-35.733
		l1.407-38.992H481.207z"/>
	<path opacity="0.4" fill="#A97C50" enable-background="new    " d="M529.57,393.069c-9.628,1.946-19.771,2.067-28.847-2.118
		c-8.599-3.97-11.938-11.984-15.373-20.084c-0.918-2.17-4.075-0.298-3.162,1.854c3.928,9.271,6.373,16.118,15.312,21.199
		c9.285,5.282,30.501,7.153,36.798,2.477C536.196,394.988,531.879,392.604,529.57,393.069z"/>
	<path opacity="0.4" fill="#A97C50" enable-background="new    " d="M578.409,370.188c-0.352,6.329-4.351,10.726-8.742,14.867
		c-4.863,4.593-9.637,6.227-16.233,6.227c-2.363,0-2.363,3.672,0,3.672c7.059,0,12.099-1.64,17.581-6.182
		c5.8-4.813,10.63-10.831,11.062-18.583C582.21,367.823,578.546,367.836,578.409,370.188z"/>
	<path fill="#F0D0A7" d="M630.921,292.338c0.002-0.164-0.03-1.017-0.078-1.165c0.967-1.699,0.593-4.428-0.64-5.945
		c0.543-2.585-1.617-5.274-5.041-5.274c-2.397,0-3.807,1.517-4.257,3.307c-2.717-0.304-5.56,0.539-7.698,2.228
		c0.012-3.251-0.024-6.453-0.075-9.547c-0.312-18.602-6.748-33.339-19.457-46.756c-3.145-3.321-6.816-6.789-10.96-9.146
		c0.474-0.959,0.92-1.943,1.3-2.983c3.833-10.514-9.847-15.458-16.853-9.816c-8.399,6.765-16.601,13.663-25.868,19.228
		c-10.357,6.224-22.271,8.921-33.713,12.38c-1.232,0.373-2.463,0.758-3.688,1.167c3.27-3.277,6.567-6.503,9.696-9.793
		c8.959-9.418-5.28-23.709-14.26-14.268c-9.695,10.192-19.738,19.888-28.001,31.334c-2.648,3.665-4.84,7.584-6.744,11.648
		c-0.402-0.026-0.807-0.035-1.206-0.079c-8.867-0.907-12.347,10.236-7.848,16.327c-0.691,0.97-1.202,2.115-1.416,3.465
		c-0.558,3.507-0.622,6.549-0.298,9.857c-0.219,1.026-0.469,2.042-0.618,2.983c-0.073,0.447-0.119,0.89-0.145,1.317
		c-0.362-2.104-0.763-4.201-1.296-6.275c-0.752-2.935-1.858-4.08-4.188-3.249c0.122-1.193,0.379-2.101,0.426-3.328
		c0.269-7.101-12.761-7.076-13.03-0.004c-0.309,8.094-2.048,15.285,2.572,22.585c1.951,3.084,4.948,8.137,8.327,10.926
		c0.487,1.739,2.972,3.808,5.315,3.808c1.759,0,1.895-1.449,2.605-2.592c0.251,2.265-0.049,4.601,0.545,6.834
		c0.515,6.189,0.53,12.05,6.737,15.14c0.155,0.077,0.305,0.113,0.456,0.173c4.739,8.294,10.325,16.1,15.151,24.352
		c4.144,7.083,7.586,14.39,12.625,20.931c10.701,13.874,25.141,15.029,41.594,14.002c8.222-0.514,17.375,0.708,25.443-1.265
		c9.112-2.231,14.578-10.327,19.847-17.633c5.233-7.26,10.099-14.536,15.159-21.896c5.271-7.668,11.546-14.882,15.424-23.416
		c0.897-1.979,1.12-2.524,1.818-4.627c0.216,0.027,0.051-2.06,0.271-2.047c0.622,1.699,2.866,2.839,4.505,1.154
		c0.86-0.881,2.476-1.164,3.138-2.163c1.001-0.685,1.38-1.602,1.966-2.706c0.473,0,0.517-0.771,0.977-1.063
		c0.999-0.639,1.401-1.655,1.797-2.721c0.064-0.177,1.1,0.047,1.162-0.133c1.714-1.482,2.13-3.424,3.615-5.442
		c1.64-2.219,2.828-4.519,3.103-6.978C631.602,301.046,630.828,297.176,630.921,292.338z M455.344,300.174
		c-0.167,0.431-0.281,0.874-0.424,1.312c-0.281-0.703-0.545-1.41-0.793-2.123c-0.093-0.57-0.189-1.141-0.279-1.708
		C454.236,298.582,454.737,299.433,455.344,300.174z"/>
	<path fill="#3C2415" d="M600.19,262.323c-0.444-0.235-0.854-0.506-1.26-0.804c-0.281-0.205-0.61-0.251-0.945-0.231
		c-0.405-0.822-2.014-2.421-3.126-2.56c-2.3-0.286-3.008-0.657-5.153-1.472c-0.733-0.28-0.813-0.408-1.619-0.405
		c0.095-0.566-1.73-1.27-2.469-1.17c-0.553,0.075-1.104,0.118-1.653,0.167c-0.567-0.335-1.128-0.661-1.614-0.786
		c-0.824-0.215-3.977-0.742-4.693-0.168c-3.392,0-4.665,0.445-8.055,0.345c-0.918-0.084-1.839-0.159-2.761-0.219
		c-3.644-0.23-8.256-0.405-11.252,2.009c-0.823,0.249-1.398,0.71-1.778,1.276c-0.723,0.082-1.285,0.616-1.572,1.33
		c-0.176,0.425-0.284,0.866-0.401,1.311c-0.061,0.222-0.127,0.44-0.202,0.664l0,0c0.011-0.042-0.002-0.032-0.028,0.018
		c-0.008,0.003-0.008,0.003-0.016,0.007c-1.506,0.821-2.181,4.533-0.323,4.283c1.094-0.148,3.583-1.391,4.667-1.978
		c0.567,0.171,1.205,0.224,1.907,0.067c7.554-1.672,14.425-0.995,22.059-1.017c1.066-0.004,2.273,0.503,2.858-0.077
		c2.374,1.369,4.737,0.209,7.437,0.291c1.774,0.775,3.466,1.71,5.519,1.964c0.666,0.085,1.205-0.049,1.615-0.32
		c0.329,0.231,0.659,0.445,1.011,0.642C602.082,267.589,602.284,263.425,600.19,262.323z"/>
	<g>
		<path fill="#3C2415" d="M469.856,258.65C469.755,258.731,469.74,258.769,469.856,258.65L469.856,258.65z"/>
		<path fill="#3C2415" d="M516.808,257.81c-1.074-4.908-4.816-4.18-9.009-4.552c-0.063-0.016-0.1-0.055-0.167-0.064
			c-7.04-1.075-14.209-1.548-21.316-1.943c-3.686-0.204-8.773-0.96-12.38,0.608c-0.039-0.014-0.067-0.03-0.104-0.041
			c-1.049-0.285-1.882,0.355-2.253,1.283c-0.274,0.673-1.385,1.278-2.001,1.598c-0.716,0.372-1.684,0.624-2.229,1.261
			c-0.645,0.764-0.748,1.847,0,2.594c0.663,0.665,1.947,0.765,2.595,0c-0.043,0.05-0.061,0.068-0.087,0.098
			c0.038-0.036,0.089-0.073,0.147-0.102c0.26-0.143,0.537-0.266,0.808-0.391c0.273-0.126,0.523-0.283,0.781-0.426
			c0.394,0.397,0.953,0.616,1.666,0.375c5.958-2,14.117-0.128,20.289,0.042c7.346,0.21,16.15,2.75,23.261,3.957
			C518.201,262.344,517.126,259.266,516.808,257.81z"/>
	</g>
	<path opacity="0.4" fill="#A97C50" enable-background="new    " d="M584.063,228.901c-2.093-1.862-4.257-3.639-6.374-5.478
		c0.672-0.906,0.555-2.519-0.852-3.019c0.314,0.113-0.17-0.17-0.019-0.04c-0.093-0.08-0.263-0.244-0.333-0.339
		c-0.218-0.28-0.41-0.583-0.594-0.887c0.011-0.011,0.024-0.014,0.034-0.025c0.265-0.261,0.406-0.629,0.477-1.01
		c0.335-0.396,0.517-0.919,0.337-1.576c-0.135-0.504-0.305-0.993-0.496-1.468c0.844-1.012,1.461-2.079,1.645-3.176
		c0.225-1.328-0.85-2.192-1.873-2.27c-0.519-1.001-1.887-1.587-2.908-0.544c-0.166,0.168-0.321,0.354-0.48,0.528
		c0.066-0.233,0.161-0.453,0.222-0.692c0.575-2.294-2.961-3.268-3.536-0.973c-1.314,5.246-5.973,9.917-11.324,13.918
		c-3.264,1.256-6.637,2.271-9.966,3.144c-1.566,0.41-1.58,2.159-0.71,3.047c-7.336,3.633-14.848,6.512-23.411,4.864
		c-2.309-0.444-3.294,3.091-0.974,3.539c0.089,0.018,0.172,0.024,0.26,0.04c-1.06,0.438-2.081,1.002-3.016,1.823
		c-0.44,0.384-0.585,0.844-0.553,1.298c-4.047,0.366-7.827-0.04-10.747-1.7c-2.061-1.168-3.904,2.003-1.852,3.167
		c9.97,5.659,26.224-0.389,35.31-5.158c3.535-1.854,6.863-4.059,10.121-6.374c1.207-0.623,2.414-1.25,3.63-1.882
		c3.998-2.071,10.337-3.682,14.87-6.656c0.543,0.968,1.137,1.911,1.857,2.813c2.354,2.955,5.854,5.181,8.665,7.686
		C583.23,233.063,585.833,230.478,584.063,228.901z"/>
	<path opacity="0.4" fill="#A97C50" enable-background="new    " d="M506.018,218.38c-1.403,2.073-3.518,3.479-5.383,5.092
		c-1.371,1.188-2.604,2.627-3.704,4.131c-0.397,0.04-0.786,0.177-1.052,0.495c-0.583,0.697-1.423,0.841-2.285,1.017
		c-0.886,0.186-1.388,1.13-1.294,1.991c-1.491,0.263-2.967,0.478-4.29,0.581c-2.014,0.162-2.295,2.887-0.838,3.529
		c-0.704,1.759-2.558,3.166-3.905,4.354c-1.527,1.34-3.149,2.508-4.959,3.33c-0.927,0.346-1.888,0.6-2.901,0.711
		c-2.325,0.257-2.35,3.929,0,3.669c0.239-0.025,0.46-0.082,0.691-0.118c0.313,0.108,0.655,0.162,1.056,0.055
		c1.703-0.459,3.251-1.179,4.702-2.069c6.66-3.647,11.535-10.654,19.59-12.034c1.705-0.293,1.618-2.257,0.548-3.134
		c1.002-0.968,1.853-2.106,2.497-3.325c0.229-0.438,0.231-0.972,0.089-1.459c1.676-1.519,3.315-3.059,4.607-4.963
		C510.516,218.27,507.338,216.437,506.018,218.38z"/>
	<path opacity="0.4" fill="#A97C50" enable-background="new    " d="M539.671,281.708c-0.499,0.091-0.977-0.007-1.451-0.174
		c0.315-0.391,0.384-1.055-0.136-1.45c-1.162-0.893-2.262-1.15-3.292-1.009c-0.108-0.036-0.234-0.049-0.378-0.036
		c-3.836,0.431-5.037,1.582-6.829,5.043c-2.26,4.36-4.888,8.457-6.66,13.06c-0.124,0.323-0.048,0.586,0.122,0.776
		c-0.221,0.283-1.617-0.546-1.461-0.282c-0.877,1.156-0.427,3.347-1.473,4.262c-0.708,0.402-1.425,0.784-2.151,1.115
		c-0.337,0.159-0.458,0.424-0.458,0.694c-2.831,1.59-6.283,2.304-10.75,1.622c-1.159-0.177-1.654,1.589-0.488,1.767
		c6.58,1.005,11.817-0.541,16.045-4.428c2.699-1.813,4.941-4.125,6.688-7.021c3-4.976,3.348-14.958,11.995-10.885
		c0.917,0.432,1.729-0.679,1.251-1.314C541.275,283.155,540.789,281.513,539.671,281.708z"/>
	<path opacity="0.4" fill="#A97C50" enable-background="new    " d="M610.671,282.039c-0.244-0.359-0.71-0.591-1.213-0.351
		c-1.292,0.619-3.201,0.189-3.597,1.522c-1.918,3.376-0.987,10.447-1.98,13.241c-0.254,0.716-1.695,1.625-1.103,1.571
		c-1.344,2.704-1.542,5.022-4.087,4.751c-0.56-0.058-0.84,0.329-0.866,0.762c-5.228,3.101-10.47,3.003-16.092,3.835
		c0.297-0.106,3.736,0.525,4.029,0.396c1.078-0.487-2.964-0.875-4.029-0.396c-3.476,1.565-6.271-0.071-9.947,0.026
		c-2.927,0.078-7.558,1.679-9.83-0.741c-0.69-0.734-4.342-1.342-4.139-0.548c-5.097-1.551-8.219-2.47-10.262-7.82
		c-0.416-1.093-2.188-0.619-1.765,0.489c3.543,9.283,12.128,11.291,21.161,12.452c11.574,1.482,22.396,0.737,32.371-5.337
		c0.099-0.061,1.724-1.099,1.788-1.179c3.613-2.512,4.701-4.667,5.832-7.471c0.916-2.275,0.644-7.197,1.423-10.609
		c0.539-1.339,1.306-2.517,2.486-2.809C611.889,283.565,611.588,282.109,610.671,282.039z"/>
	<path opacity="0.4" fill="#A97C50" enable-background="new    " d="M536.592,332.537c-0.087,0.012-0.7-0.004-0.775,0.052
		c-0.252-0.177-1.86-0.404-2.206-0.21c-1.181,0.678-2.585,0.091-5.285,0.042c-0.951-0.173-1.816-0.442-2.474-0.802
		c-0.465-0.255-0.898-0.066-1.15,0.259c-1.924-0.641-3.2-1.892-2.753-4.067c0.235-1.155-1.294-2.493-1.515-1.333
		c-1.374,7.192,3.706,7.771,8.573,7.789c0.843,0.046,1.7,0.037,2.592-0.034c2.095-0.161,4.777-0.403,6.421-1.784
		C538.021,332.448,537.439,332.428,536.592,332.537z"/>
	<path fill="none" stroke="#F0D0A7" stroke-miterlimit="10" d="M621.789,281.701c0,0,6.922-5.756,8.414,3.528
		c0,0,3.09,16.396-3.553,26.487c0,0-5.501,8.254-9.512,11.808c0,0-4.932,7.17-8.025,1.696"/>
	<path fill="none" stroke="#F0D0A7" stroke-miterlimit="10" d="M454.234,304.71c0,0-0.343,17.208,0,18.699
		c0,0,1.12,7.223,6.506,13.414c2.197,3.585,6.274,9.033,8.478,12.612c3.932,6.392,6.613,11.038,10.542,17.426
		c3.097,5.042,6.96,10.426,10.884,14.906c3.522,4.023,6.791,7.021,11.471,9.618c3.288,1.831,6.908,3.327,10.57,4.192
		c3.948,0.941,8.363,0.55,12.403,0.687c7.758,0.27,15.661,0.038,23.411-0.386c3.39-0.182,7.273-0.578,10.469-1.804
		c3.645-1.401,6.996-5.299,9.65-8.042c3.129-3.24,5.969-6.752,8.655-10.361c1.516-2.039,2.978-4.12,4.417-6.219
		c5.54-8.082,11.045-16.191,16.563-24.288c1.579-2.314,3.21-4.595,4.896-6.832c3.661-4.844,6.523-12.253,6.657-18.362
		c0.07-3.174,1.76-12.078,1.019-15.261"/>
	<path fill="none" stroke="#F0D0A7" stroke-miterlimit="10" d="M445.337,275.093c0,0-12.107-3.638-11.065,9.563
		c-0.139,2.551-0.077,5.152,0.137,7.693c0.294,3.484,1.568,8.223,4.023,11.268c5.205,6.452,5.567,8.819,9.475,12.224
		c0,0,3.781,4.7,6.188-1.144"/>
	<path fill="none" stroke="#3C2415" stroke-miterlimit="10" d="M550.624,264.598c0.201-1.359,0.49-3.137,0.613-3.429
		c0.679-1.594,1.774-3.021,3.199-4.018c5.157-3.607,13.205-2.433,19.122-2.479c5.345-0.039,10.846,0.438,15.982,1.965
		c2.777,0.822,5.497,2.01,7.941,3.574c2.571,1.646,3.795,4.788,5.189,7.378c-2.826-2.393-7.563-2.986-11.021-3.599
		c-8.682-1.543-17.638-1.598-26.4-0.802c-4.469,0.405-8.975,0.97-13.239,2.417l-1.413,0.595L550.624,264.598z"/>
	<path fill="none" stroke="#3C2415" stroke-miterlimit="10" d="M465.442,259.41c0,0,26.768-5.748,51.366,3.268c0,0,0-4.845,0-4.87
		c0-4.942-8.858-4.874-12.169-5.28c-6.375-0.776-12.826-1.275-19.246-1.446c-1.834-0.051-3.67-0.086-5.5-0.033
		c-0.854,0.021-6.818,0.144-7.418,0.732C472.472,251.785,465.442,259.41,465.442,259.41z"/>
	<path fill="none" stroke="#000000" stroke-miterlimit="10" d="M550.404,266.199"/>
	<g>
		<path fill="#C49A6C" d="M534.183,290.045c0,0-0.007,0.985-0.02,2.708c-0.045,0.863-0.102,1.911-0.166,3.113
			c-0.145,1.194-0.205,2.56-0.493,4.019c-0.136,0.729-0.235,1.498-0.416,2.28c-0.187,0.781-0.381,1.588-0.579,2.418
			c-0.241,0.819-0.521,1.653-0.792,2.51c-0.265,0.86-0.69,1.683-1.041,2.549c-0.172,0.436-0.382,0.859-0.622,1.271
			c-0.23,0.417-0.46,0.838-0.692,1.262c-0.439,0.868-1.014,1.646-1.576,2.461c-1.137,1.583-2.315,3.148-3.358,4.787
			c-1.056,1.622-2.016,3.327-2.473,5.123l-0.163,0.67l-0.075,0.675c-0.084,0.451-0.004,0.89,0,1.332
			c0.079,0.429,0.155,0.865,0.307,1.268l0.263,0.591c0.043,0.089,0.088,0.224,0.128,0.271l0.189,0.289
			c0.932,1.389,2.678,1.968,4.278,2.219c1.635,0.238,3.244,0.28,4.715,0.373c1.479,0.101,2.819,0.106,4.016,0.145
			c1.192-0.013,2.237-0.06,3.095-0.091c1.712-0.176,2.691-0.275,2.691-0.275s-0.972,0.172-2.671,0.477
			c-0.859,0.082-1.904,0.191-3.106,0.274c-1.203,0.037-2.572,0.111-4.044,0.054c-1.477-0.041-3.075-0.021-4.8-0.209
			c-0.86-0.106-1.753-0.285-2.627-0.653c-0.872-0.359-1.711-0.964-2.295-1.817l-0.192-0.289c-0.099-0.139-0.118-0.233-0.182-0.353
			l-0.312-0.685c-0.182-0.467-0.282-0.974-0.375-1.472c-0.019-0.506-0.104-1.022-0.021-1.525l0.078-0.762l0.171-0.741
			c0.482-1.979,1.471-3.767,2.539-5.448c1.092-1.67,2.303-3.239,3.446-4.792c0.546-0.773,1.129-1.54,1.556-2.368
			c0.229-0.408,0.458-0.812,0.686-1.214c0.238-0.396,0.447-0.803,0.619-1.227c0.354-0.838,0.764-1.637,1.061-2.462
			c0.293-0.828,0.598-1.633,0.862-2.428c0.224-0.808,0.442-1.595,0.653-2.356c0.207-0.762,0.331-1.519,0.49-2.234
			c0.167-0.715,0.279-1.411,0.376-2.074c0.108-0.663,0.21-1.29,0.306-1.88c0.133-1.189,0.25-2.226,0.346-3.081
			C534.104,291.027,534.183,290.045,534.183,290.045z"/>
	</g>
	<g>
		<path fill="#C49A6C" d="M502.333,346.226c0,0,0.836,0.464,2.369,1.109c0.754,0.35,1.703,0.701,2.776,1.135
			c1.097,0.378,2.307,0.864,3.666,1.29c0.677,0.22,1.381,0.451,2.11,0.688c0.738,0.208,1.502,0.42,2.286,0.64
			c1.558,0.479,3.256,0.777,4.973,1.229c0.871,0.168,1.758,0.34,2.654,0.513c0.897,0.17,1.803,0.36,2.73,0.462
			c1.848,0.244,3.719,0.532,5.611,0.621c0.942,0.076,1.886,0.154,2.825,0.23c0.941,0.019,1.879,0.036,2.811,0.053
			c1.864,0.089,3.692-0.038,5.465-0.137c1.777-0.047,3.475-0.284,5.094-0.475c0.807-0.096,1.595-0.189,2.355-0.279
			c0.751-0.152,1.478-0.299,2.174-0.441c1.389-0.303,2.685-0.498,3.807-0.779c1.114-0.312,2.086-0.586,2.887-0.813
			c1.609-0.44,2.527-0.69,2.527-0.69s-0.896,0.321-2.467,0.882c-0.789,0.277-1.748,0.61-2.846,0.993
			c-1.11,0.355-2.396,0.631-3.787,0.978c-0.698,0.168-1.425,0.344-2.178,0.525c-0.764,0.12-1.555,0.244-2.366,0.373
			c-1.627,0.25-3.339,0.57-5.139,0.622c-1.791,0.12-3.644,0.273-5.533,0.206c-0.942-0.006-1.893-0.013-2.849-0.019
			c-0.953-0.066-1.909-0.134-2.864-0.2c-1.916-0.113-3.808-0.427-5.674-0.698c-0.937-0.115-1.851-0.317-2.756-0.501
			c-0.904-0.188-1.797-0.369-2.677-0.552c-1.735-0.459-3.43-0.845-4.985-1.382c-0.782-0.25-1.544-0.495-2.281-0.73
			c-0.726-0.268-1.427-0.525-2.1-0.772c-1.356-0.467-2.546-1.036-3.619-1.482c-1.053-0.502-1.979-0.912-2.716-1.309
			C503.12,346.768,502.333,346.226,502.333,346.226z"/>
	</g>
	<path fill="#3C2415" stroke="#3C2415" stroke-miterlimit="10" d="M541.403,145.585c0,0,19.479,4.127,20.051,19.261
		c0,0,8.367-17.886,26.697-13.758c0,0-16.041-9.172-20.623-5.503c0,0-11.458-11.924-21.998-9.63c0,0,10.999,2.751,13.29,9.173
		C558.818,145.128,548.733,141.917,541.403,145.585z"/>
	<g>
		<path fill="#3C2415" d="M521.201,143.292c0,0-3.057,0.251-7.557,1.084c-2.252,0.39-4.848,1.008-7.597,1.755
			c-1.375,0.371-2.781,0.809-4.191,1.297c-1.406,0.502-2.828,1.034-4.206,1.661c-1.398,0.582-2.753,1.258-4.066,1.958
			c-0.649,0.364-1.286,0.738-1.911,1.112c-0.604,0.406-1.224,0.776-1.793,1.194c-1.146,0.831-2.236,1.66-3.2,2.53
			c-0.974,0.857-1.824,1.748-2.567,2.604c-0.361,0.439-0.707,0.86-1.033,1.26c-0.303,0.421-0.592,0.819-0.862,1.194
			c-0.539,0.753-0.914,1.472-1.272,2.035c-0.607,1.19-0.955,1.872-0.955,1.872s0.267-0.714,0.775-1.961
			c0.316-0.59,0.642-1.347,1.127-2.15c0.246-0.402,0.507-0.829,0.782-1.278c0.302-0.433,0.644-0.87,0.988-1.337
			c1.434-1.818,3.342-3.782,5.693-5.492c0.58-0.439,1.206-0.829,1.822-1.254c0.633-0.394,1.279-0.786,1.938-1.169
			c1.333-0.735,2.707-1.449,4.124-2.061c1.416-0.619,2.872-1.138,4.307-1.625c1.442-0.474,2.874-0.896,4.273-1.251
			c1.394-0.373,2.763-0.642,4.062-0.882c1.299-0.237,2.533-0.428,3.675-0.581c2.282-0.31,4.201-0.412,5.539-0.479
			C520.434,143.27,521.201,143.292,521.201,143.292z"/>
	</g>
	<g>
		<path fill="#3C2415" d="M528.569,154.07c0,0-0.786,0.402-2.16,1.104c-1.377,0.695-3.316,1.746-5.645,2.993
			c-2.332,1.243-5.001,2.785-7.849,4.451c-2.845,1.667-5.832,3.528-8.723,5.521c-1.458,0.978-2.891,1.992-4.275,3.023
			c-1.374,1.045-2.709,2.097-3.944,3.177c-0.619,0.539-1.223,1.074-1.795,1.616c-0.584,0.531-1.142,1.064-1.658,1.61
			c-1.06,1.064-1.98,2.149-2.762,3.196c-0.781,1.049-1.425,2.062-1.913,3.006c-0.278,0.458-0.431,0.932-0.614,1.355
			c-0.085,0.214-0.177,0.417-0.246,0.616c-0.055,0.204-0.106,0.399-0.155,0.582c-0.09,0.372-0.205,0.699-0.251,0.992
			c-0.038,0.296-0.069,0.548-0.094,0.752c-0.052,0.411-0.079,0.63-0.079,0.63s0.008-0.221,0.022-0.634
			c0.007-0.208,0.017-0.464,0.027-0.766c0.018-0.301,0.109-0.638,0.177-1.021c0.039-0.192,0.078-0.394,0.12-0.604
			c0.058-0.207,0.136-0.417,0.209-0.642c0.158-0.441,0.284-0.941,0.535-1.424c0.43-0.999,1.021-2.082,1.787-3.179
			c0.756-1.103,1.652-2.248,2.686-3.374c1.012-1.148,2.165-2.279,3.411-3.382c1.24-1.114,2.577-2.196,3.952-3.271
			c1.387-1.061,2.818-2.107,4.279-3.111c2.945-1.971,5.975-3.804,8.857-5.442c2.882-1.641,5.653-3.021,8.031-4.191
			c2.379-1.169,4.41-2.04,5.825-2.66C527.743,154.385,528.569,154.07,528.569,154.07z"/>
	</g>
	<g>
		<path fill="#3C2415" d="M538.652,159.345c0,0-0.479,0.177-1.316,0.486c-0.84,0.298-2.023,0.774-3.45,1.317
			c-1.425,0.542-3.063,1.237-4.809,1.987c-1.745,0.756-3.59,1.594-5.383,2.522c-1.806,0.908-3.559,1.912-5.138,2.942
			c-0.781,0.529-1.53,1.046-2.213,1.575c-0.678,0.534-1.294,1.069-1.828,1.599c-0.533,0.532-0.989,1.048-1.38,1.52
			c-0.368,0.489-0.681,0.925-0.89,1.314c-0.239,0.375-0.368,0.699-0.475,0.913c-0.103,0.217-0.159,0.332-0.159,0.332
			s0.038-0.122,0.106-0.352c0.077-0.227,0.144-0.581,0.348-0.984c0.168-0.42,0.432-0.9,0.754-1.445
			c0.341-0.531,0.752-1.118,1.271-1.698c0.513-0.583,1.108-1.18,1.768-1.778c0.663-0.592,1.391-1.187,2.18-1.747
			c1.572-1.132,3.358-2.169,5.186-3.112c1.836-0.925,3.713-1.758,5.509-2.443c1.791-0.696,3.502-1.234,4.966-1.693
			s2.713-0.744,3.58-0.962C538.148,159.434,538.652,159.345,538.652,159.345z"/>
	</g>
	<g>
		<path fill="#3C2415" d="M458.906,197.408c0,0-0.282,0.652-0.777,1.789c-0.506,1.134-1.149,2.786-1.947,4.753
			c-0.376,0.992-0.816,2.055-1.216,3.203c-0.421,1.141-0.843,2.35-1.271,3.604c-0.452,1.246-0.835,2.56-1.268,3.881
			c-0.433,1.319-0.783,2.688-1.184,4.041c-0.353,1.365-0.71,2.73-1.027,4.081c-0.259,1.362-0.607,2.687-0.816,3.99
			c-0.187,1.306-0.469,2.559-0.596,3.763c-0.125,1.203-0.286,2.342-0.358,3.396c-0.037,1.056-0.09,2.025-0.141,2.887
			c-0.062,0.861,0.023,1.61,0.022,2.229c0.023,1.243,0.036,1.953,0.036,1.953s-0.085-0.705-0.237-1.938
			c-0.05-0.62-0.198-1.371-0.206-2.238c-0.024-0.867-0.052-1.847-0.056-2.919c0.02-1.068,0.124-2.223,0.189-3.45
			c0.068-1.227,0.28-2.503,0.449-3.831c0.187-1.325,0.477-2.678,0.741-4.057c0.309-1.37,0.656-2.753,1.004-4.136
			c0.415-1.364,0.78-2.743,1.23-4.071c0.439-1.333,0.881-2.64,1.361-3.885c0.451-1.257,0.948-2.447,1.427-3.574
			c0.459-1.133,0.956-2.178,1.382-3.155C457.44,199.848,458.906,197.408,458.906,197.408z"/>
	</g>
	<g>
		<path fill="#3C2415" d="M550.404,171.382c0,0-0.296,0.87-0.863,2.375c-0.577,1.499-1.379,3.654-2.44,6.197
			c-1.066,2.542-2.302,5.513-3.751,8.639c-1.447,3.127-3.042,6.442-4.717,9.719c-1.711,3.256-3.514,6.469-5.315,9.416
			c-0.896,1.477-1.814,2.873-2.724,4.17c-0.904,1.301-1.791,2.511-2.662,3.587c-0.426,0.545-0.846,1.059-1.27,1.528
			c-0.413,0.478-0.818,0.917-1.221,1.313c-0.774,0.816-1.519,1.462-2.14,1.974c-0.631,0.507-1.153,0.866-1.533,1.074
			c-0.369,0.223-0.565,0.341-0.565,0.341s0.186-0.136,0.534-0.389c0.171-0.129,0.393-0.274,0.633-0.472
			c0.232-0.205,0.5-0.443,0.8-0.708c0.582-0.545,1.275-1.228,1.988-2.082c0.37-0.415,0.744-0.874,1.122-1.372
			c0.39-0.487,0.793-1.003,1.192-1.562c0.817-1.097,1.65-2.33,2.497-3.653c0.852-1.318,1.698-2.745,2.582-4.213
			c1.752-2.949,3.501-6.168,5.167-9.43c1.708-3.24,3.339-6.523,4.822-9.624c1.482-3.102,2.887-5.988,4.031-8.491
			C548.869,174.718,550.404,171.382,550.404,171.382z"/>
	</g>
	<g>
		<path fill="#3C2415" d="M578.525,164.846c0,0,0.415,0.32,1.09,0.941c0.666,0.628,1.625,1.528,2.656,2.719s2.196,2.622,3.284,4.277
			c0.539,0.83,1.082,1.699,1.564,2.622c0.492,0.919,0.946,1.875,1.353,2.858c0.399,0.983,0.734,1.995,1.015,3.003
			c0.269,1.011,0.471,2.026,0.584,3.02c0.062,0.495,0.119,0.984,0.121,1.467c0.028,0.48,0.024,0.951-0.002,1.407
			c-0.004,0.458-0.039,0.901-0.096,1.328c-0.042,0.428-0.09,0.839-0.175,1.229c-0.117,0.789-0.342,1.485-0.527,2.1
			c-0.212,0.606-0.424,1.126-0.593,1.551c-0.414,0.819-0.65,1.288-0.65,1.288s0.168-0.495,0.46-1.359
			c0.121-0.438,0.272-0.969,0.412-1.581c0.106-0.623,0.248-1.315,0.321-2.083c0.058-0.381,0.076-0.782,0.088-1.195
			c0.026-0.413,0.03-0.84,0.007-1.281c-0.007-0.44-0.032-0.89-0.093-1.348c-0.041-0.458-0.096-0.926-0.176-1.398
			c-0.136-0.948-0.386-1.908-0.646-2.878c-0.278-0.968-0.613-1.936-1.009-2.882c-0.77-1.901-1.726-3.729-2.728-5.384
			c-1.009-1.65-2.017-3.162-2.965-4.395C579.953,166.38,578.525,164.846,578.525,164.846z"/>
	</g>
	<g>
		<path fill="#3C2415" d="M588.151,159.345c0,0,0.541,0.421,1.436,1.227c0.88,0.813,2.151,1.975,3.553,3.489
			c1.396,1.517,2.995,3.321,4.552,5.386c0.767,1.039,1.562,2.114,2.295,3.258c0.751,1.131,1.457,2.319,2.14,3.52
			c0.666,1.211,1.285,2.447,1.847,3.688c0.56,1.242,1.048,2.493,1.462,3.724c0.426,1.226,0.757,2.439,1.007,3.602
			c0.271,1.159,0.444,2.271,0.571,3.299c0.051,0.517,0.119,1.009,0.147,1.48c0.014,0.472,0.026,0.92,0.04,1.34
			c0.019,0.839-0.04,1.572-0.048,2.174c-0.121,1.199-0.208,1.876-0.208,1.876s0.002-0.684,0.006-1.882
			c-0.041-0.597-0.047-1.322-0.136-2.147c-0.084-0.826-0.201-1.751-0.377-2.755c-0.178-1.001-0.404-2.082-0.727-3.201
			c-0.144-0.565-0.325-1.135-0.523-1.714c-0.182-0.583-0.39-1.172-0.611-1.768c-0.428-1.196-0.963-2.396-1.51-3.612
			c-0.56-1.211-1.181-2.417-1.843-3.602c-1.311-2.377-2.796-4.66-4.264-6.745c-1.483-2.077-2.935-3.973-4.255-5.538
			c-1.32-1.563-2.438-2.859-3.258-3.729C588.631,159.834,588.151,159.345,588.151,159.345z"/>
	</g>
	<g>
		<path fill="#3C2415" d="M595.026,143.292c0,0,0.48,0.242,1.286,0.736c0.797,0.501,1.943,1.221,3.226,2.213
			c0.644,0.494,1.326,1.047,2.032,1.653c0.705,0.61,1.443,1.26,2.15,1.991c1.447,1.433,2.85,3.107,4.075,4.917
			c0.613,0.904,1.148,1.86,1.651,2.814c0.48,0.967,0.886,1.952,1.207,2.928c0.327,0.975,0.561,1.948,0.692,2.881
			c0.155,0.928,0.21,1.822,0.212,2.641c0.022,0.821-0.073,1.567-0.16,2.224c-0.103,0.654-0.239,1.215-0.335,1.677
			c-0.284,0.9-0.45,1.415-0.45,1.415s0.093-0.529,0.253-1.454c0.044-0.466,0.119-1.029,0.149-1.676
			c0.012-0.649,0.021-1.375-0.039-2.167c-0.054-0.789-0.163-1.641-0.371-2.521c-0.184-0.884-0.479-1.793-0.81-2.72
			c-0.331-0.927-0.777-1.846-1.235-2.774c-0.494-0.912-1.02-1.826-1.62-2.693c-0.574-0.888-1.22-1.728-1.867-2.544
			c-0.664-0.804-1.32-1.595-2.005-2.319c-1.356-1.458-2.685-2.775-3.896-3.825C596.776,144.556,595.026,143.292,595.026,143.292z"/>
	</g>
	<g>
		<path fill="#C49A6C" d="M441.147,286.156c0,0,0.092,1.128,0.23,2.82c0.063,0.84,0.135,1.821,0.214,2.871
			c0.087,1.047,0.172,2.161,0.298,3.269c0.068,0.552,0.108,1.11,0.196,1.65c0.093,0.538,0.13,1.079,0.241,1.584
			c0.097,0.509,0.17,1.009,0.292,1.465c0.104,0.464,0.208,0.901,0.345,1.29c0.118,0.398,0.233,0.759,0.381,1.06
			c0.137,0.305,0.232,0.596,0.386,0.783c0.266,0.405,0.415,0.658,0.415,0.658s-0.21-0.182-0.576-0.537
			c-0.202-0.167-0.351-0.431-0.561-0.718c-0.099-0.146-0.216-0.298-0.32-0.468c-0.087-0.178-0.18-0.364-0.276-0.558
			c-0.207-0.387-0.383-0.822-0.535-1.295c-0.18-0.466-0.318-0.969-0.443-1.493c-0.273-1.044-0.434-2.179-0.574-3.313
			c-0.106-1.136-0.176-2.273-0.176-3.34c-0.004-1.065,0.031-2.06,0.102-2.909c0.057-0.85,0.17-1.554,0.229-2.046
			C441.085,286.435,441.147,286.156,441.147,286.156z"/>
	</g>
	<g>
		<path fill="#C49A6C" d="M623.327,292.338c0,0,0.178,0.277,0.427,0.796c0.248,0.518,0.581,1.27,0.894,2.212
			c0.14,0.475,0.309,0.987,0.422,1.545c0.115,0.558,0.253,1.146,0.301,1.772c0.089,0.619,0.111,1.269,0.111,1.93
			c0.004,0.66-0.095,1.333-0.159,2.003l-0.232,0.989c-0.062,0.332-0.155,0.655-0.291,0.964c-0.228,0.631-0.48,1.239-0.84,1.772
			c-0.165,0.271-0.327,0.539-0.486,0.8c-0.202,0.229-0.399,0.454-0.594,0.673c-0.191,0.215-0.379,0.426-0.561,0.628
			c-0.2,0.185-0.42,0.333-0.613,0.491c-0.402,0.302-0.754,0.601-1.104,0.796c-0.361,0.183-0.675,0.341-0.933,0.472
			c-0.515,0.255-0.812,0.386-0.812,0.386s0.257-0.213,0.706-0.558c0.227-0.17,0.499-0.375,0.813-0.612
			c0.301-0.248,0.582-0.596,0.927-0.92c0.164-0.171,0.352-0.335,0.513-0.529c0.151-0.206,0.305-0.418,0.465-0.637
			c0.157-0.216,0.32-0.439,0.488-0.666c0.129-0.25,0.263-0.505,0.396-0.765c0.125-0.264,0.299-0.507,0.39-0.796
			c0.095-0.285,0.193-0.571,0.301-0.858c0.119-0.281,0.197-0.58,0.252-0.887l0.194-0.913c0.072-0.62,0.175-1.241,0.182-1.861
			c0.006-0.62,0.042-1.231-0.017-1.826c-0.048-1.19-0.236-2.297-0.392-3.25c-0.108-0.469-0.167-0.913-0.265-1.295
			c-0.087-0.384-0.167-0.72-0.246-0.994C623.414,292.654,623.327,292.338,623.327,292.338z"/>
	</g>
	<path fill="none" stroke="#000000" stroke-miterlimit="10" d="M481.711,369.919"/>
	<g>
		<path fill="#46A061" d="M609.18,276.282c-0.109-1.111,0.276-2.206-0.577-3.078c-0.844-0.862-2.062-1.149-3.367-1.152
			c-3.326-1.478-7.274-1.879-10.759-2.57c-2.035-0.406-4.09-0.734-6.163-0.883c-2.321-0.168-4.927-0.151-7.189-0.667
			c-0.236-0.054-0.45-0.034-0.64,0.029c-0.267-0.056-0.554-0.024-0.8,0.089c-0.026-0.006-0.044-0.015-0.074-0.021
			c-2.839-0.5-5.959-0.2-8.844-0.247c-3.49-0.059-6.966,0.148-10.434,0.549c-3.296,0.382-6.578,0.885-9.862,1.343
			c-1.42,0.199-2.83,0.426-4.209,0.815c-0.458,0.071-0.921,0.147-1.383,0.232c-1.539,0.287-2.857,1.327-4.152,2.157
			c-0.129,0.083-0.231,0.179-0.316,0.283c-2.392-0.487-5.589,0.231-7.42,0.266c-2.807,0.052-5.298-1.112-7.786-2.317
			c-1.155-1.042-2.488-1.411-3.915-1.742c-0.081-0.028-0.164-0.061-0.246-0.089c-1.989-0.688-4.09-0.921-6.135-1.378
			c-2.364-0.531-4.692-1.205-7.069-1.675c-0.475-0.097-0.862,0.077-1.118,0.362c-2.229-0.397-4.47-0.705-6.698-0.866
			c-0.104-0.037-0.219-0.066-0.346-0.073c-0.343-0.021-0.687-0.03-1.029-0.042c-0.18-0.154-0.422-0.254-0.727-0.254
			c-6.883,0.01-14.011-0.809-20.866,0.14c-3.402,0.473-6.817,0.992-10.247,1.215c-0.759,0.051-1.504,0.214-2.097,0.517
			c-0.184-0.098-0.343-0.162-0.431-0.162c-0.292,0-0.66,0.099-0.913,0.243c-0.907,0.53-1.871,0.549-2.89,0.677
			c-0.912,0.112-1.668,0.453-2.391,0.914c-0.518-0.168-1.155-0.025-1.399,0.502c-0.604,1.296-0.368,2.715-0.515,4.101
			c-0.06,0.569-0.114,1.083-0.076,1.534c-0.246,0.444-0.183,1.021,0.188,1.395c0.313,0.315,0.767,0.405,1.169,0.286
			c0.02,0.006,0.038,0.013,0.061,0.022c0.214,0.075,0.402,0.166,0.578,0.265c0.186,0.257,0.399,0.429,0.686,0.646
			c0.347,0.268,0.516,0.548,0.702,0.879c0.432,0.981,0.522,2.18,0.793,3.338c0.609,2.597,0.724,5.268,1.316,7.856
			c0.033,0.14,0.08,0.258,0.137,0.362c-0.143,1.15,0.156,2.3,0.541,3.479c0.268,0.818,0.507,1.639,0.761,2.461
			c0.216,0.7,0.674,1.272,1.065,1.874c-0.012,0.077-0.019,0.16-0.01,0.245c0.029,0.353,0.107,0.665,0.234,0.924
			c-0.048,0.243-0.01,0.512,0.169,0.79c0.744,1.142,1.671,1.736,2.886,2.233c0.844,0.661,1.818,1.18,2.933,1.572
			c0.258,0.091,0.509,0.068,0.729-0.022c0.723,0.279,1.461,0.514,2.232,0.653c4.603,0.825,9.083,1.507,13.765,1.764
			c4.846,0.26,9.707,0.467,14.557,0.392c3.798-0.055,8.502,0.203,11.987-1.535c0.225-0.112,0.375-0.264,0.472-0.434
			c1.377-0.73,2.676-1.618,3.711-2.763c0.931-1.028,1.583-2.305,2.369-3.444c0.913-1.326,1.776-2.637,2.505-4.076
			c0.769-1.527,1.441-3.068,2.016-4.632c0.135-0.09,0.259-0.217,0.368-0.393c0.817-1.333,1.418-2.75,1.901-4.219
			c0.291-0.601,0.596-1.198,0.926-1.782c0.584-1.032,0.723-2.272,1.547-3.172c0.759-0.827,2.437-1.113,3.47-1.391
			c2.601-0.7,5.218-0.326,6.566,2.125c0.499,0.908,0.809,1.655,1.024,2.664c0.125,0.564,0.334,0.977,0.728,1.294
			c0.034,0.036,0.061,0.073,0.093,0.108c-0.036,0.152-0.045,0.315-0.014,0.484c0.179,0.97,0.746,1.782,0.95,2.735
			c0.197,0.92,0.246,1.792,0.825,2.571c0.1,0.133,0.212,0.23,0.336,0.309c0.344,1.181,0.821,2.318,1.328,3.444
			c1.354,3.01,2.775,5.979,5.01,8.429c2.232,2.449,4.752,3.291,7.939,3.814c3.668,0.602,7.265,1.159,10.982,1.356
			c7.109,0.384,14.518,0.851,21.595-0.132c5.804-0.802,10.256-3.888,11.679-9.648c0.062-0.202,0.104-0.401,0.142-0.598
			c0.384-0.241,0.696-0.624,0.806-1.037c0.399-1.518,0.432-3.182,0.719-4.729c0.403-2.183,0.94-4.337,1.364-6.512
			c0.467-2.412,1.534-3.34,3.53-4.574c0.488-0.3,0.636-0.846,0.511-1.314C609.279,278.39,609.295,277.43,609.18,276.282z
			 M520.9,292.41c-1.019,2.297-2.573,4.24-3.894,6.362c-1.037,1.668-2.545,2.841-4.237,3.74c-0.223-0.032-0.464,0.003-0.71,0.13
			c-1.323,0.679-2.951,0.445-4.353,0.907c-0.198,0.064-0.356,0.166-0.478,0.287c-1.878,0.104-3.753,0.225-5.635,0.268
			c-4.346,0.099-8.696-0.128-13.038-0.323c-4.016-0.182-8.129-0.348-12.063-1.243c-1.812-0.409-3.638-0.58-5.331-1.392
			c-0.026-0.013-0.052-0.025-0.08-0.035c-2.167-0.876-2.808-1.629-3.651-2.785c-1.757-2.404-2.055-5.549-2.836-8.367
			c-0.065-0.341-0.146-0.676-0.259-1.012c-0.005-0.016-0.013-0.026-0.017-0.04c0.347-1.269,0.072-2.796-0.159-4.208
			c0.025-0.112,0.039-0.232,0.023-0.37c-0.036-0.319-0.075-0.613-0.123-0.91c0.144-0.232,0.207-0.525,0.13-0.866
			c-0.422-1.822,0.004-4.216,0.292-6.059c0.062-0.379,0.141-1.073,0.296-1.803c0.632-1.014,1.15-2.079,2.037-2.902
			c0.057-0.052,0.11-0.108,0.151-0.164c0.284-0.055,1.767-1.16,1.997-1.3c2.854-1.706,4.92-1.369,8.21-1.624
			c3.661-0.286,7.349-0.422,11.021-0.552c2.924-0.104,5.913-0.278,8.864-0.248c0.086,0.02,0.181,0.034,0.28,0.035
			c5.167,0.074,10.204,1.343,15.251,2.308c4.186,0.802,12.107,1.766,12.053,7.376C524.588,282.946,523.041,287.573,520.9,292.41z
			 M601.481,286.742c0.035,0.163,0.105,0.303,0.198,0.417c-0.238,1.669-0.605,3.323-0.981,4.959c-0.238,1.042-0.322,2.1-0.636,3.123
			c-0.135,0.456-0.244,0.908-0.18,1.364c-0.028,0.064-0.05,0.127-0.061,0.198c-0.006,0.022-0.012,0.044-0.016,0.064
			c-0.662,0.777-1.271,1.525-1.375,2.568c-0.119,0.096-0.222,0.226-0.297,0.405c-0.042,0.096-0.076,0.187-0.117,0.28l0,0
			c0,0.003-0.004,0.005-0.004,0.007c-0.061,0.146-0.117,0.289-0.171,0.437c-0.543,1.011-2.092,2.728-2.938,3.239
			c-0.831,0.022-1.483,0.347-2.174,0.678c-1.254-0.036-2.376,0.646-3.657,0.737c-1.984,0.146-4.076,0.203-6.029,0.6
			c-0.149-0.072-0.323-0.116-0.529-0.116c-0.081,0-0.157,0.008-0.232,0.021c-0.197,0.028-0.381,0.11-0.541,0.24
			c-4.864,0.068-9.76-0.152-14.586-0.454c-3.401-0.211-6.72-0.816-10.074-1.387c-3.326-0.569-5.519-2.369-7.388-5.126
			c-1.714-2.525-3.199-5.801-4.067-8.713c-0.424-1.423-0.497-2.92-0.921-4.341c-0.11-0.377-0.276-0.733-0.477-1.074
			c-0.014-0.269-0.072-0.539-0.181-0.8c-0.37-0.911-0.352-1.958-0.579-2.911c-0.003-0.841-0.012-1.688,0.065-2.525
			c0.003-0.026,0.003-0.046,0.007-0.07c0.108-0.123,0.204-0.27,0.267-0.455c0.09-2.798,1.15-3.044,2.246-4.227
			c0.524-0.221,1.122-0.322,1.631-0.576c0.529-0.261,1.06-0.608,1.617-0.868c0.153,0.068,0.333,0.106,0.545,0.089
			c2.626-0.2,5.189-0.91,7.824-1.163c2.857-0.271,5.678-0.672,8.55-0.802c2.82-0.128,5.604-0.037,8.42,0.122
			c2.787,0.158,5.573-0.066,8.362,0.186c0.146,0.013,0.272-0.001,0.39-0.032c0.062,0.014,0.125,0.029,0.196,0.032
			c0.218,0.015,0.439,0.028,0.66,0.037c0.091,0.068,0.188,0.126,0.294,0.165c2.211,0.806,4.811,0.787,7.117,1.17
			c1.226,0.203,2.457,0.351,3.658,0.59c1.217,0.376,2.365,0.944,3.387,1.744c0.127,0.104,0.265,0.167,0.397,0.209
			c0.13,0.226,0.321,0.409,0.563,0.506c0.049,0.153,0.129,0.311,0.257,0.457c0.188,0.219,0.354,0.42,0.5,0.622
			c0.151,0.226,0.289,0.465,0.412,0.721c0.104,0.282,0.159,0.598,0.142,0.982c-0.022,0.434,0.157,0.849,0.39,1.2
			c0.04,0.062,0.095,0.13,0.146,0.199c0.03,0.228,0.053,0.454,0.065,0.667c0.086,1.634,0.286,3.275,0.091,4.892
			C601.495,285.566,601.322,286.071,601.481,286.742z"/>
		<path fill="none" stroke="#46A061" stroke-width="2" stroke-miterlimit="10" d="M456.285,270.118c0,0-0.355,5.702-0.358,5.725
			c-0.06,0.96,1.066,0.952,1.701,1.259c0.885,0.427,1.588,1.228,1.908,2.159c0.569,1.657,0.95,3.337,1.223,5.072
			c0.468,2.98,0.961,5.929,1.619,8.875c0.146,0.655,0.29,1.309,0.475,1.956c0,0,1.105,3.56,1.658,4.348c0,0,1.006,2.519,5.266,3.885
			c0.792,0.253,1.596,0.481,2.397,0.699c2.563,0.692,5.189,1.133,7.82,1.46c3.938,0.494,7.821,0.726,11.782,0.797
			c4.182,0.081,8.374,0.092,12.553-0.088c2.106-0.09,4.18-0.309,6.271-0.529c0,0,5.816-0.622,9.49-7.481
			c0.71-1.11,1.379-2.25,2.034-3.392c1.335-2.321,2.59-4.685,3.659-7.139c0.956-2.188,1.741-4.46,2.858-6.578
			c0.595-1.126,1.628-1.998,2.89-2.272c1.085-0.234,2.296-0.428,3.4-0.344c1.214,0.087,2.585,0.153,3.507,1.063
			c0.86,0.856,1.352,2.09,1.743,3.21c0,0,2.893,8.232,3.542,9.566c0,0,2.862,7.25,4.844,9.495c1.854,2.1,4.001,3.669,6.789,4.324
			c3.407,0.798,7.077,0.974,10.564,1.277c4.062,0.356,8.131,0.648,12.215,0.762c2.312,0.063,4.622-0.021,6.936-0.021
			c0,0,8.449-0.097,13.393-3.901c0,0,2.374-1.528,3.999-7.484c0.293-1.171,0.563-2.349,0.862-3.521
			c0.521-2.054,1.098-4.148,1.453-6.237c0.085-0.498,0.157-0.998,0.282-1.489c0.196-0.749,0.41-1.697,0.802-2.363
			c0.337-0.577,0.789-1.115,1.322-1.52c0.494-0.377,1.045-0.546,1.57-0.803c0.876-0.433,0.581-2.239,0.569-3.037
			c-0.019-1.118,0.006-2.227,0.023-3.343c0.015-0.805-0.116-1.517-1.005-1.751c-1.688-0.446-3.358-0.962-5.048-1.399
			c-3.942-1.022-7.907-1.948-11.942-2.531c-2.535-0.366-5.121-0.708-7.685-0.852c-1.976-0.121-3.956-0.196-5.931-0.272
			c-3.481-0.129-6.972-0.249-10.456-0.178c-3.886,0.076-7.781,0.616-11.639,1.073c-0.842,0.099-1.686,0.199-2.527,0.322
			c-3.152,0.47-6.58,0.928-9.534,2.179c-1.098,0.466-2.02,1.193-3.038,1.73c-1.234,0.65-2.889,0.407-4.221,0.366
			c-1.582-0.054-3.165-0.104-4.747-0.083c-0.897,0.012-1.981-0.034-2.821-0.386c-1.378-0.576-2.615-1.57-3.966-2.261
			c-1.535-0.78-3.277-1.142-4.927-1.613c-0.738-0.208-1.483-0.417-2.229-0.596c-1.816-0.438-3.642-0.822-5.473-1.191
			c0,0-15.244-3.122-32.309-1.721c-0.523,0.039-1.05,0.087-1.572,0.134c-1.355,0.118-2.713,0.258-4.066,0.412
			c-1.85,0.209-3.694,0.446-5.536,0.702c-1.962,0.269-3.92,0.569-5.862,0.957c-1.827,0.366-3.628,0.839-5.418,1.358
			C456.695,269.104,456.333,269.312,456.285,270.118z"/>
		<path fill="#FFFFFF" stroke="#46A061" stroke-miterlimit="10" d="M554.094,271.682c0,0-8.484,0.78-9.883,4.26
			c0,0-1.006,2.864-0.42,6.179c0,0,1.235,7.026,2.731,10.442c0,0,3.086,9.695,8.61,11.155c0,0,5.917,1.792,17.685,2.179
			c0,0,17.521,0.361,22.136-2.341c0,0,3.964-2.373,5.233-8.717c0,0,1.301-6.537,1.528-10.048c0,0,0.581-6.344-2.147-9.402
			c0,0-1.526-2.669-10.759-3.708c0,0-12.58-2.181-27.236-0.88C561.571,270.803,555.642,271.473,554.094,271.682z"/>
		<path opacity="0.5" fill="#27AAE1" stroke="#EF4136" stroke-miterlimit="10" enable-background="new    " d="M494.656,267.988
			c-2.061-0.029-4.129-0.024-6.19,0.027c-4.011,0.095-8.003,0.269-11.998,0.653c-4.099,0.396-8.901,1.003-11.083,5.002
			c-0.652,1.198-0.944,2.53-1.056,3.883c0,0-1.12,13.413,2.584,20.146c0,0,1.025,4.05,12.726,5.613c0,0,17.21,1.364,21.405,0.876
			c0,0,12.384-0.194,15.115-4.097c2.321-3.141,4.377-6.638,5.839-10.256c1.37-3.388,2.625-7.329,2.706-11.012
			c0.022-1.03-0.042-2.167-0.372-3.148c-0.824-2.452-4.521-3.592-6.696-4.304c-1.816-0.59-3.655-0.928-5.526-1.285
			C512.112,270.087,500.991,267.958,494.656,267.988z"/>
		<path fill="#FFFFFF" stroke="#EF4136" stroke-miterlimit="10" d="M494.656,267.988c-2.061-0.029-4.129-0.024-6.19,0.027
			c-4.011,0.095-8.003,0.269-11.998,0.653c-4.099,0.396-8.901,1.003-11.083,5.002c-0.652,1.198-0.944,2.53-1.056,3.883
			c0,0-1.12,13.413,2.584,20.146c0,0,1.025,4.05,12.726,5.613c0,0,17.21,1.364,21.405,0.876c0,0,12.384-0.194,15.115-4.097
			c2.321-3.141,4.377-6.638,5.839-10.256c1.37-3.388,2.625-7.329,2.706-11.012c0.022-1.03-0.042-2.167-0.372-3.148
			c-0.824-2.452-4.521-3.592-6.696-4.304c-1.816-0.59-3.655-0.928-5.526-1.285C512.112,270.087,500.991,267.958,494.656,267.988z"/>
		<path fill="none" stroke="#46A061" stroke-miterlimit="10" d="M494.656,267.988c-2.061-0.029-4.129-0.024-6.19,0.027
			c-4.011,0.095-8.003,0.269-11.998,0.653c-4.099,0.396-8.901,1.003-11.083,5.002c-0.652,1.198-0.944,2.53-1.056,3.883
			c0,0-1.12,13.413,2.584,20.146c0,0,1.025,4.05,12.726,5.613c0,0,17.21,1.364,21.405,0.876c0,0,12.384-0.194,15.115-4.097
			c2.321-3.141,4.377-6.638,5.839-10.256c1.37-3.388,2.625-7.329,2.706-11.012c0.022-1.03-0.042-2.167-0.372-3.148
			c-0.824-2.452-4.521-3.592-6.696-4.304c-1.816-0.59-3.655-0.928-5.526-1.285C512.112,270.087,500.991,267.958,494.656,267.988z"/>
		<polygon fill="#46A061" points="474.801,304.717 479.677,303.562 480.441,304.326 479.302,305.465 481.675,306.22 
			484.429,303.467 484.429,300.346 482.151,302.631 481.38,301.853 484.429,298.805 484.429,295.551 481.247,298.75 
			477.275,302.713 477.273,301.177 484.429,293.965 481.234,293.965 474.798,300.406 		"/>
		<polygon fill="#46A061" points="485.518,297.668 490.396,292.789 491.159,293.556 485.518,299.198 488.649,299.198 
			495.152,292.695 495.152,289.577 492.871,291.858 492.097,291.081 495.152,288.033 495.152,284.779 491.966,287.978 
			487.993,291.944 487.993,290.401 495.152,283.192 491.957,283.192 485.518,289.635 		"/>
		<polygon fill="#46A061" points="496.251,287.023 501.129,282.146 501.892,282.909 496.251,288.554 499.382,288.554 
			505.885,282.049 505.885,278.932 503.604,281.211 502.829,280.434 505.885,277.386 505.885,274.136 502.701,277.331 
			498.726,281.294 498.726,279.757 505.885,272.547 502.689,272.547 496.251,278.987 		"/>
		<line fill="none" x1="509.449" y1="270.588" x2="509.445" y2="269.051"/>
		<polyline fill="#46A061" points="506.97,268.282 506.97,276.316 511.847,271.437 512.614,272.201 506.97,277.845 510.103,277.845 
			516.603,271.339 516.603,268.222 514.323,270.504 513.55,269.727 		"/>
		<polyline fill="#46A061" points="468.951,299.968 469.715,300.733 467.951,302.5 470.308,303.659 473.707,299.875 
			473.707,296.758 471.426,299.038 470.652,298.261 473.707,295.213 473.707,291.963 470.522,295.158 466.548,299.125 
			466.548,297.584 473.707,290.375 470.512,290.375 464.073,296.814 		"/>
		<polygon fill="#46A061" points="474.798,294.078 479.677,289.201 480.441,289.964 474.798,295.605 477.93,295.605 
			484.429,289.101 484.429,285.983 482.151,288.268 481.38,287.49 484.429,284.443 484.429,281.189 481.247,284.387 
			477.275,288.351 477.273,286.812 484.429,279.602 481.234,279.602 474.798,286.043 		"/>
		<polygon fill="#46A061" points="485.518,283.357 490.396,278.48 491.159,279.243 485.518,284.888 488.649,284.888 
			495.152,278.382 495.152,275.264 492.871,277.543 492.097,276.768 495.152,273.722 495.152,270.471 491.966,273.665 
			487.993,277.63 487.993,276.093 495.152,268.882 491.957,268.882 485.518,275.322 		"/>
		<line fill="none" x1="498.726" y1="266.894" x2="498.726" y2="265.355"/>
		<path fill="#46A061" d="M505.885,259.911"/>
		<polyline fill="#46A061" points="496.251,265.341 496.251,272.621 501.129,267.743 501.892,268.507 496.251,274.154 
			499.382,274.154 505.885,267.647 505.507,266.448 503.604,266.811 502.829,266.035 		"/>
		<polygon fill="#46A061" points="464.076,290.551 468.953,285.675 469.718,286.438 464.076,292.082 467.206,292.082 
			473.709,285.578 473.709,282.46 471.429,284.739 470.653,283.964 473.709,280.917 473.709,277.667 470.525,280.862 
			466.552,284.824 466.55,283.287 473.709,276.079 470.515,276.079 464.076,282.517 		"/>
		<polygon fill="#46A061" points="474.801,279.782 479.679,274.901 480.443,275.666 474.801,281.312 477.933,281.312 
			484.432,274.807 484.432,271.688 482.152,273.97 481.38,273.193 484.432,270.144 484.432,266.891 481.249,270.09 477.276,274.055 
			477.275,272.517 484.432,265.308 481.238,265.308 474.801,271.746 		"/>
		<path fill="#46A061" d="M487.993,263.385"/>
		<path fill="#46A061" d="M494.717,259.911"/>
		<line fill="none" x1="492.871" y1="263.302" x2="492.097" y2="262.524"/>
		<polyline fill="#46A061" points="485.518,265.842 485.518,269.114 489.596,265.033 491.159,264.999 485.518,270.641 
			488.649,270.641 493.264,266.023 		"/>
		<polygon fill="#46A061" points="464.076,276.252 468.953,271.372 469.718,272.138 464.076,277.78 467.206,277.78 473.709,271.277 
			473.709,268.158 471.429,270.438 470.653,269.664 473.709,266.615 472.066,267.032 470.525,266.56 466.552,270.522 
			466.55,268.985 468.481,267.039 465.253,267.039 464.076,268.217 		"/>
		<line fill="none" x1="490.396" y1="307.058" x2="491.159" y2="307.82"/>
		<polyline fill="#46A061" points="495.152,306.22 495.152,303.843 492.871,306.125 492.097,305.347 495.152,302.298 
			495.152,299.047 491.966,302.246 487.993,306.208 487.993,304.672 495.152,297.459 491.957,297.459 485.518,303.902 		"/>
		<polygon fill="#46A061" points="496.251,301.29 501.129,296.412 501.892,297.176 496.251,302.819 499.382,302.819 
			505.885,296.315 505.885,293.197 503.604,295.479 502.829,294.702 505.885,291.654 505.885,288.401 502.701,291.599 
			498.726,295.565 498.726,294.025 505.885,286.816 502.689,286.816 496.251,293.255 		"/>
		<polygon fill="#46A061" points="506.97,290.581 511.847,285.702 512.614,286.467 506.97,292.113 510.103,292.113 516.603,285.606 
			516.603,282.491 514.323,284.771 513.55,283.994 516.603,280.948 516.603,277.694 513.42,280.892 509.449,284.853 
			509.445,283.316 516.603,276.106 513.408,276.106 506.97,282.548 		"/>
		<polyline fill="#46A061" points="517.707,271.719 517.707,279.755 522.582,274.875 523.346,275.638 517.707,281.283 
			520.836,281.283 524.806,277.312 524.806,273.688 524.285,273.166 524.806,272.644 524.79,270.461 524.154,270.062 
			520.181,274.027 520.178,272.489 		"/>
		<polyline fill="#46A061" points="500.57,306.22 505.887,300.865 502.695,300.865 497.645,305.917 		"/>
		<polyline fill="#46A061" points="504.328,306.265 505.887,305.702 505.887,302.451 502.706,305.646 		"/>
		<path fill="#46A061" d="M505.887,307.246"/>
		<polygon fill="#46A061" points="506.991,304.692 511.867,299.813 512.633,300.579 506.991,306.22 510.122,306.22 516.621,299.719 
			516.621,296.601 514.344,298.878 513.569,298.101 516.621,295.055 516.621,291.803 513.438,294.999 509.466,298.964 
			509.466,297.428 516.621,290.217 513.429,290.217 506.991,296.657 		"/>
		<polygon fill="#46A061" points="524.806,287.909 524.291,287.396 524.806,286.881 524.806,283.646 524.158,284.292 
			520.185,288.256 520.185,286.717 524.806,282.065 524.806,279.508 524.147,279.508 517.712,285.95 517.712,293.984 
			522.59,289.103 523.355,289.867 517.712,295.515 520.843,295.515 523.105,291.202 		"/>
		<polyline fill="#46A061" points="558.381,306.698 564.467,300.599 561.407,300.599 555.244,306.736 		"/>
		<polyline fill="#46A061" points="562.939,307.384 564.467,305.211 564.467,302.111 561.417,305.158 		"/>
		<path fill="#46A061" d="M564.467,306.682"/>
		<polygon fill="#46A061" points="565.509,304.127 570.178,299.474 570.91,300.204 565.509,305.586 568.504,305.586 574.73,299.385 
			574.73,296.413 572.547,298.587 571.807,297.848 574.73,294.942 574.73,291.84 571.679,294.889 567.878,298.667 567.878,297.204 
			574.73,290.329 571.671,290.329 565.509,296.47 		"/>
		<polygon fill="#46A061" points="575.785,293.979 580.458,289.328 581.187,290.057 575.785,295.438 578.782,295.438 
			585.004,289.238 585.004,286.264 582.825,288.438 582.085,287.701 585.004,284.792 585.004,281.691 581.955,284.739 
			578.153,288.52 578.151,287.054 585.004,280.179 581.948,280.179 575.785,286.323 		"/>
		<polygon fill="#46A061" points="586.049,283.771 590.716,279.119 591.451,279.85 586.049,285.229 589.049,285.229 
			595.268,279.028 595.268,276.057 593.086,278.229 592.347,277.491 595.268,274.584 595.268,271.483 592.222,274.532 
			588.417,278.312 588.417,276.845 595.268,269.971 592.21,269.971 586.049,276.111 		"/>
		<polyline fill="#46A061" points="600.73,270.641 596.323,274.926 599.323,274.926 603.122,271.142 		"/>
		<polyline fill="#46A061" points="549.316,302.076 554.197,297.176 551.139,297.176 548.207,300.092 		"/>
		<polyline fill="#46A061" points="554.197,306.231 554.197,303.261 552.013,305.433 551.274,304.695 554.197,301.788 
			554.197,298.686 551.147,301.734 		"/>
		<polygon fill="#46A061" points="555.244,300.705 559.913,296.052 560.644,296.783 555.244,302.165 558.242,302.165 
			564.467,295.961 564.467,292.992 562.285,295.163 561.544,294.422 564.467,291.517 564.467,288.418 561.417,291.467 
			557.615,295.245 557.613,293.779 564.467,286.904 561.407,286.904 555.244,293.045 		"/>
		<polygon fill="#46A061" points="565.509,290.484 570.178,285.832 570.91,286.561 565.509,291.944 568.504,291.944 574.73,285.744 
			574.73,282.771 572.547,284.944 571.807,284.203 574.73,281.299 574.73,278.198 571.679,281.244 567.878,285.023 567.878,283.56 
			574.73,276.684 571.671,276.684 565.509,282.824 		"/>
		<polygon fill="#46A061" points="585.004,268.129 584.84,268.129 581.955,271.011 578.153,274.792 578.151,273.323 583.33,268.129 
			580.262,268.129 575.785,272.588 575.785,280.251 580.458,275.6 581.187,276.33 575.785,281.71 578.782,281.71 585.004,275.507 
			585.004,272.534 582.825,274.709 582.085,273.968 585.004,271.064 		"/>
		<polygon fill="#46A061" points="586.049,268.129 586.049,270.114 588.039,268.129 		"/>
		<polygon fill="#46A061" points="545.963,297.023 549.647,292.693 550.382,293.424 546.334,298.222 547.978,298.805 554.198,292.6 
			554.198,289.63 552.015,291.804 551.278,291.062 554.198,288.158 554.198,285.059 551.151,288.105 547.346,291.884 
			547.346,290.417 554.198,283.542 551.143,283.542 544.978,289.684 		"/>
		<polygon fill="#46A061" points="555.246,287.074 559.917,282.423 560.646,283.153 555.246,288.535 558.244,288.535 
			564.467,282.332 564.467,279.362 562.285,281.535 561.546,280.794 564.467,277.887 564.467,274.792 561.419,277.837 
			557.618,281.615 557.615,280.149 564.467,273.276 561.413,273.276 555.246,279.416 		"/>
		<polygon fill="#46A061" points="571.807,270.624 574.316,268.129 571.213,268.129 567.878,271.443 567.878,269.978 
			569.719,268.129 566.627,268.129 565.509,269.245 565.509,276.903 570.178,272.251 570.91,272.98 565.509,278.362 
			568.504,278.362 574.73,272.162 574.73,269.189 572.547,271.365 		"/>
		<polygon fill="#46A061" points="544.978,283.709 549.647,279.057 550.382,279.787 544.978,285.169 547.978,285.169 
			554.198,278.968 554.198,275.996 552.015,278.169 551.278,277.428 554.198,274.524 554.198,271.422 551.151,274.469 
			547.346,278.25 547.346,276.784 554.198,269.91 551.143,269.91 544.978,276.051 		"/>
		<polygon fill="#46A061" points="555.244,268.129 555.244,273.453 559.913,268.802 560.644,269.53 555.244,274.912 
			558.242,274.912 564.467,268.711 564.467,268.129 		"/>
		<polyline fill="#46A061" points="571.302,307.367 574.73,303.931 571.671,303.931 568.532,307.058 		"/>
		<polyline fill="#46A061" points="573.205,307.82 574.73,308.542 574.73,305.444 571.679,308.492 		"/>
		<polygon fill="#46A061" points="575.785,307.58 580.458,302.931 581.187,303.659 577.006,307.82 579.578,308.245 585.004,302.84 
			585.004,299.867 582.825,302.04 582.085,301.3 585.004,298.396 585.004,295.295 581.955,298.343 578.153,302.119 578.151,300.655 
			585.004,293.781 581.948,293.781 575.785,299.923 		"/>
		<polygon fill="#46A061" points="586.049,297.372 590.716,292.722 591.451,293.448 586.049,298.833 589.049,298.833 
			595.268,292.63 595.268,289.656 593.086,291.833 592.347,291.09 595.268,288.183 595.268,285.085 592.222,288.133 
			588.417,291.915 588.417,290.445 595.268,283.571 592.21,283.571 586.049,289.713 		"/>
		<polygon fill="#46A061" points="603.122,281.266 602.623,280.77 603.122,280.271 603.122,277.185 602.496,277.809 
			598.694,281.589 598.694,280.124 603.122,275.682 603.122,273.25 602.489,273.25 596.323,279.389 596.323,287.049 
			600.994,282.397 601.728,283.125 596.323,288.51 599.323,288.51 603.122,284.72 		"/>
		<polyline fill="#46A061" points="595.288,306.083 595.288,303.109 593.106,305.283 592.365,304.542 595.288,301.636 
			595.288,298.537 592.242,301.584 588.435,305.361 588.435,303.897 595.288,297.023 592.23,297.023 586.07,303.165 586.049,307.82 
			590.737,306.172 591.467,306.901 		"/>
		<polygon fill="#46A061" points="603.122,294.827 602.629,294.334 603.122,293.843 603.122,290.757 602.504,291.375 
			598.699,295.153 598.699,293.688 603.122,289.252 603.122,286.815 602.496,286.815 596.332,292.956 596.332,300.616 601,295.961 
			601.732,296.692 596.332,302.076 599.329,302.076 601.905,298.157 		"/>
		<path fill="none" stroke="#46A061" stroke-miterlimit="10" d="M554.094,271.682c0,0-8.484,0.78-9.883,4.26
			c0,0-1.006,2.864-0.42,6.179c0,0,1.235,7.026,2.731,10.442c0,0,3.086,9.695,8.61,11.155c0,0,5.917,1.792,17.685,2.179
			c0,0,17.521,0.361,22.136-2.341c0,0,3.964-2.373,5.233-8.717c0,0,1.301-6.537,1.528-10.048c0,0,0.581-6.344-2.147-9.402
			c0,0-1.526-2.669-10.759-3.708c0,0-12.58-2.181-27.236-0.88C561.571,270.803,555.642,271.473,554.094,271.682z"/>
	</g>
	<path fill="#603913" stroke="#603913" stroke-miterlimit="10" d="M582.804,125.102c0,0-2.227,0.247-5.645,0.921
		c-5.074,1.003-12.773,2.946-19.713,6.417c0,0-0.802-12.051-13.938-13.789c0,0,1.301,3.274,2.217,12.751
		c0,0-15.257-9.687-31.756-7.852c0,0,16.127,8.751,14.599,14.865c0,0-37.403-14.148-58.793,11.838c0,0-13.909,21.954-30.598,31.518
		c0,0,3.972,8.738,0,21.578c0,0-2.156,18.518-7.965,18.365c0,0,17.457,67.264,22.957,84.691l1.222-31.8l3.972,0.458l-1.529-7.183
		c0,0,42.475-48.305,52.861-50.45c0,0-15.584,22.626-25.058,28.742c0,0,53.78-3.669,87.388-36.994c0,0,6.72,38.828,30.857,45.858
		c0,0-8.555-11.92-8.859-21.704c0,0,10.696,17.119,16.192,22.622c0,0-1.525,40.052,0.005,54.115c0,0,19.7-55.546,28.667-73.97
		l1.271-21.739c0,0,3.305-14.073,6.054-13.462c-2.56-2.759-2.628-3.4-5.097-6.242c-4.601-5.293-7.637-9.656-11.197-14.904
		c-3.676-5.412-5.103-9.639-8.994-14.906c-4.518-6.12-7.049-12.53-12.813-17.505c-1.696-1.462-7.913-4.913-10.006-5.737
		c-4.249-1.677-6.857-5.721-11.351-5.416c-3.842,0.257-7.683,0.447-11.51,0.866c-0.323,0.037-3.097,0.142-3.222,0.583
		c0,0,1.474-5.303,5.498-9.02L582.804,125.102z"/>
</g>
</svg>
