<?xml version="1.0" encoding="utf-8"?>
<!-- Generator: Adobe Illustrator 16.0.0, SVG Export Plug-In . SVG Version: 6.00 Build 0)  -->
<!DOCTYPE svg PUBLIC "-//W3C//DTD SVG 1.1//EN" "http://www.w3.org/Graphics/SVG/1.1/DTD/svg11.dtd">
<svg version="1.1" id="Layer_1" xmlns="http://www.w3.org/2000/svg" xmlns:xlink="http://www.w3.org/1999/xlink" x="0px" y="0px"
	 width="1080px" height="650.061px" viewBox="0 0 1080 650.061" enable-background="new 0 0 1080 650.061" xml:space="preserve">
<rect x="2.512" y="0.971" fill="#E6ECF3" width="1077.488" height="649.09"/>
<g>
	<polygon fill="#46A061" points="465.667,305.707 517.367,253.98 525.471,262.09 465.667,321.932 498.856,321.932 567.775,252.968 
		567.775,219.92 543.616,244.098 535.408,235.858 567.775,203.548 567.775,169.074 534.019,202.968 491.903,244.99 491.892,228.688 
		567.775,152.245 533.909,152.245 465.667,220.532 	"/>
	<path fill="#F3C58D" d="M489.359,367.001l-1.656,28.758c0,0,47.435,39.841,50.222,43.547c0,0,41.62-31.256,48.67-34.576
		l1.361-37.729H489.359z"/>
	<path opacity="0.4" fill="#A97C50" d="M536.155,390.14c-9.317,1.883-19.13,1.999-27.912-2.05
		c-8.321-3.841-11.551-11.596-14.875-19.433c-0.889-2.099-3.944-0.289-3.06,1.793c3.801,8.97,6.166,15.596,14.815,20.513
		c8.984,5.11,29.513,6.921,35.606,2.396C542.566,391.996,538.389,389.688,536.155,390.14z"/>
	<path opacity="0.4" fill="#A97C50" d="M583.412,368c-0.341,6.124-4.21,10.378-8.459,14.386c-4.705,4.443-9.326,6.024-15.707,6.024
		c-2.288,0-2.288,3.553,0,3.553c6.83,0,11.706-1.586,17.01-5.981c5.613-4.658,10.285-10.48,10.704-17.981
		C587.089,365.712,583.543,365.724,583.412,368z"/>
	<path fill="#F0D0A7" d="M634.222,292.673c0.001-0.159-0.03-0.984-0.077-1.127c0.936-1.644,0.575-4.284-0.619-5.752
		c0.526-2.501-1.564-5.103-4.877-5.103c-2.32,0-3.684,1.467-4.118,3.2c-2.63-0.294-5.379,0.521-7.449,2.156
		c0.011-3.146-0.024-6.244-0.074-9.238c-0.301-17.999-6.529-32.258-18.825-45.24c-3.044-3.214-6.597-6.569-10.605-8.85
		c0.459-0.929,0.889-1.881,1.256-2.887c3.709-10.174-9.527-14.957-16.306-9.498c-8.127,6.546-16.063,13.22-25.029,18.605
		c-10.022,6.022-21.549,8.632-32.621,11.979c-1.192,0.361-2.382,0.734-3.568,1.129c3.164-3.171,6.355-6.293,9.382-9.476
		c8.669-9.113-5.109-22.941-13.798-13.806c-9.381,9.862-19.099,19.244-27.094,30.319c-2.562,3.546-4.682,7.339-6.525,11.271
		c-0.389-0.025-0.78-0.034-1.167-0.076c-8.579-0.878-11.946,9.904-7.594,15.798c-0.669,0.938-1.163,2.046-1.37,3.353
		c-0.54,3.393-0.602,6.337-0.288,9.538c-0.212,0.993-0.454,1.976-0.598,2.886c-0.07,0.433-0.115,0.861-0.14,1.275
		c-0.351-2.035-0.739-4.065-1.254-6.072c-0.728-2.839-1.798-3.947-4.053-3.143c0.118-1.154,0.367-2.033,0.412-3.22
		c0.26-6.871-12.348-6.847-12.607-0.004c-0.299,7.832-1.982,14.79,2.488,21.853c1.888,2.984,4.788,7.873,8.058,10.572
		c0.47,1.683,2.875,3.685,5.142,3.685c1.702,0,1.833-1.402,2.521-2.508c0.243,2.192-0.048,4.452,0.527,6.613
		c0.498,5.989,0.513,11.659,6.519,14.649c0.149,0.074,0.294,0.109,0.44,0.167c4.586,8.025,9.99,15.578,14.66,23.562
		c4.01,6.854,7.34,13.924,12.216,20.253c10.354,13.424,24.326,14.542,40.246,13.548c7.956-0.497,16.812,0.684,24.618-1.223
		c8.818-2.16,14.106-9.993,19.203-17.062c5.065-7.024,9.773-14.066,14.669-21.187c5.099-7.42,11.171-14.4,14.924-22.657
		c0.868-1.916,1.084-2.443,1.76-4.478c0.209,0.027,0.049-1.992,0.262-1.98c0.6,1.644,2.772,2.747,4.359,1.118
		c0.832-0.853,2.394-1.127,3.035-2.094c0.969-0.662,1.336-1.549,1.901-2.618c0.458,0,0.501-0.746,0.946-1.029
		c0.968-0.618,1.355-1.601,1.738-2.633c0.064-0.171,1.065,0.046,1.125-0.128c1.659-1.434,2.062-3.313,3.499-5.266
		c1.585-2.148,2.735-4.373,3.002-6.752C634.879,301.098,634.132,297.354,634.222,292.673z M464.334,300.255
		c-0.161,0.417-0.271,0.845-0.41,1.27c-0.271-0.68-0.527-1.364-0.767-2.054c-0.09-0.551-0.183-1.104-0.27-1.652
		C463.262,298.714,463.747,299.537,464.334,300.255z"/>
	<path fill="#3C2415" d="M604.485,263.63c-0.43-0.227-0.825-0.49-1.218-0.778c-0.271-0.198-0.591-0.243-0.914-0.224
		c-0.393-0.795-1.949-2.343-3.026-2.477c-2.224-0.277-2.91-0.636-4.987-1.424c-0.709-0.271-0.786-0.395-1.565-0.392
		c0.091-0.548-1.675-1.228-2.389-1.132c-0.536,0.073-1.068,0.114-1.6,0.161c-0.548-0.324-1.092-0.639-1.562-0.76
		c-0.797-0.208-3.849-0.718-4.541-0.163c-3.281,0-4.514,0.431-7.794,0.334c-0.889-0.081-1.778-0.154-2.671-0.212
		c-3.525-0.223-7.988-0.392-10.887,1.944c-0.796,0.24-1.354,0.687-1.721,1.234c-0.699,0.079-1.243,0.596-1.522,1.287
		c-0.169,0.411-0.274,0.837-0.388,1.268c-0.059,0.215-0.123,0.426-0.195,0.642l0,0c0.01-0.041-0.002-0.031-0.028,0.017
		c-0.008,0.003-0.008,0.003-0.016,0.007c-1.456,0.795-2.109,4.386-0.312,4.144c1.059-0.143,3.468-1.346,4.516-1.914
		c0.548,0.166,1.166,0.216,1.846,0.065c7.309-1.618,13.957-0.963,21.344-0.984c1.03-0.004,2.199,0.487,2.765-0.075
		c2.298,1.325,4.585,0.203,7.196,0.282c1.716,0.75,3.353,1.655,5.339,1.901c0.645,0.082,1.166-0.048,1.563-0.31
		c0.318,0.224,0.638,0.431,0.979,0.621C606.317,268.726,606.512,264.696,604.485,263.63z"/>
	<g>
		<path fill="#3C2415" d="M478.375,260.076C478.278,260.155,478.264,260.191,478.375,260.076L478.375,260.076z"/>
		<path fill="#3C2415" d="M523.806,259.263c-1.039-4.749-4.66-4.044-8.717-4.404c-0.061-0.015-0.096-0.053-0.162-0.062
			c-6.811-1.04-13.749-1.498-20.625-1.88c-3.566-0.197-8.489-0.929-11.979,0.589c-0.037-0.014-0.065-0.029-0.101-0.04
			c-1.015-0.276-1.821,0.344-2.18,1.241c-0.265,0.652-1.339,1.237-1.936,1.546c-0.693,0.36-1.63,0.604-2.156,1.22
			c-0.624,0.739-0.724,1.787,0,2.51c0.641,0.643,1.883,0.74,2.51,0c-0.042,0.048-0.058,0.066-0.084,0.095
			c0.038-0.035,0.086-0.07,0.143-0.098c0.252-0.138,0.52-0.258,0.782-0.378c0.265-0.122,0.506-0.274,0.756-0.412
			c0.381,0.384,0.922,0.596,1.611,0.363c5.765-1.935,13.66-0.124,19.632,0.041c7.108,0.203,15.627,2.661,22.507,3.829
			C525.155,263.651,524.114,260.672,523.806,259.263z"/>
	</g>
	<path opacity="0.4" fill="#A97C50" d="M588.881,231.292c-2.024-1.802-4.118-3.521-6.167-5.301c0.65-0.877,0.537-2.437-0.825-2.921
		c0.306,0.109-0.163-0.165-0.017-0.039c-0.089-0.077-0.253-0.236-0.322-0.328c-0.211-0.271-0.396-0.564-0.575-0.858
		c0.011-0.011,0.025-0.014,0.034-0.025c0.256-0.252,0.393-0.609,0.461-0.977c0.324-0.383,0.499-0.89,0.326-1.525
		c-0.13-0.488-0.295-0.961-0.481-1.421c0.816-0.979,1.415-2.011,1.592-3.073c0.218-1.285-0.821-2.121-1.813-2.196
		c-0.501-0.969-1.826-1.536-2.814-0.527c-0.16,0.163-0.311,0.342-0.465,0.511c0.066-0.226,0.156-0.438,0.215-0.67
		c0.558-2.22-2.864-3.162-3.421-0.942c-1.271,5.076-5.779,9.596-10.958,13.468c-3.157,1.215-6.421,2.197-9.643,3.042
		c-1.515,0.396-1.528,2.089-0.687,2.948c-7.098,3.515-14.366,6.301-22.651,4.706c-2.235-0.43-3.188,2.991-0.943,3.424
		c0.086,0.017,0.166,0.023,0.252,0.038c-1.025,0.424-2.013,0.97-2.918,1.764c-0.426,0.372-0.566,0.817-0.535,1.256
		c-3.916,0.354-7.573-0.038-10.398-1.645c-1.994-1.13-3.778,1.938-1.792,3.064c9.646,5.475,25.374-0.376,34.165-4.991
		c3.42-1.794,6.64-3.927,9.794-6.167c1.168-0.602,2.336-1.209,3.51-1.821c3.869-2.004,10.002-3.562,14.389-6.44
		c0.526,0.937,1.1,1.849,1.798,2.722c2.276,2.859,5.664,5.013,8.385,7.437C588.075,235.319,590.594,232.817,588.881,231.292z"/>
	<path opacity="0.4" fill="#A97C50" d="M513.366,221.112c-1.358,2.005-3.404,3.366-5.209,4.927c-1.326,1.15-2.52,2.542-3.584,3.997
		c-0.384,0.038-0.761,0.171-1.018,0.479c-0.563,0.675-1.377,0.814-2.211,0.984c-0.857,0.18-1.343,1.094-1.252,1.927
		c-1.442,0.254-2.871,0.462-4.151,0.562c-1.948,0.156-2.221,2.793-0.811,3.414c-0.68,1.702-2.474,3.063-3.778,4.212
		c-1.477,1.297-3.047,2.427-4.799,3.222c-0.896,0.335-1.826,0.581-2.806,0.688c-2.25,0.249-2.274,3.801,0,3.55
		c0.231-0.024,0.445-0.079,0.669-0.114c0.302,0.104,0.633,0.156,1.021,0.053c1.648-0.444,3.146-1.141,4.55-2.002
		c6.444-3.529,11.161-10.309,18.955-11.644c1.649-0.284,1.565-2.184,0.53-3.032c0.97-0.937,1.793-2.038,2.416-3.217
		c0.221-0.423,0.224-0.94,0.086-1.412c1.621-1.469,3.208-2.96,4.458-4.802C517.718,221.005,514.643,219.231,513.366,221.112z"/>
	<path opacity="0.4" fill="#A97C50" d="M545.928,282.387c-0.482,0.088-0.945-0.007-1.404-0.169c0.305-0.378,0.371-1.021-0.132-1.403
		c-1.124-0.864-2.188-1.113-3.185-0.976c-0.105-0.035-0.227-0.048-0.366-0.035c-3.712,0.417-4.874,1.53-6.607,4.879
		c-2.187,4.219-4.73,8.183-6.444,12.637c-0.121,0.313-0.047,0.568,0.118,0.751c-0.214,0.274-1.565-0.529-1.414-0.273
		c-0.849,1.118-0.413,3.238-1.426,4.124c-0.686,0.389-1.379,0.759-2.081,1.079c-0.326,0.154-0.444,0.41-0.444,0.672
		c-2.739,1.538-6.079,2.229-10.401,1.569c-1.121-0.171-1.6,1.538-0.473,1.71c6.368,0.973,11.435-0.523,15.526-4.284
		c2.611-1.755,4.781-3.992,6.471-6.793c2.903-4.815,3.239-14.474,11.606-10.532c0.887,0.418,1.672-0.657,1.211-1.272
		C547.48,283.787,547.01,282.198,545.928,282.387z"/>
	<path opacity="0.4" fill="#A97C50" d="M614.628,282.707c-0.236-0.347-0.688-0.572-1.174-0.34c-1.25,0.599-3.098,0.184-3.48,1.473
		c-1.856,3.267-0.955,10.108-1.916,12.812c-0.246,0.693-1.641,1.572-1.067,1.52c-1.301,2.616-1.491,4.859-3.954,4.597
		c-0.541-0.056-0.814,0.318-0.839,0.737c-5.058,3-10.131,2.906-15.571,3.711c0.288-0.103,3.616,0.508,3.899,0.382
		c1.043-0.471-2.867-0.846-3.899-0.382c-3.363,1.514-6.067-0.069-9.625,0.025c-2.831,0.076-7.311,1.624-9.511-0.717
		c-0.668-0.71-4.201-1.299-4.003-0.531c-4.932-1.501-7.954-2.39-9.93-7.566c-0.403-1.058-2.118-0.599-1.708,0.473
		c3.429,8.982,11.735,10.925,20.475,12.048c11.199,1.434,21.671,0.713,31.323-5.164c0.096-0.059,1.667-1.063,1.729-1.141
		c3.497-2.43,4.549-4.515,5.644-7.229c0.886-2.201,0.622-6.964,1.377-10.265c0.521-1.296,1.264-2.435,2.406-2.718
		C615.805,284.184,615.515,282.775,614.628,282.707z"/>
	<path opacity="0.4" fill="#A97C50" d="M542.949,331.57c-0.084,0.01-0.678-0.005-0.75,0.049c-0.244-0.171-1.8-0.392-2.134-0.203
		c-1.143,0.655-2.502,0.088-5.113,0.04c-0.92-0.167-1.758-0.428-2.394-0.776c-0.45-0.246-0.869-0.064-1.113,0.251
		c-1.862-0.62-3.097-1.83-2.664-3.936c0.227-1.117-1.252-2.412-1.466-1.289c-1.329,6.959,3.586,7.52,8.295,7.536
		c0.815,0.045,1.645,0.036,2.508-0.033c2.027-0.155,4.622-0.39,6.213-1.725C544.332,331.484,543.769,331.463,542.949,331.57z"/>
	<path fill="none" stroke="#F0D0A7" stroke-miterlimit="10" d="M625.386,282.38c0,0,6.697-5.57,8.14,3.414
		c0,0,2.991,15.865-3.437,25.629c0,0-5.322,7.986-9.203,11.425c0,0-4.772,6.938-7.765,1.641"/>
	<path fill="none" stroke="#F0D0A7" stroke-miterlimit="10" d="M463.26,304.644c0,0-0.332,16.651,0,18.093
		c0,0,1.084,6.989,6.295,12.979c2.126,3.468,6.071,8.741,8.203,12.204c3.805,6.185,6.399,10.68,10.2,16.861
		c2.997,4.878,6.735,10.088,10.532,14.423c3.408,3.893,6.57,6.794,11.098,9.307c3.182,1.771,6.685,3.218,10.228,4.057
		c3.82,0.909,8.092,0.53,12.001,0.663c7.507,0.261,15.154,0.038,22.652-0.372c3.28-0.176,7.038-0.56,10.129-1.746
		c3.527-1.356,6.771-5.128,9.339-7.782c3.026-3.135,5.774-6.533,8.374-10.026c1.467-1.972,2.882-3.986,4.273-6.016
		c5.363-7.82,10.688-15.667,16.029-23.501c1.527-2.24,3.105-4.446,4.736-6.611c3.542-4.687,6.313-11.856,6.441-17.767
		c0.069-3.071,1.704-11.686,0.987-14.766"/>
	<path fill="none" stroke="#F0D0A7" stroke-miterlimit="10" d="M454.652,275.987c0,0-11.715-3.52-10.707,9.253
		c-0.135,2.469-0.074,4.985,0.133,7.444c0.284,3.371,1.517,7.957,3.892,10.903c5.036,6.242,5.387,8.533,9.168,11.827
		c0,0,3.658,4.548,5.987-1.107"/>
	<path fill="none" stroke="#3C2415" stroke-miterlimit="10" d="M556.527,265.831c0.195-1.315,0.473-3.035,0.594-3.318
		c0.656-1.542,1.715-2.923,3.094-3.887c4.992-3.49,12.779-2.354,18.503-2.399c5.172-0.037,10.494,0.424,15.465,1.902
		c2.688,0.795,5.317,1.944,7.683,3.458c2.488,1.592,3.673,4.633,5.021,7.139c-2.733-2.315-7.317-2.889-10.664-3.482
		c-8.399-1.493-17.066-1.546-25.545-0.776c-4.323,0.392-8.683,0.938-12.809,2.338l-1.368,0.576L556.527,265.831z"/>
	<path fill="none" stroke="#3C2415" stroke-miterlimit="10" d="M474.105,260.812c0,0,25.9-5.562,49.701,3.162c0,0,0-4.688,0-4.712
		c0-4.782-8.571-4.716-11.774-5.109c-6.169-0.751-12.41-1.234-18.622-1.399c-1.775-0.049-3.551-0.083-5.323-0.032
		c-0.826,0.021-6.596,0.14-7.177,0.709C480.908,253.434,474.105,260.812,474.105,260.812z"/>
	<path fill="none" stroke="#000000" stroke-miterlimit="10" d="M556.314,267.381"/>
	<g>
		<path fill="#C49A6C" d="M540.619,290.454c0,0-0.007,0.953-0.02,2.621c-0.044,0.835-0.099,1.849-0.16,3.012
			c-0.14,1.155-0.198,2.477-0.477,3.888c-0.131,0.706-0.227,1.45-0.402,2.206c-0.181,0.756-0.368,1.537-0.56,2.34
			c-0.233,0.792-0.504,1.599-0.766,2.428c-0.256,0.832-0.668,1.628-1.007,2.467c-0.166,0.422-0.369,0.831-0.602,1.229
			c-0.222,0.404-0.445,0.811-0.67,1.221c-0.424,0.84-0.981,1.593-1.525,2.381c-1.099,1.531-2.24,3.046-3.249,4.632
			c-1.021,1.569-1.95,3.219-2.392,4.957l-0.158,0.648l-0.072,0.653c-0.081,0.436-0.004,0.861,0,1.289
			c0.076,0.415,0.15,0.836,0.297,1.226l0.254,0.572c0.042,0.085,0.085,0.216,0.124,0.262l0.183,0.281
			c0.901,1.343,2.59,1.903,4.139,2.146c1.582,0.23,3.139,0.272,4.563,0.362c1.43,0.096,2.727,0.102,3.885,0.139
			c1.154-0.012,2.164-0.057,2.995-0.088c1.657-0.17,2.604-0.267,2.604-0.267s-0.94,0.167-2.585,0.461
			c-0.831,0.08-1.843,0.186-3.006,0.266c-1.164,0.036-2.488,0.107-3.913,0.052c-1.429-0.039-2.975-0.021-4.644-0.202
			c-0.832-0.103-1.697-0.275-2.542-0.632c-0.844-0.348-1.657-0.933-2.221-1.759l-0.186-0.279c-0.095-0.135-0.114-0.226-0.175-0.341
			l-0.303-0.663c-0.176-0.451-0.273-0.942-0.363-1.424c-0.018-0.489-0.101-0.989-0.021-1.476l0.075-0.737l0.165-0.717
			c0.467-1.915,1.424-3.645,2.457-5.271c1.057-1.616,2.229-3.134,3.334-4.637c0.529-0.748,1.093-1.49,1.506-2.291
			c0.222-0.395,0.443-0.785,0.663-1.174c0.231-0.383,0.433-0.777,0.599-1.187c0.343-0.811,0.739-1.584,1.026-2.383
			c0.283-0.801,0.578-1.58,0.834-2.349c0.217-0.782,0.428-1.544,0.632-2.28c0.2-0.737,0.32-1.469,0.475-2.162
			c0.161-0.692,0.269-1.365,0.364-2.007c0.104-0.641,0.203-1.248,0.296-1.819c0.129-1.151,0.242-2.154,0.335-2.981
			C540.541,291.404,540.619,290.454,540.619,290.454z"/>
	</g>
	<g>
		<path fill="#C49A6C" d="M509.8,344.813c0,0,0.809,0.449,2.292,1.074c0.73,0.338,1.648,0.679,2.686,1.099
			c1.061,0.364,2.232,0.835,3.547,1.248c0.655,0.213,1.336,0.436,2.042,0.666c0.714,0.2,1.453,0.406,2.212,0.619
			c1.508,0.462,3.15,0.752,4.811,1.189c0.843,0.163,1.701,0.329,2.569,0.496c0.868,0.165,1.744,0.349,2.641,0.447
			c1.788,0.237,3.599,0.515,5.429,0.601c0.912,0.074,1.825,0.149,2.733,0.224c0.911,0.017,1.819,0.034,2.72,0.051
			c1.804,0.086,3.573-0.038,5.288-0.133c1.719-0.045,3.362-0.275,4.928-0.459c0.782-0.093,1.543-0.184,2.279-0.271
			c0.727-0.147,1.43-0.289,2.104-0.426c1.344-0.293,2.598-0.482,3.683-0.754c1.079-0.304,2.019-0.568,2.793-0.787
			c1.557-0.426,2.446-0.669,2.446-0.669s-0.868,0.311-2.387,0.854c-0.764,0.267-1.691,0.59-2.754,0.961
			c-1.073,0.343-2.317,0.61-3.664,0.945c-0.676,0.163-1.379,0.333-2.107,0.509c-0.739,0.116-1.504,0.236-2.289,0.36
			c-1.574,0.243-3.23,0.552-4.972,0.603c-1.734,0.116-3.527,0.264-5.354,0.199c-0.912-0.006-1.832-0.012-2.757-0.018
			c-0.921-0.064-1.846-0.129-2.771-0.194c-1.854-0.109-3.685-0.413-5.49-0.676c-0.907-0.111-1.791-0.307-2.667-0.484
			c-0.875-0.181-1.74-0.358-2.591-0.534c-1.679-0.445-3.318-0.817-4.823-1.337c-0.757-0.243-1.494-0.479-2.207-0.707
			c-0.702-0.259-1.381-0.508-2.032-0.747c-1.312-0.453-2.463-1.003-3.502-1.435c-1.018-0.485-1.915-0.882-2.627-1.266
			C510.562,345.338,509.8,344.813,509.8,344.813z"/>
	</g>
	<path fill="#3C2415" stroke="#3C2415" stroke-miterlimit="10" d="M547.604,150.676c0,0,18.848,3.993,19.4,18.637
		c0,0,8.096-17.306,25.832-13.312c0,0-15.521-8.875-19.955-5.325c0,0-11.086-11.538-21.285-9.318c0,0,10.644,2.662,12.859,8.876
		C564.455,150.233,554.697,147.126,547.604,150.676z"/>
	<g>
		<path fill="#3C2415" d="M528.057,148.457c0,0-2.958,0.243-7.311,1.049c-2.18,0.378-4.691,0.976-7.351,1.698
			c-1.331,0.359-2.69,0.783-4.056,1.255c-1.36,0.486-2.736,1-4.069,1.607c-1.353,0.563-2.664,1.217-3.935,1.894
			c-0.627,0.352-1.244,0.714-1.848,1.076c-0.585,0.393-1.185,0.751-1.736,1.156c-1.108,0.803-2.163,1.606-3.095,2.448
			c-0.943,0.83-1.765,1.691-2.485,2.519c-0.349,0.425-0.683,0.832-1,1.219c-0.293,0.407-0.572,0.793-0.834,1.155
			c-0.521,0.729-0.884,1.424-1.231,1.969c-0.588,1.152-0.924,1.811-0.924,1.811s0.258-0.691,0.75-1.898
			c0.306-0.571,0.621-1.303,1.091-2.08c0.238-0.389,0.491-0.802,0.757-1.237c0.292-0.419,0.623-0.842,0.956-1.294
			c1.388-1.759,3.233-3.66,5.509-5.314c0.56-0.425,1.167-0.802,1.762-1.213c0.613-0.381,1.238-0.761,1.875-1.131
			c1.29-0.712,2.619-1.402,3.991-1.994c1.37-0.599,2.778-1.101,4.167-1.573c1.395-0.458,2.78-0.866,4.134-1.211
			c1.349-0.36,2.674-0.621,3.931-0.853c1.257-0.23,2.451-0.414,3.556-0.562c2.208-0.299,4.064-0.398,5.359-0.464
			C527.315,148.435,528.057,148.457,528.057,148.457z"/>
	</g>
	<g>
		<path fill="#3C2415" d="M535.186,158.886c0,0-0.76,0.389-2.09,1.068c-1.333,0.673-3.209,1.689-5.462,2.896
			c-2.256,1.203-4.839,2.695-7.594,4.307c-2.753,1.613-5.643,3.414-8.441,5.342c-1.411,0.946-2.797,1.928-4.137,2.926
			c-1.329,1.011-2.621,2.028-3.816,3.074c-0.599,0.521-1.184,1.039-1.737,1.563c-0.566,0.514-1.105,1.03-1.605,1.558
			c-1.025,1.03-1.916,2.079-2.673,3.092c-0.755,1.015-1.379,1.996-1.85,2.909c-0.269,0.443-0.417,0.902-0.594,1.311
			c-0.082,0.207-0.171,0.403-0.238,0.596c-0.053,0.197-0.103,0.386-0.15,0.563c-0.087,0.359-0.198,0.676-0.243,0.96
			c-0.036,0.286-0.066,0.53-0.091,0.728c-0.05,0.397-0.076,0.609-0.076,0.609s0.008-0.213,0.022-0.613
			c0.007-0.201,0.016-0.449,0.026-0.741c0.018-0.291,0.106-0.617,0.172-0.987c0.037-0.186,0.075-0.381,0.116-0.585
			c0.056-0.2,0.132-0.404,0.202-0.621c0.153-0.427,0.275-0.911,0.518-1.378c0.416-0.967,0.988-2.015,1.729-3.076
			c0.732-1.067,1.599-2.175,2.599-3.265c0.979-1.111,2.095-2.205,3.301-3.273c1.2-1.078,2.493-2.125,3.824-3.165
			c1.342-1.026,2.727-2.039,4.141-3.01c2.849-1.907,5.781-3.681,8.57-5.266c2.789-1.587,5.47-2.923,7.77-4.055
			c2.302-1.131,4.267-1.973,5.636-2.573C534.387,159.19,535.186,158.886,535.186,158.886z"/>
	</g>
	<g>
		<path fill="#3C2415" d="M544.942,163.989c0,0-0.464,0.171-1.274,0.471c-0.813,0.288-1.958,0.749-3.337,1.274
			c-1.379,0.524-2.964,1.197-4.654,1.922c-1.688,0.732-3.473,1.543-5.209,2.441c-1.747,0.879-3.443,1.85-4.972,2.847
			c-0.755,0.512-1.48,1.012-2.141,1.524c-0.656,0.517-1.252,1.034-1.769,1.547c-0.515,0.515-0.957,1.014-1.335,1.471
			c-0.356,0.473-0.659,0.895-0.861,1.272c-0.231,0.362-0.356,0.676-0.46,0.883c-0.1,0.21-0.153,0.321-0.153,0.321
			s0.036-0.118,0.102-0.34c0.075-0.219,0.139-0.562,0.337-0.952c0.163-0.407,0.418-0.871,0.73-1.398
			c0.33-0.514,0.727-1.082,1.229-1.643c0.496-0.565,1.073-1.142,1.711-1.721c0.642-0.573,1.346-1.148,2.11-1.69
			c1.521-1.096,3.25-2.099,5.017-3.012c1.777-0.895,3.593-1.701,5.331-2.364c1.733-0.674,3.389-1.194,4.805-1.638
			s2.625-0.72,3.464-0.931C544.455,164.075,544.942,163.989,544.942,163.989z"/>
	</g>
	<g>
		<path fill="#3C2415" d="M467.781,200.819c0,0-0.273,0.63-0.752,1.731c-0.49,1.097-1.112,2.695-1.884,4.599
			c-0.364,0.96-0.79,1.988-1.177,3.099c-0.407,1.104-0.815,2.274-1.229,3.487c-0.438,1.205-0.809,2.477-1.227,3.755
			c-0.419,1.277-0.758,2.601-1.145,3.91c-0.342,1.32-0.688,2.642-0.994,3.948c-0.251,1.318-0.588,2.6-0.791,3.861
			c-0.18,1.264-0.454,2.476-0.577,3.641c-0.121,1.164-0.276,2.266-0.346,3.286c-0.035,1.021-0.087,1.959-0.136,2.793
			c-0.06,0.833,0.022,1.558,0.021,2.157c0.023,1.202,0.036,1.889,0.036,1.889s-0.083-0.682-0.23-1.875
			c-0.048-0.6-0.191-1.326-0.199-2.166c-0.024-0.839-0.05-1.787-0.054-2.824c0.019-1.034,0.12-2.151,0.183-3.338
			c0.066-1.187,0.271-2.422,0.434-3.707c0.181-1.282,0.462-2.591,0.717-3.926c0.299-1.325,0.635-2.664,0.972-4.002
			c0.401-1.319,0.755-2.654,1.19-3.939c0.425-1.289,0.853-2.554,1.318-3.759c0.436-1.217,0.917-2.368,1.38-3.458
			c0.445-1.096,0.925-2.107,1.337-3.053C466.362,203.18,467.781,200.819,467.781,200.819z"/>
	</g>
	<g>
		<path fill="#3C2415" d="M556.314,175.637c0,0-0.288,0.841-0.836,2.297c-0.56,1.451-1.334,3.536-2.362,5.996
			c-1.032,2.459-2.226,5.334-3.629,8.359c-1.401,3.026-2.944,6.233-4.564,9.404c-1.656,3.151-3.4,6.259-5.143,9.111
			c-0.866,1.429-1.755,2.779-2.636,4.035c-0.875,1.259-1.732,2.429-2.575,3.471c-0.412,0.528-0.818,1.025-1.229,1.478
			c-0.399,0.463-0.792,0.888-1.181,1.271c-0.749,0.79-1.47,1.415-2.071,1.91c-0.61,0.491-1.115,0.838-1.483,1.039
			c-0.357,0.215-0.547,0.33-0.547,0.33s0.18-0.131,0.517-0.376c0.166-0.125,0.38-0.265,0.612-0.456
			c0.225-0.199,0.484-0.429,0.774-0.685c0.563-0.528,1.234-1.188,1.924-2.015c0.358-0.401,0.72-0.845,1.085-1.327
			c0.378-0.471,0.768-0.971,1.153-1.511c0.792-1.062,1.597-2.254,2.416-3.535c0.825-1.276,1.643-2.656,2.499-4.077
			c1.695-2.853,3.387-5.968,5-9.124c1.652-3.135,3.23-6.312,4.666-9.312c1.434-3.001,2.793-5.794,3.9-8.216
			C554.83,178.864,556.314,175.637,556.314,175.637z"/>
	</g>
	<g>
		<path fill="#3C2415" d="M583.523,169.312c0,0,0.401,0.31,1.055,0.91c0.644,0.608,1.571,1.479,2.57,2.631
			c0.997,1.152,2.125,2.537,3.177,4.138c0.521,0.803,1.047,1.644,1.514,2.537c0.476,0.889,0.916,1.815,1.308,2.765
			c0.388,0.951,0.711,1.93,0.982,2.906c0.261,0.979,0.455,1.961,0.565,2.922c0.061,0.479,0.115,0.952,0.117,1.419
			c0.027,0.465,0.023,0.92-0.001,1.362c-0.004,0.443-0.038,0.872-0.093,1.285c-0.04,0.414-0.087,0.812-0.17,1.189
			c-0.113,0.763-0.33,1.437-0.509,2.032c-0.206,0.587-0.411,1.09-0.575,1.501c-0.399,0.793-0.628,1.246-0.628,1.246
			s0.162-0.478,0.445-1.314c0.117-0.424,0.263-0.938,0.398-1.53c0.105-0.602,0.241-1.272,0.312-2.015
			c0.055-0.369,0.074-0.757,0.085-1.157c0.025-0.4,0.03-0.813,0.005-1.239c-0.005-0.426-0.031-0.861-0.088-1.305
			c-0.039-0.443-0.092-0.896-0.171-1.353c-0.13-0.917-0.373-1.846-0.624-2.785c-0.271-0.936-0.595-1.873-0.977-2.788
			c-0.744-1.84-1.671-3.608-2.639-5.21c-0.976-1.597-1.951-3.059-2.869-4.252C584.906,170.797,583.523,169.312,583.523,169.312z"/>
	</g>
	<g>
		<path fill="#3C2415" d="M592.836,163.989c0,0,0.524,0.408,1.389,1.187c0.853,0.787,2.082,1.911,3.438,3.376
			c1.351,1.467,2.899,3.213,4.405,5.211c0.741,1.006,1.511,2.046,2.221,3.153c0.726,1.095,1.409,2.244,2.07,3.406
			c0.644,1.172,1.244,2.368,1.787,3.569c0.541,1.202,1.014,2.412,1.413,3.603c0.412,1.186,0.733,2.36,0.975,3.485
			c0.261,1.121,0.429,2.198,0.552,3.192c0.049,0.5,0.116,0.976,0.143,1.432c0.014,0.457,0.026,0.89,0.039,1.297
			c0.019,0.812-0.038,1.521-0.047,2.103c-0.116,1.16-0.201,1.816-0.201,1.816s0.002-0.662,0.006-1.821
			c-0.039-0.578-0.044-1.279-0.13-2.078c-0.083-0.799-0.196-1.695-0.366-2.666c-0.172-0.969-0.391-2.015-0.703-3.098
			c-0.139-0.546-0.315-1.098-0.505-1.658c-0.177-0.564-0.377-1.134-0.592-1.71c-0.414-1.157-0.932-2.318-1.461-3.495
			c-0.542-1.172-1.144-2.339-1.783-3.485c-1.269-2.3-2.705-4.508-4.126-6.526c-1.436-2.009-2.84-3.844-4.116-5.358
			c-1.278-1.513-2.36-2.767-3.154-3.609C593.301,164.463,592.836,163.989,592.836,163.989z"/>
	</g>
	<g>
		<path fill="#3C2415" d="M599.489,148.457c0,0,0.466,0.234,1.245,0.712c0.771,0.485,1.881,1.181,3.121,2.142
			c0.622,0.478,1.283,1.013,1.967,1.599c0.68,0.59,1.396,1.219,2.08,1.927c1.399,1.386,2.758,3.007,3.942,4.758
			c0.594,0.875,1.112,1.8,1.598,2.723c0.465,0.935,0.858,1.888,1.168,2.833c0.316,0.944,0.543,1.885,0.67,2.788
			c0.15,0.898,0.203,1.763,0.205,2.555c0.021,0.794-0.07,1.517-0.154,2.152c-0.099,0.633-0.232,1.176-0.324,1.623
			c-0.276,0.871-0.435,1.369-0.435,1.369s0.089-0.512,0.244-1.407c0.042-0.451,0.115-0.995,0.144-1.621
			c0.012-0.628,0.021-1.331-0.037-2.097c-0.053-0.763-0.158-1.588-0.359-2.439c-0.179-0.855-0.463-1.735-0.784-2.632
			c-0.32-0.897-0.751-1.786-1.196-2.684c-0.477-0.882-0.986-1.767-1.568-2.606c-0.554-0.859-1.179-1.672-1.806-2.462
			c-0.642-0.778-1.278-1.543-1.94-2.244c-1.312-1.411-2.598-2.685-3.77-3.701C601.183,149.679,599.489,148.457,599.489,148.457z"/>
	</g>
	<g>
		<path fill="#C49A6C" d="M450.597,286.691c0,0,0.089,1.092,0.223,2.729c0.061,0.813,0.131,1.762,0.207,2.778
			c0.084,1.013,0.167,2.091,0.288,3.163c0.066,0.534,0.104,1.074,0.189,1.596c0.09,0.521,0.126,1.044,0.234,1.533
			c0.094,0.493,0.165,0.977,0.283,1.418c0.101,0.449,0.201,0.872,0.334,1.248c0.114,0.386,0.226,0.735,0.369,1.026
			c0.133,0.295,0.225,0.577,0.373,0.758c0.257,0.392,0.402,0.636,0.402,0.636s-0.204-0.176-0.558-0.519
			c-0.195-0.161-0.34-0.417-0.543-0.694c-0.096-0.142-0.209-0.289-0.31-0.453c-0.084-0.172-0.173-0.352-0.266-0.54
			c-0.2-0.375-0.371-0.796-0.518-1.253c-0.174-0.451-0.307-0.937-0.428-1.444c-0.265-1.011-0.42-2.109-0.556-3.206
			c-0.103-1.1-0.171-2.2-0.171-3.232c-0.004-1.031,0.03-1.993,0.099-2.815c0.054-0.822,0.164-1.504,0.221-1.98
			C450.538,286.961,450.597,286.691,450.597,286.691z"/>
	</g>
	<g>
		<path fill="#C49A6C" d="M626.874,292.673c0,0,0.172,0.268,0.412,0.77c0.24,0.501,0.563,1.229,0.866,2.141
			c0.134,0.459,0.298,0.955,0.407,1.495c0.112,0.54,0.245,1.109,0.292,1.715c0.086,0.599,0.107,1.228,0.106,1.867
			c0.004,0.639-0.09,1.29-0.154,1.938l-0.223,0.957c-0.062,0.321-0.152,0.634-0.283,0.933c-0.219,0.611-0.464,1.199-0.812,1.715
			c-0.159,0.263-0.316,0.521-0.47,0.774c-0.196,0.222-0.388,0.439-0.574,0.651c-0.187,0.208-0.368,0.412-0.544,0.608
			c-0.192,0.178-0.405,0.322-0.594,0.475c-0.389,0.292-0.727,0.581-1.068,0.77c-0.349,0.177-0.652,0.33-0.902,0.457
			c-0.499,0.247-0.786,0.373-0.786,0.373s0.248-0.206,0.685-0.54c0.218-0.164,0.482-0.363,0.786-0.592
			c0.291-0.24,0.562-0.577,0.897-0.891c0.158-0.166,0.339-0.324,0.497-0.512c0.145-0.199,0.294-0.405,0.448-0.617
			c0.153-0.209,0.311-0.424,0.473-0.644c0.125-0.242,0.253-0.489,0.383-0.74c0.12-0.255,0.288-0.491,0.376-0.77
			c0.092-0.276,0.188-0.553,0.291-0.83c0.115-0.272,0.193-0.561,0.244-0.858l0.189-0.883c0.069-0.6,0.17-1.201,0.176-1.801
			c0.005-0.6,0.041-1.191-0.017-1.767c-0.046-1.151-0.229-2.222-0.378-3.144c-0.105-0.454-0.163-0.883-0.257-1.253
			c-0.083-0.372-0.161-0.697-0.237-0.962C626.958,292.978,626.874,292.673,626.874,292.673z"/>
	</g>
	<path fill="none" stroke="#000000" stroke-miterlimit="10" d="M489.846,367.739"/>
	<g>
		<path fill="#46A061" d="M613.185,277.137c-0.105-1.075,0.268-2.135-0.559-2.979c-0.817-0.834-1.994-1.112-3.258-1.114
			c-3.218-1.43-7.038-1.819-10.41-2.487c-1.968-0.393-3.958-0.71-5.962-0.854c-2.247-0.163-4.768-0.146-6.958-0.646
			c-0.229-0.052-0.436-0.033-0.62,0.028c-0.257-0.054-0.534-0.023-0.772,0.086c-0.025-0.006-0.044-0.015-0.072-0.02
			c-2.746-0.484-5.766-0.194-8.557-0.239c-3.378-0.057-6.741,0.143-10.097,0.532c-3.189,0.369-6.365,0.856-9.542,1.299
			c-1.374,0.193-2.738,0.412-4.073,0.789c-0.443,0.069-0.89,0.143-1.338,0.225c-1.488,0.277-2.764,1.284-4.017,2.087
			c-0.124,0.08-0.224,0.173-0.306,0.273c-2.314-0.471-5.408,0.224-7.18,0.257c-2.715,0.051-5.126-1.076-7.533-2.242
			c-1.118-1.008-2.407-1.365-3.788-1.686c-0.078-0.027-0.158-0.059-0.237-0.086c-1.925-0.666-3.958-0.891-5.937-1.334
			c-2.287-0.514-4.54-1.166-6.84-1.621c-0.459-0.093-0.833,0.075-1.082,0.351c-2.157-0.384-4.325-0.682-6.48-0.838
			c-0.101-0.036-0.212-0.064-0.335-0.071c-0.332-0.02-0.665-0.029-0.996-0.041c-0.174-0.149-0.408-0.246-0.703-0.246
			c-6.66,0.01-13.557-0.782-20.19,0.136c-3.292,0.458-6.595,0.959-9.915,1.175c-0.734,0.05-1.455,0.207-2.028,0.5
			c-0.178-0.094-0.332-0.156-0.417-0.156c-0.282,0-0.639,0.095-0.883,0.235c-0.878,0.513-1.81,0.531-2.797,0.655
			c-0.882,0.108-1.614,0.438-2.313,0.884c-0.501-0.163-1.117-0.024-1.354,0.486c-0.585,1.254-0.356,2.627-0.498,3.968
			c-0.057,0.55-0.11,1.048-0.073,1.484c-0.237,0.429-0.177,0.988,0.183,1.349c0.302,0.305,0.742,0.392,1.13,0.277
			c0.02,0.006,0.038,0.012,0.059,0.021c0.207,0.073,0.389,0.161,0.56,0.256c0.179,0.249,0.385,0.415,0.663,0.625
			c0.336,0.26,0.499,0.531,0.679,0.851c0.418,0.95,0.505,2.109,0.768,3.23c0.59,2.513,0.7,5.098,1.273,7.602
			c0.032,0.135,0.078,0.25,0.133,0.35c-0.138,1.113,0.151,2.225,0.524,3.366c0.258,0.792,0.49,1.586,0.736,2.382
			c0.209,0.677,0.652,1.231,1.03,1.813c-0.011,0.074-0.017,0.155-0.009,0.237c0.028,0.342,0.103,0.644,0.226,0.895
			c-0.047,0.235-0.01,0.495,0.163,0.764c0.72,1.105,1.617,1.68,2.793,2.161c0.817,0.639,1.759,1.142,2.838,1.521
			c0.25,0.088,0.492,0.066,0.706-0.022c0.699,0.27,1.414,0.497,2.16,0.632c4.453,0.798,8.789,1.458,13.319,1.707
			c4.688,0.252,9.392,0.452,14.085,0.379c3.674-0.053,8.226,0.196,11.598-1.485c0.218-0.109,0.363-0.256,0.457-0.42
			c1.333-0.707,2.589-1.566,3.591-2.674c0.9-0.995,1.532-2.23,2.292-3.332c0.884-1.283,1.719-2.551,2.424-3.944
			c0.744-1.478,1.394-2.969,1.95-4.482c0.131-0.087,0.251-0.21,0.356-0.38c0.791-1.29,1.373-2.661,1.84-4.082
			c0.282-0.582,0.576-1.159,0.896-1.724c0.565-0.999,0.699-2.199,1.497-3.07c0.734-0.8,2.357-1.077,3.357-1.345
			c2.517-0.678,5.049-0.316,6.354,2.056c0.482,0.878,0.783,1.601,0.991,2.577c0.12,0.546,0.323,0.945,0.704,1.252
			c0.033,0.035,0.059,0.071,0.09,0.105c-0.035,0.147-0.043,0.305-0.014,0.469c0.174,0.938,0.723,1.724,0.92,2.646
			c0.191,0.89,0.238,1.734,0.799,2.487c0.096,0.129,0.205,0.223,0.324,0.299c0.333,1.143,0.796,2.243,1.286,3.332
			c1.31,2.913,2.685,5.785,4.848,8.156c2.16,2.369,4.597,3.184,7.681,3.69c3.549,0.582,7.029,1.121,10.627,1.312
			c6.878,0.372,14.046,0.823,20.894-0.127c5.615-0.776,9.924-3.762,11.302-9.336c0.057-0.196,0.098-0.388,0.137-0.579
			c0.37-0.233,0.673-0.604,0.778-1.003c0.388-1.469,0.418-3.079,0.695-4.577c0.391-2.112,0.91-4.196,1.32-6.3
			c0.452-2.334,1.485-3.232,3.417-4.426c0.473-0.29,0.616-0.819,0.495-1.272C613.28,279.177,613.296,278.248,613.185,277.137z
			 M527.765,292.742c-0.985,2.223-2.489,4.103-3.767,6.156c-1.003,1.614-2.463,2.749-4.1,3.619
			c-0.216-0.031-0.449,0.003-0.688,0.126c-1.28,0.657-2.855,0.431-4.211,0.878c-0.192,0.062-0.345,0.16-0.462,0.278
			c-1.818,0.1-3.632,0.217-5.453,0.259c-4.205,0.096-8.414-0.124-12.615-0.312c-3.886-0.176-7.865-0.337-11.672-1.203
			c-1.754-0.396-3.52-0.561-5.158-1.347c-0.025-0.013-0.051-0.024-0.077-0.034c-2.097-0.848-2.717-1.576-3.533-2.694
			c-1.7-2.327-1.989-5.37-2.744-8.096c-0.063-0.33-0.141-0.654-0.25-0.979c-0.005-0.015-0.013-0.025-0.017-0.038
			c0.336-1.228,0.069-2.706-0.154-4.072c0.024-0.108,0.038-0.225,0.022-0.357c-0.035-0.309-0.072-0.594-0.119-0.881
			c0.139-0.225,0.2-0.508,0.126-0.838c-0.408-1.763,0.004-4.079,0.282-5.862c0.06-0.367,0.137-1.039,0.286-1.745
			c0.612-0.981,1.114-2.011,1.971-2.808c0.055-0.051,0.106-0.105,0.146-0.158c0.275-0.054,1.71-1.122,1.933-1.258
			c2.761-1.651,4.761-1.324,7.944-1.571c3.542-0.276,7.111-0.408,10.664-0.534c2.83-0.1,5.722-0.269,8.578-0.24
			c0.083,0.02,0.174,0.033,0.27,0.034c4.999,0.072,9.873,1.299,14.757,2.233c4.05,0.776,11.715,1.709,11.662,7.137
			C531.334,283.585,529.837,288.062,527.765,292.742z M605.735,287.258c0.034,0.157,0.102,0.293,0.191,0.403
			c-0.229,1.615-0.586,3.215-0.948,4.799c-0.231,1.009-0.312,2.031-0.616,3.022c-0.131,0.441-0.236,0.878-0.173,1.32
			c-0.028,0.062-0.049,0.123-0.06,0.191c-0.004,0.021-0.01,0.043-0.015,0.062c-0.64,0.752-1.23,1.475-1.33,2.485
			c-0.115,0.093-0.214,0.219-0.286,0.392c-0.041,0.093-0.076,0.181-0.115,0.271l0,0c0,0.003-0.003,0.005-0.003,0.007
			c-0.059,0.141-0.114,0.279-0.167,0.423c-0.525,0.978-2.023,2.639-2.84,3.134c-0.805,0.022-1.437,0.336-2.104,0.656
			c-1.213-0.035-2.3,0.625-3.54,0.713c-1.919,0.142-3.943,0.197-5.833,0.581c-0.145-0.07-0.312-0.112-0.512-0.112
			c-0.079,0-0.153,0.008-0.224,0.021c-0.192,0.027-0.37,0.106-0.524,0.232c-4.708,0.066-9.443-0.147-14.113-0.439
			c-3.291-0.204-6.502-0.79-9.748-1.342c-3.22-0.55-5.341-2.292-7.149-4.96c-1.658-2.443-3.095-5.613-3.935-8.431
			c-0.411-1.377-0.482-2.825-0.891-4.2c-0.108-0.365-0.268-0.71-0.462-1.04c-0.012-0.26-0.07-0.521-0.174-0.774
			c-0.359-0.882-0.34-1.895-0.561-2.817c-0.003-0.814-0.011-1.634,0.063-2.443c0.003-0.025,0.003-0.045,0.007-0.068
			c0.105-0.118,0.198-0.261,0.258-0.44c0.087-2.708,1.113-2.945,2.173-4.09c0.509-0.214,1.086-0.311,1.579-0.557
			c0.512-0.252,1.025-0.588,1.564-0.84c0.148,0.066,0.322,0.103,0.527,0.086c2.542-0.194,5.021-0.881,7.571-1.125
			c2.765-0.262,5.494-0.65,8.273-0.776c2.729-0.124,5.423-0.036,8.146,0.117c2.697,0.153,5.394-0.064,8.093,0.18
			c0.14,0.012,0.264-0.001,0.376-0.031c0.06,0.014,0.121,0.028,0.19,0.031c0.211,0.014,0.426,0.027,0.639,0.036
			c0.088,0.066,0.181,0.122,0.285,0.159c2.138,0.78,4.654,0.762,6.887,1.132c1.185,0.197,2.376,0.34,3.539,0.571
			c1.177,0.364,2.289,0.913,3.277,1.687c0.122,0.1,0.255,0.161,0.384,0.202c0.125,0.218,0.311,0.396,0.545,0.49
			c0.048,0.148,0.126,0.3,0.249,0.441c0.182,0.212,0.344,0.407,0.484,0.602c0.147,0.219,0.28,0.45,0.398,0.698
			c0.101,0.273,0.154,0.579,0.137,0.95c-0.021,0.42,0.153,0.822,0.378,1.161c0.038,0.061,0.09,0.126,0.141,0.193
			c0.03,0.221,0.052,0.439,0.063,0.646c0.085,1.581,0.277,3.169,0.088,4.733C605.749,286.12,605.582,286.609,605.735,287.258z"/>
		<path fill="none" stroke="#46A061" stroke-width="2" stroke-miterlimit="10" d="M465.245,271.173c0,0-0.344,5.517-0.347,5.539
			c-0.058,0.929,1.031,0.921,1.645,1.218c0.857,0.414,1.537,1.188,1.846,2.089c0.551,1.603,0.919,3.229,1.184,4.908
			c0.453,2.884,0.929,5.737,1.566,8.587c0.142,0.634,0.28,1.267,0.459,1.893c0,0,1.069,3.444,1.605,4.207
			c0,0,0.973,2.438,5.095,3.759c0.767,0.245,1.544,0.466,2.32,0.677c2.48,0.67,5.021,1.096,7.566,1.413
			c3.811,0.478,7.567,0.702,11.4,0.771c4.047,0.078,8.103,0.089,12.147-0.085c2.038-0.087,4.045-0.299,6.068-0.512
			c0,0,5.628-0.602,9.183-7.239c0.687-1.075,1.335-2.177,1.968-3.282c1.292-2.246,2.505-4.533,3.54-6.908
			c0.925-2.117,1.684-4.316,2.765-6.364c0.575-1.09,1.575-1.933,2.796-2.199c1.05-0.227,2.222-0.414,3.29-0.333
			c1.175,0.084,2.502,0.148,3.394,1.029c0.832,0.828,1.308,2.022,1.686,3.106c0,0,2.799,7.965,3.428,9.256
			c0,0,2.769,7.016,4.688,9.187c1.793,2.032,3.87,3.55,6.567,4.184c3.297,0.773,6.848,0.942,10.223,1.236
			c3.929,0.345,7.868,0.627,11.818,0.738c2.238,0.061,4.473-0.021,6.712-0.021c0,0,8.176-0.094,12.959-3.775
			c0,0,2.297-1.479,3.868-7.241c0.283-1.134,0.545-2.273,0.835-3.407c0.503-1.987,1.063-4.013,1.405-6.035
			c0.082-0.482,0.153-0.966,0.275-1.441c0.189-0.724,0.396-1.642,0.774-2.286c0.327-0.559,0.764-1.079,1.279-1.471
			c0.48-0.365,1.013-0.528,1.521-0.777c0.848-0.419,0.562-2.166,0.55-2.938c-0.017-1.082,0.007-2.155,0.024-3.235
			c0.014-0.779-0.114-1.468-0.973-1.695c-1.633-0.432-3.249-0.931-4.885-1.354c-3.814-0.989-7.65-1.885-11.554-2.449
			c-2.454-0.354-4.955-0.685-7.435-0.824c-1.913-0.117-3.829-0.19-5.74-0.264c-3.368-0.125-6.746-0.24-10.116-0.172
			c-3.76,0.074-7.53,0.596-11.262,1.038c-0.814,0.096-1.631,0.193-2.446,0.312c-3.05,0.454-6.367,0.897-9.225,2.108
			c-1.062,0.451-1.954,1.155-2.94,1.674c-1.193,0.629-2.795,0.394-4.084,0.354c-1.53-0.052-3.062-0.1-4.593-0.08
			c-0.868,0.011-1.917-0.033-2.729-0.373c-1.333-0.557-2.53-1.519-3.838-2.188c-1.485-0.755-3.171-1.105-4.768-1.561
			c-0.713-0.202-1.434-0.404-2.157-0.577c-1.757-0.423-3.523-0.796-5.295-1.152c0,0-14.75-3.021-31.262-1.665
			c-0.505,0.037-1.015,0.084-1.521,0.129c-1.312,0.114-2.625,0.25-3.935,0.399c-1.79,0.202-3.574,0.432-5.356,0.679
			c-1.898,0.26-3.793,0.55-5.672,0.926c-1.768,0.354-3.511,0.812-5.243,1.314C465.641,270.192,465.292,270.393,465.245,271.173z"/>
		<path fill="#FFFFFF" stroke="#46A061" stroke-miterlimit="10" d="M559.884,272.686c0,0-8.209,0.755-9.562,4.122
			c0,0-0.974,2.771-0.406,5.979c0,0,1.194,6.799,2.641,10.104c0,0,2.987,9.381,8.333,10.794c0,0,5.725,1.734,17.111,2.108
			c0,0,16.953,0.349,21.418-2.265c0,0,3.835-2.296,5.064-8.435c0,0,1.259-6.325,1.479-9.723c0,0,0.562-6.138-2.078-9.097
			c0,0-1.477-2.583-10.41-3.588c0,0-12.172-2.11-26.354-0.851C567.119,271.835,561.381,272.484,559.884,272.686z"/>
		<path opacity="0.5" fill="#27AAE1" stroke="#EF4136" stroke-miterlimit="10" d="M502.373,269.112
			c-1.995-0.028-3.996-0.023-5.99,0.026c-3.881,0.092-7.744,0.261-11.609,0.632c-3.966,0.384-8.612,0.971-10.724,4.84
			c-0.631,1.159-0.913,2.448-1.021,3.757c0,0-1.084,12.979,2.5,19.494c0,0,0.992,3.919,12.313,5.431c0,0,16.653,1.32,20.711,0.848
			c0,0,11.983-0.188,14.625-3.964c2.246-3.039,4.236-6.423,5.651-9.924c1.325-3.278,2.54-7.091,2.618-10.655
			c0.021-0.997-0.04-2.097-0.36-3.046c-0.797-2.372-4.374-3.476-6.479-4.164c-1.757-0.571-3.536-0.898-5.347-1.244
			C519.262,271.143,508.502,269.082,502.373,269.112z"/>
		<path fill="#FFFFFF" stroke="#EF4136" stroke-miterlimit="10" d="M502.373,269.112c-1.995-0.028-3.996-0.023-5.99,0.026
			c-3.881,0.092-7.744,0.261-11.609,0.632c-3.966,0.384-8.612,0.971-10.724,4.84c-0.631,1.159-0.913,2.448-1.021,3.757
			c0,0-1.084,12.979,2.5,19.494c0,0,0.992,3.919,12.313,5.431c0,0,16.653,1.32,20.711,0.848c0,0,11.983-0.188,14.625-3.964
			c2.246-3.039,4.236-6.423,5.651-9.924c1.325-3.278,2.54-7.091,2.618-10.655c0.021-0.997-0.04-2.097-0.36-3.046
			c-0.797-2.372-4.374-3.476-6.479-4.164c-1.757-0.571-3.536-0.898-5.347-1.244C519.262,271.143,508.502,269.082,502.373,269.112z"
			/>
		<path fill="none" stroke="#46A061" stroke-miterlimit="10" d="M502.373,269.112c-1.995-0.028-3.996-0.023-5.99,0.026
			c-3.881,0.092-7.744,0.261-11.609,0.632c-3.966,0.384-8.612,0.971-10.724,4.84c-0.631,1.159-0.913,2.448-1.021,3.757
			c0,0-1.084,12.979,2.5,19.494c0,0,0.992,3.919,12.313,5.431c0,0,16.653,1.32,20.711,0.848c0,0,11.983-0.188,14.625-3.964
			c2.246-3.039,4.236-6.423,5.651-9.924c1.325-3.278,2.54-7.091,2.618-10.655c0.021-0.997-0.04-2.097-0.36-3.046
			c-0.797-2.372-4.374-3.476-6.479-4.164c-1.757-0.571-3.536-0.898-5.347-1.244C519.262,271.143,508.502,269.082,502.373,269.112z"
			/>
		<polygon fill="#46A061" points="483.161,304.651 487.878,303.532 488.618,304.272 487.515,305.374 489.812,306.105 
			492.477,303.441 492.477,300.421 490.272,302.632 489.526,301.879 492.477,298.93 492.477,295.781 489.398,298.877 
			485.554,302.712 485.552,301.225 492.477,294.247 489.385,294.247 483.158,300.479 		"/>
		<polygon fill="#46A061" points="493.531,297.83 498.25,293.109 498.989,293.851 493.531,299.31 496.56,299.31 502.852,293.018 
			502.852,290.001 500.645,292.208 499.896,291.456 502.852,288.507 502.852,285.359 499.769,288.454 495.925,292.291 
			495.925,290.799 502.852,283.823 499.76,283.823 493.531,290.057 		"/>
		<polygon fill="#46A061" points="503.916,287.53 508.635,282.811 509.374,283.549 503.916,289.011 506.945,289.011 
			513.237,282.717 513.237,279.701 511.03,281.906 510.281,281.154 513.237,278.205 513.237,275.06 510.157,278.152 506.31,281.987 
			506.31,280.499 513.237,273.523 510.145,273.523 503.916,279.754 		"/>
		<line fill="#46A061" x1="516.686" y1="271.628" x2="516.682" y2="270.14"/>
		<polyline fill="#46A061" points="514.288,269.396 514.288,277.17 519.006,272.448 519.748,273.188 514.288,278.649 
			517.319,278.649 523.608,272.354 523.608,269.338 521.402,271.546 520.654,270.794 		"/>
		<polyline fill="#46A061" points="477.5,300.055 478.24,300.796 476.533,302.506 478.813,303.627 482.102,299.965 482.102,296.949 
			479.895,299.155 479.146,298.404 482.102,295.454 482.102,292.31 479.02,295.401 475.175,299.239 475.175,297.749 
			482.102,290.773 479.011,290.773 472.781,297.004 		"/>
		<polygon fill="#46A061" points="483.158,294.356 487.878,289.637 488.618,290.376 483.158,295.834 486.188,295.834 
			492.477,289.54 492.477,286.524 490.272,288.734 489.526,287.982 492.477,285.033 492.477,281.885 489.398,284.979 
			485.554,288.815 485.552,287.326 492.477,280.349 489.385,280.349 483.158,286.582 		"/>
		<polygon fill="#46A061" points="493.531,283.983 498.25,279.264 498.989,280.002 493.531,285.464 496.56,285.464 502.852,279.169 
			502.852,276.152 500.645,278.357 499.896,277.607 502.852,274.66 502.852,271.514 499.769,274.605 495.925,278.441 
			495.925,276.954 502.852,269.977 499.76,269.977 493.531,276.208 		"/>
		<line fill="#46A061" x1="506.31" y1="268.053" x2="506.31" y2="266.564"/>
		<path fill="#46A061" d="M513.237,261.296"/>
		<polyline fill="#46A061" points="503.916,266.551 503.916,273.595 508.635,268.875 509.374,269.614 503.916,275.078 
			506.945,275.078 513.237,268.782 512.872,267.622 511.03,267.972 510.281,267.222 		"/>
		<polygon fill="#46A061" points="472.784,290.944 477.502,286.225 478.242,286.964 472.784,292.425 475.812,292.425 
			482.104,286.132 482.104,283.115 479.898,285.32 479.147,284.57 482.104,281.621 482.104,278.477 479.023,281.569 
			475.179,285.402 475.177,283.915 482.104,276.94 479.013,276.94 472.784,283.17 		"/>
		<polygon fill="#46A061" points="483.161,280.524 487.88,275.801 488.62,276.541 483.161,282.004 486.191,282.004 492.48,275.71 
			492.48,272.692 490.273,274.9 489.526,274.148 492.48,271.197 492.48,268.05 489.4,271.146 485.555,274.982 485.554,273.494 
			492.48,266.518 489.389,266.518 483.161,272.748 		"/>
		<path fill="#46A061" d="M495.925,264.658"/>
		<path fill="#46A061" d="M502.431,261.296"/>
		<line fill="#46A061" x1="500.645" y1="264.577" x2="499.896" y2="263.825"/>
		<polyline fill="#46A061" points="493.531,267.035 493.531,270.201 497.476,266.252 498.989,266.22 493.531,271.679 
			496.56,271.679 501.026,267.211 		"/>
		<polygon fill="#46A061" points="472.784,277.108 477.502,272.386 478.242,273.127 472.784,278.586 475.812,278.586 
			482.104,272.294 482.104,269.276 479.898,271.482 479.147,270.733 482.104,267.783 480.514,268.187 479.023,267.73 
			475.179,271.564 475.177,270.076 477.045,268.193 473.922,268.193 472.784,269.333 		"/>
		<line fill="#46A061" x1="498.25" y1="306.915" x2="498.989" y2="307.653"/>
		<polyline fill="#46A061" points="502.852,306.105 502.852,303.805 500.645,306.013 499.896,305.26 502.852,302.31 
			502.852,299.164 499.769,302.26 495.925,306.094 495.925,304.607 502.852,297.628 499.76,297.628 493.531,303.862 		"/>
		<polygon fill="#46A061" points="503.916,301.334 508.635,296.614 509.374,297.354 503.916,302.814 506.945,302.814 
			513.237,296.521 513.237,293.504 511.03,295.712 510.281,294.96 513.237,292.011 513.237,288.863 510.157,291.957 506.31,295.795 
			506.31,294.305 513.237,287.33 510.145,287.33 503.916,293.56 		"/>
		<polygon fill="#46A061" points="514.288,290.972 519.006,286.252 519.748,286.992 514.288,292.455 517.319,292.455 
			523.608,286.159 523.608,283.145 521.402,285.35 520.654,284.599 523.608,281.652 523.608,278.503 520.528,281.597 
			516.686,285.43 516.682,283.943 523.608,276.967 520.517,276.967 514.288,283.2 		"/>
		<polyline fill="#46A061" points="524.676,272.722 524.676,280.497 529.393,275.776 530.132,276.514 524.676,281.976 
			527.704,281.976 531.545,278.134 531.545,274.627 531.041,274.122 531.545,273.616 531.53,271.505 530.914,271.118 
			527.07,274.955 527.067,273.467 		"/>
		<polyline fill="#46A061" points="508.094,306.105 513.24,300.923 510.151,300.923 505.264,305.812 		"/>
		<polyline fill="#46A061" points="511.731,306.148 513.24,305.603 513.24,302.458 510.162,305.55 		"/>
		<path fill="#46A061" d="M513.24,307.097"/>
		<polygon fill="#46A061" points="514.308,304.626 519.026,299.905 519.766,300.646 514.308,306.105 517.337,306.105 
			523.626,299.814 523.626,296.797 521.422,299.001 520.672,298.249 523.626,295.302 523.626,292.155 520.545,295.247 
			516.702,299.084 516.702,297.597 523.626,290.62 520.537,290.62 514.308,296.852 		"/>
		<polygon fill="#46A061" points="531.545,288.387 531.046,287.89 531.545,287.392 531.545,284.262 530.918,284.887 
			527.074,288.723 527.074,287.234 531.545,282.733 531.545,280.259 530.908,280.259 524.681,286.491 524.681,294.265 
			529.401,289.542 530.141,290.281 524.681,295.746 527.71,295.746 529.899,291.573 		"/>
		<polyline fill="#46A061" points="564.033,306.567 569.92,300.666 566.959,300.666 560.998,306.604 		"/>
		<polyline fill="#46A061" points="568.443,307.231 569.92,305.129 569.92,302.129 566.969,305.077 		"/>
		<path fill="#46A061" d="M569.92,306.552"/>
		<polygon fill="#46A061" points="570.929,304.08 575.447,299.577 576.155,300.283 570.929,305.491 573.828,305.491 579.85,299.491 
			579.85,296.615 577.74,298.719 577.022,298.004 579.85,295.192 579.85,292.191 576.9,295.141 573.221,298.797 573.221,297.381 
			579.85,290.729 576.891,290.729 570.929,296.671 		"/>
		<polygon fill="#46A061" points="580.872,294.26 585.393,289.76 586.099,290.466 580.872,295.672 583.772,295.672 589.792,289.673 
			589.792,286.795 587.684,288.899 586.967,288.186 589.792,285.371 589.792,282.371 586.842,285.32 583.163,288.978 
			583.161,287.56 589.792,280.907 586.834,280.907 580.872,286.852 		"/>
		<polygon fill="#46A061" points="590.803,284.383 595.32,279.882 596.031,280.589 590.803,285.794 593.707,285.794 
			599.724,279.794 599.724,276.919 597.612,279.021 596.897,278.307 599.724,275.494 599.724,272.493 596.776,275.444 
			593.094,279.101 593.094,277.681 599.724,271.03 596.765,271.03 590.803,276.971 		"/>
		<polyline fill="#46A061" points="605.009,271.679 600.745,275.825 603.647,275.825 607.323,272.163 		"/>
		<polyline fill="#46A061" points="555.26,302.095 559.984,297.354 557.025,297.354 554.189,300.176 		"/>
		<polyline fill="#46A061" points="559.984,306.115 559.984,303.241 557.871,305.343 557.156,304.629 559.984,301.816 
			559.984,298.815 557.033,301.764 		"/>
		<polygon fill="#46A061" points="560.998,300.768 565.514,296.266 566.221,296.973 560.998,302.181 563.898,302.181 
			569.92,296.179 569.92,293.305 567.809,295.406 567.092,294.689 569.92,291.878 569.92,288.88 566.969,291.83 563.29,295.485 
			563.289,294.067 569.92,287.415 566.959,287.415 560.998,293.357 		"/>
		<polygon fill="#46A061" points="570.929,290.879 575.447,286.377 576.155,287.083 570.929,292.291 573.828,292.291 
			579.85,286.292 579.85,283.415 577.74,285.518 577.022,284.801 579.85,281.991 579.85,278.991 576.9,281.938 573.221,285.595 
			573.221,284.179 579.85,277.526 576.891,277.526 570.929,283.467 		"/>
		<polygon fill="#46A061" points="589.792,269.248 589.633,269.248 586.842,272.037 583.163,275.695 583.161,274.274 
			588.173,269.248 585.205,269.248 580.872,273.563 580.872,280.977 585.393,276.477 586.099,277.183 580.872,282.389 
			583.772,282.389 589.792,276.387 589.792,273.511 587.684,275.615 586.967,274.898 589.792,272.088 		"/>
		<polygon fill="#46A061" points="590.803,269.248 590.803,271.169 592.729,269.248 		"/>
		<polygon fill="#46A061" points="552.016,297.206 555.581,293.016 556.291,293.723 552.376,298.366 553.965,298.93 
			559.986,292.926 559.986,290.053 557.873,292.156 557.16,291.438 559.986,288.628 559.986,285.629 557.037,288.577 
			553.355,292.233 553.355,290.814 559.986,284.162 557.029,284.162 551.063,290.104 		"/>
		<polygon fill="#46A061" points="560.999,287.579 565.518,283.079 566.224,283.785 560.999,288.993 563.9,288.993 569.92,282.99 
			569.92,280.117 567.809,282.22 567.094,281.503 569.92,278.69 569.92,275.695 566.971,278.642 563.293,282.297 563.29,280.879 
			569.92,274.228 566.965,274.228 560.999,280.169 		"/>
		<polygon fill="#46A061" points="577.022,271.662 579.451,269.248 576.449,269.248 573.221,272.455 573.221,271.037 
			575.003,269.248 572.011,269.248 570.929,270.328 570.929,277.738 575.447,273.237 576.155,273.942 570.929,279.15 
			573.828,279.15 579.85,273.15 579.85,270.274 577.74,272.379 		"/>
		<polygon fill="#46A061" points="551.063,284.323 555.581,279.822 556.291,280.528 551.063,285.736 553.965,285.736 
			559.986,279.736 559.986,276.86 557.873,278.963 557.16,278.246 559.986,275.436 559.986,272.434 557.037,275.383 
			553.355,279.041 553.355,277.623 559.986,270.971 557.029,270.971 551.063,276.913 		"/>
		<polygon fill="#46A061" points="560.998,269.248 560.998,274.4 565.514,269.899 566.221,270.604 560.998,275.811 563.898,275.811 
			569.92,269.811 569.92,269.248 		"/>
		<polyline fill="#46A061" points="576.534,307.215 579.85,303.89 576.891,303.89 573.854,306.915 		"/>
		<polyline fill="#46A061" points="578.375,307.653 579.85,308.352 579.85,305.354 576.9,308.303 		"/>
		<polygon fill="#46A061" points="580.872,307.421 585.393,302.922 586.099,303.627 582.054,307.653 584.542,308.064 
			589.792,302.834 589.792,299.958 587.684,302.06 586.967,301.344 589.792,298.534 589.792,295.534 586.842,298.483 
			583.163,302.137 583.161,300.72 589.792,294.069 586.834,294.069 580.872,300.012 		"/>
		<polygon fill="#46A061" points="590.803,297.543 595.32,293.044 596.031,293.747 590.803,298.957 593.707,298.957 
			599.724,292.955 599.724,290.077 597.612,292.184 596.897,291.465 599.724,288.652 599.724,285.655 596.776,288.604 
			593.094,292.263 593.094,290.841 599.724,284.19 596.765,284.19 590.803,290.133 		"/>
		<polygon fill="#46A061" points="607.323,281.959 606.841,281.479 607.323,280.997 607.323,278.011 606.718,278.614 
			603.039,282.272 603.039,280.854 607.323,276.556 607.323,274.203 606.709,274.203 600.745,280.143 600.745,287.555 
			605.264,283.054 605.973,283.759 600.745,288.969 603.647,288.969 607.323,285.302 		"/>
		<polyline fill="#46A061" points="599.744,305.972 599.744,303.095 597.632,305.198 596.915,304.481 599.744,301.669 
			599.744,298.671 596.795,301.619 593.113,305.274 593.113,303.857 599.744,297.206 596.784,297.206 590.823,303.149 
			590.803,307.653 595.339,306.058 596.045,306.764 		"/>
		<polygon fill="#46A061" points="607.323,295.081 606.846,294.604 607.323,294.129 607.323,291.143 606.725,291.741 
			603.044,295.396 603.044,293.979 607.323,289.687 607.323,287.329 606.718,287.329 600.753,293.27 600.753,300.682 
			605.271,296.179 605.978,296.886 600.753,302.095 603.653,302.095 606.146,298.303 		"/>
		<path fill="none" stroke="#46A061" stroke-miterlimit="10" d="M559.884,272.686c0,0-8.209,0.755-9.562,4.122
			c0,0-0.974,2.771-0.406,5.979c0,0,1.194,6.799,2.641,10.104c0,0,2.987,9.381,8.333,10.794c0,0,5.725,1.734,17.111,2.108
			c0,0,16.953,0.349,21.418-2.265c0,0,3.835-2.296,5.064-8.435c0,0,1.259-6.325,1.479-9.723c0,0,0.562-6.138-2.078-9.097
			c0,0-1.477-2.583-10.41-3.588c0,0-12.172-2.11-26.354-0.851C567.119,271.835,561.381,272.484,559.884,272.686z"/>
	</g>
	<path fill="#603913" stroke="#603913" stroke-miterlimit="10" d="M587.663,130.856c0,0-2.154,0.239-5.46,0.891
		c-4.911,0.971-12.36,2.85-19.075,6.209c0,0-0.776-11.66-13.487-13.342c0,0,1.258,3.168,2.146,12.338c0,0-14.764-9.373-30.728-7.597
		c0,0,15.605,8.467,14.126,14.383c0,0-36.191-13.689-56.888,11.455c0,0-13.458,21.242-29.606,30.496c0,0,3.844,8.455,0,20.879
		c0,0-2.086,17.918-7.707,17.77c0,0,16.891,65.084,22.213,81.947l1.182-30.77l3.844,0.444l-1.479-6.95
		c0,0,41.098-46.74,51.148-48.815c0,0-15.079,21.893-24.246,27.81c0,0,52.037-3.55,84.556-35.795c0,0,6.502,37.57,29.858,44.372
		c0,0-8.277-11.534-8.572-21.001c0,0,10.349,16.564,15.668,21.889c0,0-1.477,38.754,0.003,52.361c0,0,19.062-53.746,27.739-71.572
		l1.23-21.035c0,0,3.197-13.617,5.858-13.026c-2.477-2.669-2.544-3.29-4.933-6.04c-4.45-5.121-7.387-9.343-10.834-14.421
		c-3.555-5.236-4.937-9.327-8.702-14.423c-4.372-5.922-6.82-12.124-12.398-16.938c-1.642-1.415-7.657-4.754-9.682-5.552
		c-4.111-1.622-6.635-5.535-10.982-5.24c-3.718,0.249-7.434,0.432-11.138,0.838c-0.313,0.036-2.995,0.137-3.116,0.565
		c0,0,1.426-5.131,5.32-8.728L587.663,130.856z"/>
</g>
</svg>
