<?xml version="1.0" encoding="utf-8"?>
<!-- Generator: Adobe Illustrator 16.0.0, SVG Export Plug-In . SVG Version: 6.00 Build 0)  -->
<!DOCTYPE svg PUBLIC "-//W3C//DTD SVG 1.1//EN" "http://www.w3.org/Graphics/SVG/1.1/DTD/svg11.dtd">
<svg version="1.1" id="Layer_1" xmlns="http://www.w3.org/2000/svg" xmlns:xlink="http://www.w3.org/1999/xlink" x="0px" y="0px"
	 width="110px" height="110px" viewBox="0 0 110 110" enable-background="new 0 0 110 110" xml:space="preserve">
<g>
	<path fill="#46A061" d="M104.775,99.683c0,3.3-2.7,6-6,6H10.5c-3.3,0-6-2.7-6-6V11.407c0-3.3,2.7-6,6-6h88.275c3.3,0,6,2.7,6,6
		V99.683z"/>
	<path fill="none" stroke="#FFFFFF" stroke-miterlimit="10" d="M104.775,99.683c0,3.3-2.7,6-6,6H10.5c-3.3,0-6-2.7-6-6V11.407
		c0-3.3,2.7-6,6-6h88.275c3.3,0,6,2.7,6,6V99.683z"/>
</g>
<path fill="none" stroke="#000000" stroke-width="2" stroke-miterlimit="10" d="M73.203,78.642"/>
<path fill="#FFFFFF" d="M83.384,105.683v-39.36H96.22l1.737-14.975H83.25V39.983c0-4.68,5.616-5.75,5.616-5.75l9.76-0.133V20.463
	c0,0-13.504,0-14.841,0c-15.68,0-16.178,17.647-16.178,17.647v13.104h-12.97v15.107h12.97v35.299l-0.001,4.062"/>
<path fill="none" stroke="#000000" stroke-width="2" stroke-miterlimit="10" d="M59.992,78.642"/>
</svg>
