<?xml version="1.0" encoding="utf-8"?>
<!-- Generator: Adobe Illustrator 16.0.0, SVG Export Plug-In . SVG Version: 6.00 Build 0)  -->
<!DOCTYPE svg PUBLIC "-//W3C//DTD SVG 1.1//EN" "http://www.w3.org/Graphics/SVG/1.1/DTD/svg11.dtd">
<svg version="1.1" xmlns="http://www.w3.org/2000/svg" xmlns:xlink="http://www.w3.org/1999/xlink" x="0px" y="0px" width="110px"
	 height="110px" viewBox="0 0 110 110" enable-background="new 0 0 110 110" xml:space="preserve">
<g id="Layer_1">
</g>
<g id="Layer_2">
	<path fill="#46A061" d="M67.188,30.812c0,0-10.312-3.375-25.312,0.25c0,0-7.75-6-14.312-5.375c0,0-3.125,7.75-0.438,13.812
		c0,0-6.375,5.938-5.312,16.312c0,0-0.062,14.562,11.188,19.875c0,0,2.562,2.25,12.5,3.438c0,0-2.688,2.125-3.375,7.125
		c0,0-5.5,2.438-9.688,0.562c0,0-2.312-0.5-5.062-4.375c0,0-3.125-5.562-7.875-6c0,0-2.375-0.188-2.875,1.125
		c-0.073,0.192,0.824,1.065,0.933,1.178c1.083,1.117,2.531,1.787,3.626,2.89c1.302,1.311,2.045,3,2.806,4.653
		c0.536,1.165,1.015,2.405,1.823,3.418c1.811,2.266,5.248,3.965,8.124,4.111c0,0,6.125,0.312,7.938-0.438c0,0,0.375,6.438,0.188,9.5
		c0,0,0.125,3.5-3.812,2.625c0,0-27.562-6.672-34.5-39.836c0,0-6.312-24.664,14.125-46.102c0,0,20.125-22.438,52.812-13.062
		c0,0,11.625,3.25,22.125,13.938c0,0,13.875,12.76,14.062,34.474c0,0,1.375,14.714-8.25,29.401c0,0-7.375,12.938-21.875,19
		c0,0-3.039,1.578-4.766,1.965c-0.059,0.013-0.116,0.024-0.172,0.035c-1.688,0.312-2.875,0.688-4-1.75l0.062-16.25
		c0,0-0.188-5.562-3.438-8.125c0,0,21.312-0.75,23.25-19.562c0,0,2.938-12.562-4.938-20.062c0,0,2.812-5.938-0.5-13.875
		c0,0-4.062-1.25-13.312,4.688l-0.812,0.688L67.188,30.812z"/>
</g>
</svg>
