<?xml version="1.0" encoding="utf-8"?>
<!-- Generator: Adobe Illustrator 16.0.0, SVG Export Plug-In . SVG Version: 6.00 Build 0)  -->
<!DOCTYPE svg PUBLIC "-//W3C//DTD SVG 1.1//EN" "http://www.w3.org/Graphics/SVG/1.1/DTD/svg11.dtd">
<svg version="1.1" id="Layer_1" xmlns="http://www.w3.org/2000/svg" xmlns:xlink="http://www.w3.org/1999/xlink" x="0px" y="0px"
	 width="110px" height="110px" viewBox="0 0 110 110" enable-background="new 0 0 110 110" xml:space="preserve">
<g>
	<path fill="#46A061" d="M103.999,86.545c0,9.9-8.1,18-18,18h-64c-9.9,0-18-8.1-18-18v-64c0-9.9,8.1-18,18-18h64c9.9,0,18,8.1,18,18
		V86.545z"/>
</g>
<g>
	<path fill="#FFFFFF" d="M91.197,74.034c0,9.9-8.1,18-18,18H34.802c-9.9,0-18-8.1-18-18V35.639c0-9.9,8.1-18,18-18h38.396
		c9.9,0,18,8.1,18,18V74.034z"/>
</g>
<g>
	<path fill="#46A061" d="M84.316,74.123c0,6.6-5.4,12-12,12H35.682c-6.6,0-12-5.4-12-12V37.24c0-6.6,5.4-12,12-12h36.634
		c6.6,0,12,5.4,12,12V74.123z"/>
</g>
<ellipse fill="#FFFFFF" cx="55" cy="55" rx="19.058" ry="19.051"/>
<ellipse fill="#FFFFFF" cx="74.211" cy="35.465" rx="4.545" ry="4.352"/>
</svg>
