<?xml version="1.0" encoding="utf-8"?>
<!-- Generator: Adobe Illustrator 16.0.0, SVG Export Plug-In . SVG Version: 6.00 Build 0)  -->
<!DOCTYPE svg PUBLIC "-//W3C//DTD SVG 1.1//EN" "http://www.w3.org/Graphics/SVG/1.1/DTD/svg11.dtd">
<svg version="1.1" id="Layer_1" xmlns="http://www.w3.org/2000/svg" xmlns:xlink="http://www.w3.org/1999/xlink" x="0px" y="0px"
	 width="110px" height="110px" viewBox="0 0 110 110" enable-background="new 0 0 110 110" xml:space="preserve">
<g>
	<g>
		<path fill="#46A061" d="M105.138,99.138c0,3.301-2.7,6-6,6H10.862c-3.3,0-6-2.699-6-6V10.863c0-3.3,2.7-6,6-6h88.275
			c3.3,0,6,2.7,6,6V99.138z"/>
	</g>
</g>
<path fill="#FFFFFF" stroke="#FFFFFF" stroke-width="0.5" stroke-miterlimit="10" d="M59.938,24.812v13.062h13.25v13.062h-13.25
	V68.25v1.188c0,0-0.203,3.688,3.078,3.656h10.172l0.016,13.109c0,0-1.203,0.588-8.078,0.505c0,0-13.5,1.251-17.458-9.916
	c0,0-0.875-3.624-0.875-4.708V51H38c0,0,0-12.204,0-12.208c0,0.04,2.183-0.285,2.289-0.31c1.6-0.366,3.271-0.943,4.619-1.896
	c2.66-1.88,4.1-4.776,4.801-7.873c0,0,0.645-3.047,0.624-3.901H59.938z"/>
</svg>
