<?xml version="1.0" encoding="utf-8"?>
<!-- Generator: Adobe Illustrator 16.0.0, SVG Export Plug-In . SVG Version: 6.00 Build 0)  -->
<!DOCTYPE svg PUBLIC "-//W3C//DTD SVG 1.1//EN" "http://www.w3.org/Graphics/SVG/1.1/DTD/svg11.dtd">
<svg version="1.1" xmlns="http://www.w3.org/2000/svg" xmlns:xlink="http://www.w3.org/1999/xlink" x="0px" y="0px" width="110px"
	 height="110px" viewBox="0 0 110 110" enable-background="new 0 0 110 110" xml:space="preserve">
<g id="Layer_1">
</g>
<g id="Layer_2">
	<path fill="#46A061" d="M53.736,42.405c0,0-3.307-18.277,13.133-24.246c0,0,12.03-4.868,22.042,5.051c0,0,6.521-0.275,13.315-4.684
		c0,0,0.093,4.958-8.541,11.158c0,0,7.256-1.056,11.481-2.984c0,0-4.226,7.347-10.194,10.653c0,0,2.478,20.758-12.032,38.758
		c0,0-15.886,24.246-47.94,23.053c0,0-19.47-0.275-30.583-9.094c0,0,18.185,1.104,30.399-8.908c0,0-15.154,0.186-19.194-14.051
		l9.092-0.184c0,0-15.613-2.664-16.623-20.939c0,0,6.704,3.306,9.276,2.479c0,0-15.062-9.825-6.245-27.643
		C11.123,20.825,26.368,40.753,53.736,42.405z"/>
</g>
</svg>
